<?xml version="1.0" standalone="no"?>
<!DOCTYPE svg PUBLIC "-//W3C//DTD SVG 1.1//EN" "http://www.w3.org/Graphics/SVG/1.1/DTD/svg11.dtd" >
<svg>
<metadata>
Created by FontForge 20090622 at Wed Feb  1 07:30:38 2017
 By deploy user
&#194;&#169; 2009 exljbris Font Foundry. All rights reserved.
</metadata>
<defs>
<font id="Calluna-Bold" horiz-adv-x="520" >
  <font-face 
    font-family="Calluna"
    font-weight="700"
    font-stretch="normal"
    units-per-em="1000"
    panose-1="0 0 8 0 0 0 0 0 0 0"
    ascent="750"
    descent="-250"
    x-height="459"
    cap-height="671"
    bbox="-159 -254 1196 956"
    underline-thickness="50"
    underline-position="-50"
    unicode-range="U+0020-U+FB06"
  />
<missing-glyph horiz-adv-x="690" 
d="M120 147l40 -41l185 186l185 -186l40 41l-185 185l185 186l-39 41l-186 -187l-186 187l-39 -41l185 -186zM45 -53v773h600v-773h-600z" />
    <glyph glyph-name="f_b" unicode="fb" horiz-adv-x="863" 
d="M32 -3v34q57 7 57 65v295h-61v43l61 22v31q0 108 66 179t160 71q66 0 111 -19q36 8 62 15.5t34 10.5l8 4l3 -3q-10 -36 -10 -113v-138q0 -30 -2 -60t-2 -31q46 64 131 64q88 0 137 -64t49 -152q0 -49 -17 -94.5t-50 -84t-88 -61.5t-123 -23q-31 0 -92 6t-78 6l-3 3
q10 35 10 100v496q0 18 -1 26q-24 5 -63 32.5t-55 27.5q-32 0 -45.5 -41t-13.5 -135v-54h115l-10 -61h-93l-12 -12v-286l-5 -54l94 -9l-4 -30zM523 48q17 -10 48 -10q63 0 97.5 51.5t34.5 128.5q0 70 -29 120t-87 50q-28 0 -64 -15v-325z" />
    <glyph glyph-name="f_f_b" unicode="ffb" horiz-adv-x="1171" 
d="M340 -3v34q57 7 57 65v300h-168l-12 -12v-288l-5 -54l64 -9l-4 -30l-240 -6v34q57 7 57 65v295h-61v43l61 22v13q0 105 67 172t175 67q37 0 76 -10t56 -32q65 71 160 71q66 0 111 -19q36 8 62 15.5t34 10.5l8 4l3 -3q-10 -36 -10 -113v-138q0 -30 -2 -60t-2 -31
q46 64 131 64q88 0 137 -64t49 -152q0 -49 -17 -94.5t-50 -84t-88 -61.5t-123 -23q-31 0 -92 6t-78 6l-3 3q10 35 10 100v496q0 18 -1 26q-24 5 -63 32.5t-55 27.5q-32 0 -45.5 -41t-13.5 -135v-54h115l-10 -61h-93l-12 -12v-286l-5 -54l94 -9l-4 -30zM831 48q17 -10 48 -10
q63 0 97.5 51.5t34.5 128.5q0 70 -29 120t-87 50q-28 0 -64 -15v-325zM217 486v-33h180v34q0 55 19 104q-25 1 -68.5 33.5t-69.5 32.5q-33 0 -47 -39.5t-14 -131.5z" />
    <glyph glyph-name="f_f_h" unicode="ffh" horiz-adv-x="1203" 
d="M340 -3v34q57 7 57 65v300h-168l-12 -12v-288l-5 -54l64 -9l-4 -30l-240 -6v34q57 7 57 65v295h-61v43l61 22v13q0 105 67 172t175 67q37 0 76 -10t56 -32q65 71 160 71q66 0 111 -19q36 8 62 15.5t34 10.5l8 4l3 -3q-10 -36 -10 -113v-174q0 -30 -2 -60t-2 -31
q76 100 175 100q55 0 87 -33t32 -102v-236l-5 -53l80 -10l-4 -30l-244 -6v34q45 7 45 65v197q0 51 -12.5 68.5t-43.5 17.5q-59 0 -106 -37v-246l-5 -54l63 -9l-4 -30l-239 -6v34q57 7 57 65v503q0 18 -1 26q-24 5 -63 32.5t-55 27.5q-32 0 -45.5 -41t-13.5 -135v-54h115
l-10 -61h-93l-12 -12v-286l-5 -54l64 -9l-4 -30zM217 486v-33h180v34q0 55 19 104q-25 0 -68.5 33t-69.5 33q-33 0 -47 -39.5t-14 -131.5z" />
    <glyph glyph-name="f_f_j" unicode="ffj" horiz-adv-x="898" 
d="M340 -3v34q57 7 57 65v300h-168l-12 -12v-288l-5 -54l64 -9l-4 -30l-240 -6v34q57 7 57 65v295h-61v43l61 22v13q0 105 67 172t175 67q97 0 131 -39q65 68 182 68q19 0 39.5 -2.5t45 -9.5t40 -22t15.5 -36q0 -22 -15.5 -37.5t-37.5 -15.5q-25 0 -66.5 38t-74.5 38
q-35 0 -50 -42.5t-15 -138.5v-56h168q72 0 147 28l3 -3q-9 -33 -9 -114v-316q0 -141 -58.5 -213t-165.5 -72l-12 29q43 6 75.5 60.5t32.5 128.5v349q0 24 -1 35.5t-7 21t-18 9.5h-143l-12 -12v-288l-5 -54l105 -9l-4 -30zM217 486v-33h180v29q0 60 17 109q-25 1 -67.5 33.5
t-68.5 32.5q-33 0 -47 -39.5t-14 -131.5z" />
    <glyph glyph-name="f_f_k" unicode="ffk" horiz-adv-x="1178" 
d="M340 -3v34q57 7 57 65v300h-168l-12 -12v-288l-5 -54l64 -9l-4 -30l-240 -6v34q57 7 57 65v295h-61v43l61 22v13q0 105 67 172t175 67q37 0 76 -10t56 -32q65 71 160 71q66 0 111 -19q36 8 62 15.5t34 10.5l8 4l3 -3q-10 -36 -10 -113v-361h17l98 86q36 33 36 46
q0 15 -31 22v30h193l5 -16q-70 -23 -105 -55l-94 -84v-14q7 -11 13 -18l137 -178q26 -33 40.5 -42.5t34.5 -11.5l11 -1l-4 -35l-182 -3q-10 37 -34 69l-118 161h-17v-131l-5 -54l70 -9l-4 -30l-246 -6v34q57 7 57 65v503q0 18 -1 26q-24 5 -63 32.5t-55 27.5
q-32 0 -45.5 -41t-13.5 -135v-54h115l-10 -61h-93l-12 -12v-286l-5 -54l64 -9l-4 -30zM217 486v-33h180v34q0 55 19 104q-25 0 -68.5 33t-69.5 33q-33 0 -47 -39.5t-14 -131.5z" />
    <glyph glyph-name="f_h" unicode="fh" horiz-adv-x="895" 
d="M338 -3v34q57 7 57 65v503q0 18 -1 26q-24 5 -63 32.5t-55 27.5q-32 0 -45.5 -41t-13.5 -135v-54h115l-10 -61h-93l-12 -12v-286l-5 -54l64 -9l-4 -30l-240 -6v34q57 7 57 65v295h-61v43l61 22v31q0 108 66 179t160 71q66 0 111 -19q36 8 62 15.5t34 10.5l8 4l3 -3
q-10 -36 -10 -113v-174q0 -30 -2 -60t-2 -31q76 100 175 100q55 0 87 -33t32 -102v-236l-5 -53l80 -10l-4 -30l-244 -6v34q45 7 45 65v197q0 51 -12.5 68.5t-43.5 17.5q-59 0 -106 -37v-246l-5 -54l63 -9l-4 -30z" />
    <glyph glyph-name="f_k" unicode="fk" horiz-adv-x="870" 
d="M338 -3v34q57 7 57 65v503q0 18 -1 26q-24 5 -63 32.5t-55 27.5q-32 0 -45.5 -41t-13.5 -135v-54h115l-10 -61h-93l-12 -12v-286l-5 -54l64 -9l-4 -30l-240 -6v34q57 7 57 65v295h-61v43l61 22v31q0 108 66 179t160 71q66 0 111 -19q36 8 62 15.5t34 10.5l8 4l3 -3
q-10 -36 -10 -113v-361h17l98 86q36 33 36 46q0 15 -31 22v30h193l5 -16q-70 -23 -105 -55l-94 -84v-14q7 -11 13 -18l137 -178q26 -33 40.5 -42.5t34.5 -11.5l11 -1l-4 -35l-182 -3q-10 37 -34 69l-118 161h-17v-131l-5 -54l70 -9l-4 -30z" />
    <glyph glyph-name="ff" unicode="ff" horiz-adv-x="658" 
d="M340 -3v34q57 7 57 65v300h-168l-12 -12v-288l-5 -54l64 -9l-4 -30l-240 -6v34q57 7 57 65v295h-61v43l61 22v13q0 105 67 172t175 67q37 0 76 -10t56 -32q65 71 160 71q49 0 90 -18t41 -52q0 -23 -15.5 -38t-37.5 -15q-26 0 -64.5 35.5t-52.5 35.5q-32 0 -45.5 -41
t-13.5 -135v-54h130l-10 -61h-108l-12 -12v-286l-5 -54l105 -9l-4 -30zM217 486v-33h180v34q0 55 19 104q-25 0 -68.5 33t-69.5 33q-33 0 -47 -39.5t-14 -131.5z" />
    <glyph glyph-name="fi" unicode="fi" horiz-adv-x="611" 
d="M32 -3v34q57 7 57 65v295h-61v43l61 22v26q0 118 64.5 186.5t182.5 68.5q19 0 39.5 -2.5t45 -9.5t40 -22t15.5 -36q0 -22 -15.5 -37.5t-37.5 -15.5q-25 0 -66.5 38t-74.5 38q-35 0 -50 -42.5t-15 -138.5v-56h168q78 0 147 28l3 -3q-9 -33 -9 -114v-268l-5 -54l85 -9
l-4 -30l-266 -6v34q62 7 62 65v234q0 25 -1.5 36.5t-8 20.5t-20.5 9h-139l-12 -12v-288l-5 -54l59 -9l-4 -30z" />
    <glyph glyph-name="fl" unicode="fl" horiz-adv-x="612" 
d="M341 -3v34q57 7 57 65v503q0 18 -1 26q-25 4 -65 32t-56 28q-32 0 -45.5 -41t-13.5 -135v-54h115l-10 -61h-93l-12 -12v-286l-5 -54l64 -9l-4 -30l-240 -6v34q57 7 57 65v295h-61v43l61 22v31q0 108 66 179t160 71q64 0 112 -20q36 9 62.5 16.5t34.5 10.5l9 4l3 -3
q-10 -36 -10 -113v-536l-5 -54l80 -9l-4 -30z" />
    <glyph glyph-name="f_f_i" unicode="ffi" horiz-adv-x="920" 
d="M341 -3v34q57 7 57 65v300h-169l-12 -12v-288l-5 -54l64 -9l-4 -30l-240 -6v34q57 7 57 65v295h-61v43l61 22v13q0 105 67 172t175 67q36 0 75 -9.5t56 -30.5q66 69 178 69q22 0 43.5 -2.5t46 -9.5t40 -22t15.5 -36q0 -22 -15.5 -37.5t-37.5 -15.5q-25 0 -66.5 38
t-72.5 38q-36 0 -51.5 -42t-15.5 -139v-56h168q70 0 147 28l3 -3q-9 -33 -9 -114v-268l-5 -54l85 -9l-4 -30l-266 -6v34q62 7 62 65v234q0 25 -1.5 36.5t-8 20.5t-20.5 9h-139l-12 -12v-288l-5 -54l59 -9l-4 -30zM217 486v-33h181v29q0 61 18 109q-26 0 -69 33t-69 33
q-33 0 -47 -39.5t-14 -131.5z" />
    <glyph glyph-name="f_f_l" unicode="ffl" horiz-adv-x="921" 
d="M341 -3v34q57 7 57 65v300h-169l-12 -12v-288l-5 -54l64 -9l-4 -30l-240 -6v34q57 7 57 65v295h-61v43l61 22v13q0 105 67 172t175 67q37 0 76.5 -10t56.5 -32q65 71 160 71q64 0 112 -20q36 9 62.5 16.5t35.5 10.5l8 4l3 -3q-10 -36 -10 -113v-536l-5 -54l80 -9l-4 -30
l-256 -6v34q57 7 57 65v503q0 18 -1 26q-25 4 -65 32t-56 28q-32 0 -45.5 -41t-13.5 -135v-54h115l-10 -61h-93l-12 -12v-286l-5 -54l64 -9l-4 -30zM217 486v-33h181v34q0 55 19 104q-26 0 -69.5 33t-69.5 33q-33 0 -47 -39.5t-14 -131.5z" />
    <glyph glyph-name="f_j" unicode="fj" horiz-adv-x="590" 
d="M32 -3v34q57 7 57 65v295h-61v43l61 22v26q0 118 64.5 186.5t182.5 68.5q19 0 39.5 -2.5t45 -9.5t40 -22t15.5 -36q0 -22 -15.5 -37.5t-37.5 -15.5q-25 0 -66.5 38t-74.5 38q-35 0 -50 -42.5t-15 -138.5v-56h168q72 0 147 28l3 -3q-9 -33 -9 -114v-316q0 -141 -58.5 -213
t-165.5 -72l-12 29q43 6 75.5 60.5t32.5 128.5v349q0 24 -1 35.5t-7 21t-18 9.5h-143l-12 -12v-288l-5 -54l105 -9l-4 -30z" />
    <glyph glyph-name=".notdef" horiz-adv-x="690" 
d="M120 147l40 -41l185 186l185 -186l40 41l-185 185l185 186l-39 41l-186 -187l-186 187l-39 -41l185 -186zM45 -53v773h600v-773h-600z" />
    <glyph glyph-name=".null" horiz-adv-x="0" 
 />
    <glyph glyph-name="nonmarkingreturn" horiz-adv-x="333" 
 />
    <glyph glyph-name="space" unicode=" " horiz-adv-x="217" 
 />
    <glyph glyph-name="exclam" unicode="!" horiz-adv-x="298" 
d="M126 205l-64 454q40 8 82.5 18t65.5 17l23 6l6 -8q-15 -37 -25 -118l-51 -369h-37zM66 65q0 32 22.5 55t54.5 23t55 -23t23 -55t-23 -54.5t-55 -22.5q-31 0 -54 23t-23 54z" />
    <glyph glyph-name="quotedbl" unicode="&#x22;" horiz-adv-x="380" 
d="M53 401v266h116v-37l-53 -229h-63zM234 401v266h116v-37l-53 -229h-63z" />
    <glyph glyph-name="numbersign" unicode="#" horiz-adv-x="667" 
d="M332 -89l43 211h-151l-43 -211h-64l43 211h-130l10 60h133l28 136h-132l10 60h134l41 200h63l-41 -200h152l41 200h63l-41 -200h144l-10 -60h-146l-28 -136h145l-10 -60h-147l-43 -211h-64zM264 318l-28 -136h152l28 136h-152z" />
    <glyph glyph-name="dollar" unicode="$" horiz-adv-x="447" 
d="M28 81q0 20 27 103h35q0 -69 29 -103t73 -41l7 177q-31 15 -47 23.5t-42 26.5t-39.5 34.5t-24 42t-10.5 54.5q0 66 45.5 111.5t131.5 53.5l4 83h45l-4 -81q47 -1 150 -17l-29 -149h-35q4 110 -88 119l-6 -171q35 -16 49 -23t43 -25.5t42 -35t24.5 -43t11.5 -58.5
q0 -75 -51 -118.5t-134 -49.5l-3 -83h-45l3 83q-64 3 -113 25t-49 62zM314 111q0 45 -70 84l-7 -155q34 5 55.5 23t21.5 48zM142 447q0 -45 63 -79l6 148q-32 -5 -50.5 -23.5t-18.5 -45.5z" />
    <glyph glyph-name="percent" unicode="%" horiz-adv-x="759" 
d="M31 510q0 65 48 111t116 46t116 -46t48 -111t-48 -111.5t-116 -46.5t-116 46.5t-48 111.5zM113 510q0 -36 24.5 -64t57.5 -28t57.5 28t24.5 64t-24.5 64t-57.5 28t-57.5 -28t-24.5 -64zM117 0l471 678l44 -29l-451 -649h-64zM401 146q0 65 48 111t116 46t116 -46t48 -111
t-48 -111.5t-116 -46.5t-116 46.5t-48 111.5zM483 146q0 -36 24.5 -64t57.5 -28t57.5 28t24.5 64t-24.5 64t-57.5 28t-57.5 -28t-24.5 -64z" />
    <glyph glyph-name="ampersand" unicode="&#x26;" horiz-adv-x="681" 
d="M27 155q0 91 146 182q-56 104 -56 187q0 62 48 108.5t136 46.5q76 0 123 -32.5t47 -94.5q0 -86 -156 -192q64 -103 164 -211q39 48 61.5 107t22.5 103q0 32 -15.5 47t-49.5 19v30h153l5 -15q-5 -8 -10 -20.5t-8 -22.5l-8.5 -28t-8.5 -27q-44 -144 -110 -227
q110 -114 163 -139l-14 -26q-106 12 -223 93q-79 -55 -181 -55q-58 0 -107.5 15.5t-85.5 55t-36 96.5zM300 49q48 0 95 26q-120 96 -198 220q-48 -40 -48 -102q0 -73 42.5 -108.5t108.5 -35.5zM243 554q0 -64 50 -156q35 29 50.5 63.5t15.5 85.5q0 35 -16.5 61.5t-46.5 26.5
q-26 0 -39.5 -24t-13.5 -57z" />
    <glyph glyph-name="quotesingle" unicode="'" horiz-adv-x="199" 
d="M53 401v266h116v-37l-53 -229h-63z" />
    <glyph glyph-name="parenleft" unicode="(" horiz-adv-x="283" 
d="M32 270q0 74 18 145t43.5 119.5t51.5 86.5t44 57l18 18l40 -17q-5 -7 -12.5 -20t-27 -55t-34.5 -87t-27.5 -112.5t-12.5 -134.5q0 -73 14 -145t34.5 -122t41 -89.5t34.5 -59.5l14 -19l-39 -21q-8 7 -21.5 20.5t-48 59t-61 95t-48 126.5t-21.5 155z" />
    <glyph glyph-name="parenright" unicode=")" horiz-adv-x="282" 
d="M15 -165l14 20t32 57t40.5 91.5t32 120.5t14.5 146q0 67 -11 133t-27 113t-32.5 84t-27.5 56l-11 18l40 22q7 -7 18.5 -19.5t40.5 -54.5t51.5 -88.5t41 -118t18.5 -145.5q0 -78 -20 -154t-48.5 -128t-57.5 -93t-49 -61l-20 -20z" />
    <glyph glyph-name="asterisk" unicode="*" horiz-adv-x="504" 
d="M191 655q-5 15 16 24t44 9t44 -9t16 -24l-45 -117q-3 -8 -6.5 -14.5t-5.5 -9.5l-3 -2q-9 10 -15 26zM251 260q-23 0 -44 9t-16 24l45 117l15 26q9 -9 15 -26l45 -117q5 -15 -16 -24t-44 -9zM64 513q-11 2 -12.5 15t3 27t11.5 26q11 20 29.5 33.5t28.5 1.5l79 -97
q5 -6 9 -12.5t5 -10.5l1 -3q-13 -3 -30 0zM378 332l-79 97q-5 6 -8.5 12.5t-4.5 10.5l-2 3q12 3 30 0l124 -20q11 -2 12.5 -15t-3 -27t-11.5 -26q-11 -20 -29.5 -33.5t-28.5 -1.5zM124 332q-10 -12 -28.5 1.5t-29.5 33.5q-7 12 -11.5 26t-2.5 27t13 15l123 20h30
q-4 -13 -15 -26zM284 493q3 12 15 26l79 97q10 12 28.5 -1.5t29.5 -33.5q7 -12 11.5 -26t2.5 -27t-13 -15l-123 -20h-30z" />
    <glyph glyph-name="plus" unicode="+" 
d="M31 220v71h193v207h75v-207h190v-71h-190v-220h-75v220h-193z" />
    <glyph glyph-name="comma" unicode="," horiz-adv-x="238" 
d="M43 50v51l99 52q54 -66 54 -133q0 -59 -33.5 -109t-94.5 -102l-32 36q41 37 58.5 61.5t17.5 52.5q0 45 -69 91z" />
    <glyph glyph-name="hyphen" unicode="-" horiz-adv-x="374" 
d="M54 215v80h266v-80h-266z" />
    <glyph glyph-name="period" unicode="." horiz-adv-x="245" 
d="M45 65q0 32 22.5 55t54.5 23t55 -23t23 -55t-23 -54.5t-55 -22.5t-54.5 23t-22.5 54z" />
    <glyph glyph-name="slash" unicode="/" horiz-adv-x="350" 
d="M-34 -196l333 863h79l-332 -863h-80z" />
    <glyph glyph-name="zero" unicode="0" horiz-adv-x="573" 
d="M286 52q58 0 85 52.5t27 131.5t-27 133t-84 54q-58 0 -85 -54t-27 -134q0 -78 27 -130.5t84 -52.5zM47 232q0 101 65.5 178t180.5 77q110 0 171.5 -70t61.5 -168q0 -65 -26.5 -123t-84 -98t-135.5 -40q-110 0 -171.5 72.5t-61.5 171.5z" />
    <glyph glyph-name="one" unicode="1" horiz-adv-x="395" 
d="M48 -5v39q47 0 65.5 14.5t18.5 49.5v279q0 35 -18 47t-71 12v39h306l-4 -37l-89 -11v-329l-5 -53l103 -10l-4 -35z" />
    <glyph glyph-name="two" unicode="2" horiz-adv-x="486" 
d="M49 0l-10 38q5 5 40.5 34.5t50 43t44 44t43.5 52t26 51.5t12 58q0 42 -22.5 61.5t-58.5 19.5q-58 0 -109 -32l-22 28q3 4 9 10t25 21t39.5 27t52 21.5t62.5 9.5q66 0 110.5 -37.5t44.5 -92.5t-49.5 -112t-159.5 -147h130q34 0 54.5 12t28 26.5t16.5 39.5q1 5 2 7h44
l-32 -183h-371z" />
    <glyph glyph-name="three" unicode="3" horiz-adv-x="406" 
d="M12 -156q39 4 73 13.5t69 28.5t55 52.5t20 78.5q0 66 -38.5 93.5t-94.5 27.5l-29 -2v55q63 6 102.5 52.5t39.5 97.5q0 31 -18 50.5t-53 19.5q-24 0 -50.5 -10.5t-40.5 -20.5l-14 -10l-18 25q3 4 8 10t22.5 22t36.5 28t49 22t61 10q64 0 108 -36t44 -91q0 -101 -166 -170
q87 -8 138 -51t51 -110q0 -71 -56.5 -125.5t-127.5 -78.5t-137 -24l-28 1z" />
    <glyph glyph-name="four" unicode="4" horiz-adv-x="523" 
d="M21 29l-8 35l269 399l111 25l5 -2q-8 -38 -8 -109v-267h110l-14 -81h-96v-161q0 -17 -1 -31t-3 -19l-1 -5l-122 -12l-4 3q5 23 5 59v166h-243zM105 110h159v181q0 28 4 66z" />
    <glyph glyph-name="five" unicode="5" horiz-adv-x="417" 
d="M36 -156q96 7 157 52.5t61 114.5q0 37 -22 66t-54 44t-63.5 25t-53.5 12l-22 3l17 314h233l70 6l-14 -102h-242l-6 -103q6 -1 16 -3t40 -10t57 -18.5t59.5 -29.5t56.5 -42t40 -57t16 -73q0 -105 -92.5 -173.5t-218.5 -68.5l-29 1z" />
    <glyph glyph-name="six" unicode="6" horiz-adv-x="524" 
d="M273 -12q-110 0 -169.5 82.5t-59.5 204.5q0 76 24 146.5t70 129t121 93.5t168 35l6 -40q-128 -20 -190 -120t-62 -239q0 -101 29.5 -174.5t79.5 -73.5q38 0 58.5 41.5t20.5 103.5q0 27 -6 58.5t-18 64.5t-36 53.5t-55 16.5l-8 41q28 14 69 14q77 0 129.5 -56.5
t52.5 -143.5q0 -94 -59.5 -165.5t-164.5 -71.5z" />
    <glyph glyph-name="seven" unicode="7" horiz-adv-x="484" 
d="M143 -79q78 107 169 305l60 132q-38 -4 -66 -4h-142q-50 0 -67 -11t-34 -56h-44l35 188h354l62 4l4 -29q-43 -77 -56 -106l-205 -458l-9 -20.5l-8.5 -19t-7.5 -15t-8.5 -13.5t-9.5 -9t-12 -6.5t-14 -1.5q-19 0 -31 12.5t-12 32.5q0 9 3.5 18t6.5 14t14.5 20z" />
    <glyph glyph-name="eight" unicode="8" horiz-adv-x="518" 
d="M43 147q0 34 13 64.5t37.5 54.5t44 39t48.5 33q-57 50 -88.5 94.5t-31.5 96.5q0 67 54.5 108.5t144.5 41.5q86 0 136 -37t50 -97q0 -83 -121 -168q34 -29 54 -48.5t44 -48t35.5 -57.5t11.5 -60q0 -75 -64 -125t-158 -50q-84 0 -147 41t-63 118zM154 171q0 -63 28.5 -101
t71.5 -38q38 0 67.5 26.5t29.5 69.5q0 31 -21 65t-43.5 55.5t-65.5 58.5q-32 -27 -49.5 -56.5t-17.5 -79.5zM188 563q0 -38 26.5 -73t77.5 -81q46 46 46 124q0 49 -21.5 75.5t-56.5 26.5q-31 0 -51.5 -19.5t-20.5 -52.5z" />
    <glyph glyph-name="nine" unicode="9" horiz-adv-x="538" 
d="M109 -159q128 20 190 118t62 235q0 101 -29.5 175t-78.5 74q-35 0 -54.5 -41t-19.5 -101q0 -28 4.5 -58.5t15.5 -64.5t34 -53.5t55 -14.5l8 -41q-33 -14 -70 -14q-73 0 -124.5 55.5t-51.5 140.5q0 93 59 164.5t161 71.5q109 0 168.5 -82.5t59.5 -203.5q0 -75 -24 -145.5
t-70 -128t-121 -92t-168 -34.5z" />
    <glyph glyph-name="colon" unicode=":" horiz-adv-x="275" 
d="M60 389q0 32 22.5 55t54.5 23t55 -23t23 -55t-23 -54.5t-55 -22.5q-31 0 -54 23t-23 54zM60 65q0 32 22.5 55t54.5 23t55 -23t23 -55t-23 -54.5t-55 -22.5q-31 0 -54 23t-23 54z" />
    <glyph glyph-name="semicolon" unicode=";" horiz-adv-x="270" 
d="M64 50v51l99 52q54 -66 54 -133q0 -59 -33.5 -109t-94.5 -102l-32 36q41 37 58.5 61.5t17.5 52.5q0 45 -69 91zM54 389q0 32 22.5 55t54.5 23t55 -23t23 -55t-23 -54.5t-55 -22.5q-31 0 -54 23t-23 54z" />
    <glyph glyph-name="less" unicode="&#x3c;" 
d="M25 231v46l426 229l20 -73l-347 -179l347 -189l-20 -72z" />
    <glyph glyph-name="equal" unicode="=" 
d="M41 303v70h438v-70h-438zM41 128v70h438v-70h-438z" />
    <glyph glyph-name="greater" unicode="&#x3e;" 
d="M48 65l347 189l-347 179l20 73l426 -229v-46l-426 -238z" />
    <glyph glyph-name="question" unicode="?" horiz-adv-x="371" 
d="M131 206q-5 22 -5 55q0 38 14 71.5t30.5 52.5t30.5 40t14 36q0 25 -44.5 54.5t-89.5 46.5l-45 16l26 131q12 -4 32.5 -11.5t72 -30.5t91 -46.5t72 -57.5t32.5 -65q0 -24 -20 -50t-49 -50.5l-58 -51.5t-49 -63.5t-20 -76.5h-35zM73 65q0 32 22.5 55t54.5 23t55 -23t23 -55
t-23 -54.5t-55 -22.5t-54.5 23t-22.5 54z" />
    <glyph glyph-name="at" unicode="@" horiz-adv-x="847" 
d="M337 193q0 -118 56 -118q27 0 66 30v306q-5 -1 -13 -3t-29 -16t-37.5 -35t-29.5 -64.5t-13 -99.5zM23 186q0 167 127.5 290.5t303.5 123.5q153 0 255.5 -94t102.5 -235q0 -61 -18.5 -116.5t-66.5 -100.5t-119 -52l-151 -15l-2 4q8 29 8 54v33q-50 -90 -124 -90
q-52 0 -95 42t-43 136q0 127 81.5 209.5t203.5 82.5q22 0 50 -3t45 -6l17 -3q-11 -44 -11 -84v-268q0 -47 33 -47t63 44.5t30 142.5q0 143 -73 229t-206 86q-75 0 -135 -28.5t-97.5 -77t-57 -108.5t-19.5 -127q0 -128 67.5 -224t188.5 -110l-10 -45q-150 6 -249 108t-99 249
z" />
    <glyph glyph-name="A" unicode="A" horiz-adv-x="625" 
d="M-17 0v34q50 5 67 47l232 581l61 13l219 -569q14 -37 28.5 -53.5t41.5 -20.5l-4 -32h-41l-195 -4v39q54 2 40 40l-47 129h-213l-17 -12l-56 -147l86 -11l-6 -34h-196zM303 435q-9 23 -25 77l-97 -253h185z" />
    <glyph glyph-name="B" unicode="B" horiz-adv-x="625" 
d="M48 -3v37q67 8 67 62v468q0 37 -12.5 49.5t-64.5 23.5v30h257q129 0 191.5 -41t62.5 -105q0 -33 -16 -63t-41.5 -51t-44 -33t-35.5 -20q29 -6 55 -16t56.5 -28.5t49 -50t18.5 -71.5q0 -81 -75 -134.5t-205 -53.5h-92zM244 52h55q69 0 107 34.5t38 86.5q0 60 -44 102
t-123 42h-16l-12 -12v-198zM249 369h81q24 2 49.5 37t25.5 91q0 118 -115 118h-29l-12 -12v-234z" />
    <glyph glyph-name="C" unicode="C" horiz-adv-x="686" 
d="M34 324q0 65 24 127t69.5 113.5t118.5 83t163 31.5q52 0 141 -13.5t95 -14.5l-30 -157h-39q-3 70 -52 102.5t-126 32.5q-113 0 -171 -76t-58 -189q0 -134 81.5 -211t198.5 -77q51 0 99 17t70 35l23 17l17 -26q-3 -5 -10 -14t-31 -31.5t-52.5 -40t-76.5 -31.5t-101 -14
q-159 0 -256 99.5t-97 236.5z" />
    <glyph glyph-name="D" unicode="D" horiz-adv-x="754" 
d="M48 -3v37q67 8 67 62v468q0 37 -12.5 49.5t-64.5 23.5v30h297q79 0 147 -18t122 -54t85 -96.5t31 -138.5q0 -111 -57 -194.5t-150 -124.5t-208 -41h-86zM244 52h61q131 0 199 72t68 207q0 129 -61.5 206.5t-174.5 77.5h-75l-12 -12v-495z" />
    <glyph glyph-name="E" unicode="E" horiz-adv-x="599" 
d="M48 -3v37q67 8 67 62v468q0 37 -12.5 49.5t-64.5 23.5v30h435l77 4l-31 -177h-39q4 74 -20 97.5t-88 23.5h-111l-12 -12v-237h167l8 58l42 6v-191h-52v75h-153l-12 -12v-194l-5 -56h139q64 0 87 19t61 99h39l-37 -170h-314z" />
    <glyph glyph-name="F" unicode="F" horiz-adv-x="554" 
d="M48 -3v37q32 4 49.5 21t17.5 44v465q0 37 -12.5 49.5t-64.5 23.5v30h435l77 4l-31 -177h-39q4 74 -20 97.5t-88 23.5h-111l-12 -12v-241h167l8 58l42 6v-190h-52v74h-153l-12 -12v-199l-5 -54l110 -9l-4 -33z" />
    <glyph glyph-name="G" unicode="G" horiz-adv-x="717" 
d="M34 319q0 69 23.5 132.5t70 115t123 82t173.5 30.5q38 0 83 -4.5t90 -11t61 -7.5l-30 -162h-39q0 39 -15.5 67t-41.5 42t-53 20t-58 6q-116 0 -179 -82t-63 -204q0 -130 72.5 -214.5t191.5 -84.5q41 0 82 10v129q0 38 -14.5 51t-77.5 22v30h253l5 -19q-4 -2 -10.5 -7
t-17.5 -29.5t-11 -58.5v-158q-20 -1 -106 -13.5t-136 -12.5q-160 0 -268 88.5t-108 242.5z" />
    <glyph glyph-name="H" unicode="H" horiz-adv-x="817" 
d="M47 -3v37q32 4 49.5 21t17.5 44v465q0 38 -10 50t-59 23v30h73l158 4l5 -4q-33 -43 -33 -126v-174h317l12 12v185q0 38 -10 50t-59 23v30h73l158 4l5 -4q-33 -43 -33 -126v-442l-5 -54l85 -9l-4 -33l-277 -6v37q31 4 49 20.5t18 41.5v216h-317l-12 -12v-201l-5 -54l85 -9
l-4 -33z" />
    <glyph glyph-name="I" unicode="I" horiz-adv-x="354" 
d="M47 -3v37q32 4 49.5 21t17.5 44v465q0 38 -10 50t-59 23v30h73l158 4l5 -4q-33 -43 -33 -126v-442l-5 -54l85 -9l-4 -33z" />
    <glyph glyph-name="J" unicode="J" horiz-adv-x="330" 
d="M105 70v494q0 38 -10 50t-59 23v30h73l158 4l5 -4q-33 -38 -33 -121v-399q0 -144 -61 -227t-169 -83l-12 29q43 6 75.5 64.5t32.5 139.5z" />
    <glyph glyph-name="K" unicode="K" horiz-adv-x="683" 
d="M47 -3v37q31 4 49 20.5t18 41.5v468q0 38 -10 50t-59 23v30h73l158 4l5 -4q-33 -38 -33 -121v-176h18q29 18 48 38l174 180q17 14 11 29t-43 20v30h200l6 -19q-62 -20 -107 -67l-171 -178v-17l225 -291q28 -36 41 -45.5t33 -11.5l11 -1l-4 -37h-192l-4 4q-7 31 -65 105
l-161 208h-20v-221l-5 -51l85 -9l-4 -33z" />
    <glyph glyph-name="L" unicode="L" horiz-adv-x="576" 
d="M47 -3v37q67 8 67 62v468q0 38 -10 50t-59 23v30h73l158 4l5 -4q-33 -43 -33 -126v-433l-5 -56h144q57 0 84.5 27.5t68.5 110.5h39l-42 -190h-319z" />
    <glyph glyph-name="M" unicode="M" horiz-adv-x="908" 
d="M33 -3v37q69 8 72 62l20 468q2 37 -10.5 49t-66.5 24v30h75l159 4l4 -4q10 -36 29 -92l121 -316q9 -22 19 -58l159 394l22 72h49l131 4l5 -4q-4 -5 -9.5 -14t-14 -42t-7.5 -70l19 -448l-3 -51l83 -6l-4 -33l-276 -6v37q32 4 50 19t17 40l-17 464l-226 -557l-40 12
l-210 549q-1 -21 -2 -40l-17 -425l-7 -54l92 -6l-4 -33z" />
    <glyph glyph-name="N" unicode="N" horiz-adv-x="785" 
d="M47 -3v37q72 8 72 62v430q0 49 -16 72t-65 39v30h29l131 4q12 -24 39 -52l350 -369q19 -20 41 -48v356q0 20 -1.5 30t-9 21t-24.5 16.5t-46 8.5v33h202l5 -19l-7.5 -2.5t-16.5 -9t-21 -18t-16.5 -29.5t-7.5 -42v-552h-42l-426 456q-19 19 -41 49v-404l-5 -54l90 -6
l-4 -33z" />
    <glyph glyph-name="O" unicode="O" horiz-adv-x="800" 
d="M182 352q0 -123 62 -218.5t165 -95.5q98 0 153 86t55 206q0 77 -23.5 143t-76 111t-123.5 45q-101 0 -156.5 -81t-55.5 -196zM35 323q0 67 24.5 130t70.5 114t120.5 81.5t165.5 30.5q87 0 155.5 -27.5t110 -73.5t63 -102.5t21.5 -118.5q0 -68 -25.5 -133t-72 -118
t-120.5 -85.5t-164 -32.5q-111 0 -192.5 49.5t-119 124t-37.5 161.5z" />
    <glyph glyph-name="P" unicode="P" horiz-adv-x="586" 
d="M48 -3v37q31 4 49 20.5t18 41.5v468q0 37 -12.5 49.5t-64.5 23.5v30h281q48 0 90.5 -9t80.5 -28t60.5 -55t22.5 -85q0 -100 -80 -162.5t-180 -52.5v38q57 5 85 43t28 100q0 74 -40.5 116.5t-101.5 42.5h-23l-12 -12v-507l-5 -51l95 -9l-4 -33z" />
    <glyph glyph-name="Q" unicode="Q" horiz-adv-x="801" 
d="M287 -1q-121 29 -186.5 119.5t-65.5 203.5q0 68 24.5 131t70.5 114t120.5 81.5t165.5 30.5q87 0 155.5 -27.5t110 -73.5t63 -102.5t21.5 -118.5q0 -112 -66.5 -210.5t-185.5 -138.5q14 -9 42.5 -40l55.5 -59t69 -51.5t85 -23.5q16 0 32 3v-36q-53 -37 -129 -37
q-37 0 -69.5 10.5t-61 33.5t-44.5 38t-41 46.5t-30 36.5q-12 14 -25 24.5t-22 16.5t-24 11.5t-20 7t-23 5.5t-22 5zM182 352q0 -78 25.5 -147.5t78.5 -116.5t123 -47q66 0 114.5 43t71 107t22.5 138q0 77 -23.5 143t-75.5 110t-124 44q-68 0 -117.5 -40t-72 -101t-22.5 -133
z" />
    <glyph glyph-name="R" unicode="R" horiz-adv-x="660" 
d="M48 -3v37q31 4 49 20.5t18 41.5v468q0 37 -12.5 49.5t-64.5 23.5v30h283q124 0 184 -46t60 -115q0 -96 -123 -172v-17l145 -218q18 -27 33.5 -41t22.5 -16.5t20 -3.5l11 -1l-4 -37h-192l-4 4q-13 43 -57 109l-113 171h-43l-12 -12v-176l-5 -51l90 -9l-4 -33zM249 336h73
q37 0 66.5 37t29.5 102q0 64 -32.5 102t-99.5 38h-25l-12 -12v-267z" />
    <glyph glyph-name="S" unicode="S" horiz-adv-x="517" 
d="M38 90q0 24 30 111h39q0 -47 13.5 -80.5t36 -50.5t46 -24.5t49.5 -7.5q45 0 77 22.5t32 65.5q0 36 -23 66.5t-57 50l-74.5 44t-74.5 49t-57 64.5t-23 90q0 84 61 136.5t174 52.5q51 0 179 -19l-33 -166h-39q4 135 -115 135q-50 0 -79.5 -23.5t-29.5 -63.5q0 -43 32 -76
t77 -57l90.5 -50.5t77.5 -72t32 -106.5q0 -93 -65.5 -142.5t-166.5 -49.5q-49 0 -94 9.5t-79.5 33.5t-35.5 59z" />
    <glyph glyph-name="T" unicode="T" horiz-adv-x="652" 
d="M189 -3v37q32 4 49.5 21t17.5 44v516h-86q-50 0 -77.5 -23.5t-56.5 -97.5h-39l31 179q26 -6 67 -6h492q18 0 36 1.5t27 3.5l9 1l-31 -179h-39q0 72 -24.5 96.5t-83.5 24.5h-79l-12 -12v-504l-5 -54l100 -9l-4 -33z" />
    <glyph glyph-name="U" unicode="U" horiz-adv-x="737" 
d="M86 234v330q0 38 -10 50t-59 23v30h73l158 4l5 -4q-33 -40 -33 -126v-299q0 -96 54.5 -146t130.5 -50q74 0 128 50.5t54 138.5v324q0 20 -1.5 29.5t-8.5 20.5t-22.5 16.5t-43.5 8.5v33h207l5 -19q-3 -1 -8 -3t-18 -10.5t-22.5 -19.5t-17.5 -31t-8 -43v-303
q0 -120 -77.5 -185t-199.5 -65q-54 0 -102.5 13.5t-91 41t-67.5 77t-25 114.5z" />
    <glyph glyph-name="V" unicode="V" horiz-adv-x="612" 
d="M276 3l-230 579q-7 20 -21 33.5t-24 17.5l-10 4v30h56l146 4l4 -4q-23 -47 -6 -92l130 -346q6 -16 19 -62l157 383q15 33 4.5 54.5t-50.5 32.5v30h166l5 -19q-34 -21 -67 -102l-229 -555z" />
    <glyph glyph-name="W" unicode="W" horiz-adv-x="954" 
d="M643 3l-167 442l-144 -454l-58 12l-230 579q-8 20 -21.5 33.5t-23.5 17.5l-10 4v30h56l143 4l4 -4q-10 -19 -12 -44.5t6 -47.5l128 -339q10 -25 18 -62l112 355l-19 53q-7 20 -21 33.5t-24 17.5l-10 4v30h56l143 4l4 -4q-22 -45 -6 -92l117 -341q9 -28 16 -62l121 378
q13 33 3 54.5t-49 32.5v30h164l5 -19l-5 -2.5t-11 -9.5t-16 -18t-18 -29.5t-17 -42.5l-175 -555z" />
    <glyph glyph-name="X" unicode="X" horiz-adv-x="642" 
d="M3 0v34q49 5 83 48l178 237l-183 274q-10 16 -26 27t-27 14l-11 3v30h57l149 4l4 -4q-16 -36 7 -72l117 -181l122 163q15 24 1.5 41.5t-40.5 18.5v30h184l5 -19q-35 -13 -75 -65l-165 -217l216 -324l43 -9l-4 -33h-42l-197 -3v36q28 4 33.5 12.5t-7.5 27.5l-128 197
l-167 -222l91 -12l-4 -36h-214z" />
    <glyph glyph-name="Y" unicode="Y" horiz-adv-x="592" 
d="M165 -3v37q32 4 49.5 21t17.5 44v196l-184 298q-11 17 -24 28t-21 13l-8 3v30h53l142 4l4 -4q-18 -39 2 -72l110 -186q15 -26 28 -56l135 222q14 19 5 37.5t-45 24.5v30h170l5 -19q-31 -11 -60 -57l-178 -284v-208l-5 -54l85 -9l-4 -33z" />
    <glyph glyph-name="Z" unicode="Z" horiz-adv-x="599" 
d="M25 -4l-6 36q21 16 55 71l285 463l34 49h-157q-58 0 -91.5 -24t-61.5 -97h-39l26 173h417l64 4l4 -36q-21 -22 -50 -71l-282 -461q-9 -16 -37 -51h191q57 0 88.5 27.5t69.5 110.5h39l-42 -190h-443z" />
    <glyph glyph-name="bracketleft" unicode="[" horiz-adv-x="292" 
d="M76 -162v829h200v-56h-113v-717h113v-56h-200z" />
    <glyph glyph-name="backslash" unicode="\" horiz-adv-x="350" 
d="M304 -196l-332 863h79l333 -863h-80z" />
    <glyph glyph-name="bracketright" unicode="]" horiz-adv-x="292" 
d="M16 -106h113v717h-113v56h200v-829h-200v56z" />
    <glyph glyph-name="asciicircum" unicode="^" horiz-adv-x="570" 
d="M36 250l214 429h70l214 -429h-81l-169 340l-169 -340h-79z" />
    <glyph glyph-name="underscore" unicode="_" horiz-adv-x="504" 
d="M2 -37h500v-59h-500v59z" />
    <glyph glyph-name="grave" unicode="`" horiz-adv-x="500" 
d="M153 683v27l121 -11l76 -171l-40 -21z" />
    <glyph glyph-name="a" unicode="a" horiz-adv-x="483" 
d="M18 100q0 69 64.5 110t154.5 54l35 5q0 81 -5 105q-10 48 -47 48q-25 0 -49 -27t-35 -53l-12 -27h-46l-22 88q9 7 26 17.5t72.5 28.5t113.5 18q77 0 104 -31.5t27 -111.5v-225q0 -47 24 -47q9 0 20 4t17 8l7 5l16 -27q-6 -6 -16 -15t-42.5 -24t-65.5 -15
q-39 0 -61.5 17.5t-22.5 49.5v16l-6 -9t-18 -20t-29 -25t-38.5 -20t-48.5 -9q-48 0 -82.5 29.5t-34.5 82.5zM196 67q37 0 75 32v125l-27 -5q-96 -17 -96 -94q0 -25 12 -41.5t36 -16.5z" />
    <glyph glyph-name="b" unicode="b" horiz-adv-x="536" 
d="M196 48q17 -10 48 -10q63 0 97.5 51.5t34.5 128.5q0 70 -29 120t-87 50q-28 0 -64 -15v-325zM58 3q10 35 10 100v496q0 25 -1.5 36.5t-8 20.5t-20.5 9h-37v32q71 14 121.5 27t65.5 18l15 6l3 -3q-10 -36 -10 -113v-138q0 -30 -2 -60t-2 -31q46 64 131 64q88 0 137 -64
t49 -152q0 -49 -17 -94.5t-50 -84t-88 -61.5t-123 -23q-31 0 -92 6t-78 6z" />
    <glyph glyph-name="c" unicode="c" horiz-adv-x="448" 
d="M27 215q0 98 64.5 175t173.5 77q57 0 109 -20t52 -60q0 -20 -13.5 -34.5t-35.5 -14.5q-19 0 -34 13.5t-24 29t-26.5 29t-41.5 13.5q-49 0 -77 -48t-28 -117q0 -80 39 -130t113 -50q31 0 60.5 9t43.5 17l14 9l12 -29q-2 -4 -6.5 -10.5t-21 -23t-35.5 -29t-52 -23
t-69 -10.5q-100 0 -158.5 67t-58.5 160z" />
    <glyph glyph-name="d" unicode="d" horiz-adv-x="557" 
d="M27 200q0 106 72.5 186.5t191.5 80.5l52 -4v136q0 25 -1.5 36.5t-8 20.5t-20.5 9h-37v32q71 14 121.5 27t65.5 18l15 6l3 -3q-10 -36 -10 -113v-532q0 -39 13 -48t43 -9h23l-3 -32l-205 -20l-2 2q7 30 7 55v16q-20 -33 -58 -54.5t-79 -21.5q-77 0 -130 61.5t-53 150.5z
M270 70q36 0 73 20v275q0 51 -49 51q-63 0 -98.5 -52.5t-35.5 -125.5q0 -65 28 -116.5t82 -51.5z" />
    <glyph glyph-name="e" unicode="e" horiz-adv-x="462" 
d="M27 219q0 104 65.5 176t162.5 72q74 0 125 -45t54 -133q-46 -16 -66 -19l-212 -32l-9 -12q9 -65 46.5 -106.5t108.5 -41.5q32 0 62 10t44 20l13 10l12 -29q-2 -4 -6.5 -11t-20.5 -24.5t-35 -30.5t-51 -24t-67 -11q-105 0 -165.5 68t-60.5 163zM234 419q-38 0 -62 -39
t-27 -96l164 21q0 5 -0.5 12.5t-5 27t-12 34.5t-22.5 27.5t-35 12.5z" />
    <glyph glyph-name="f" unicode="f" horiz-adv-x="350" 
d="M32 -3v34q57 7 57 65v295h-61v43l61 22v31q0 108 66 179t160 71q49 0 90 -18t41 -52q0 -23 -15.5 -38t-37.5 -15q-26 0 -64.5 35.5t-52.5 35.5q-32 0 -45.5 -41t-13.5 -135v-54h130l-10 -61h-108l-12 -12v-286l-5 -54l105 -9l-4 -30z" />
    <glyph glyph-name="g" unicode="g" horiz-adv-x="497" 
d="M51 68q0 8 2.5 15.5t5.5 13.5t9.5 12.5t11.5 10.5t14 9.5t14.5 8.5t15.5 7t14 6t14 5.5t12 4.5q-59 14 -96 51t-37 95q0 74 59.5 117t143.5 43q33 0 75.5 -10t69.5 -10h48q14 0 30.5 3.5t26.5 6.5l9 3l-11 -78h-41l-35 3q4 -3 9.5 -8.5t15 -27t9.5 -46.5
q0 -69 -60.5 -109.5t-145.5 -40.5q-26 0 -48 3q-15 -17 -15 -34q0 -16 26.5 -24.5t79.5 -18.5q8 -1 12 -2q42 -8 69.5 -15.5t59.5 -22.5t48 -38.5t16 -55.5q0 -76 -82.5 -129t-178.5 -53q-75 0 -139.5 32t-64.5 86q0 22 11 40t31 31.5t38 22t43 17.5q-89 24 -89 76zM233 -30
q-7 2 -21 4.5t-25 5t-20 5.5q-41 -39 -41 -85q0 -41 33.5 -65.5t80.5 -24.5q48 0 90 23t42 60q0 12 -4 21t-14.5 16t-19.5 12t-29 10.5t-32.5 8.5t-39.5 9zM236 197q41 0 60 29.5t19 75.5q0 49 -21 85t-62 36q-39 0 -57.5 -32t-18.5 -81q0 -50 19.5 -81.5t60.5 -31.5z" />
    <glyph glyph-name="h" unicode="h" horiz-adv-x="581" 
d="M24 -3v34q57 7 57 65v503q0 25 -1.5 36.5t-8 20.5t-20.5 9h-37v32q71 14 121.5 27t65.5 18l15 6l3 -3q-10 -36 -10 -113v-174q0 -30 -2 -60t-2 -31q76 100 175 100q55 0 87 -33t32 -102v-236l-5 -53l80 -10l-4 -30l-244 -6v34q45 7 45 65v197q0 51 -12.5 68.5t-43.5 17.5
q-59 0 -106 -37v-246l-5 -54l63 -9l-4 -30z" />
    <glyph glyph-name="i" unicode="i" horiz-adv-x="301" 
d="M31 -3v34q57 7 57 65v237q0 25 -1.5 36.5t-8 20.5t-20.5 9h-40v32q52 8 103 20.5t76 20.5l25 9l3 -3q-9 -33 -9 -114v-268l-5 -54l80 -9l-4 -30zM143 554q-32 0 -53 19.5t-21 50.5t21 51t53 20t53 -20t21 -51t-21 -50.5t-53 -19.5z" />
    <glyph glyph-name="j" unicode="j" horiz-adv-x="277" 
d="M81 -19v352q0 25 -1.5 36.5t-8 20.5t-20.5 9h-40v32q52 8 103 20.5t76 20.5l25 9l3 -3q-9 -33 -9 -114v-316q0 -141 -58.5 -213t-165.5 -72l-12 29q43 6 75.5 60.5t32.5 128.5zM136 554q-32 0 -53 19.5t-21 50.5t21 51t53 20t53 -20t21 -51t-21 -50.5t-53 -19.5z" />
    <glyph glyph-name="k" unicode="k" horiz-adv-x="556" 
d="M24 -3v34q57 7 57 65v503q0 25 -1.5 36.5t-8 20.5t-20.5 9h-37v32q71 14 121.5 27t65.5 18l15 6l3 -3q-10 -36 -10 -113v-361h17l98 86q36 33 36 46q0 15 -31 22v30h193l5 -16q-70 -23 -105 -55l-94 -84v-14q7 -11 13 -18l137 -178q26 -33 40.5 -42.5t34.5 -11.5l11 -1
l-4 -35l-182 -3q-10 37 -34 69l-118 161h-17v-131l-5 -54l70 -9l-4 -30z" />
    <glyph glyph-name="l" unicode="l" horiz-adv-x="295" 
d="M24 -3v34q57 7 57 65v503q0 25 -1.5 36.5t-8 20.5t-20.5 9h-37v32q71 14 121.5 27t65.5 18l15 6l3 -3q-10 -36 -10 -113v-536l-5 -54l80 -9l-4 -30z" />
    <glyph glyph-name="m" unicode="m" horiz-adv-x="868" 
d="M31 -3v34q57 7 57 65v237q0 25 -1.5 36.5t-8 20.5t-20.5 9h-40v32q52 8 102.5 20.5t75.5 20.5l24 9l3 -3q-9 -22 -14 -111q74 100 170 100q46 0 78 -23.5t40 -71.5q76 95 168 95q56 0 88.5 -33t32.5 -102v-236l-5 -53l80 -10l-4 -30l-242 -6v34q43 7 43 65v197
q0 50 -13 68t-42 18q-35 0 -68.5 -15.5t-33.5 -43.5v-224l-5 -53l64 -7l-5 -33l-225 -6v34q43 7 43 65v197q0 50 -13 68t-42 18q-58 0 -102 -37v-246l-5 -53l64 -7l-5 -33z" />
    <glyph glyph-name="n" unicode="n" horiz-adv-x="588" 
d="M31 -3v34q57 7 57 65v237q0 25 -1.5 36.5t-8 20.5t-20.5 9h-40v32q52 8 102.5 20.5t75.5 20.5l24 9l3 -3q-9 -22 -14 -111q76 100 178 100q55 0 87 -33t32 -102v-236l-5 -53l80 -10l-4 -30l-244 -6v34q45 7 45 65v197q0 51 -12.5 68.5t-43.5 17.5q-59 0 -106 -37v-246
l-5 -53l63 -10l-4 -30z" />
    <glyph glyph-name="o" unicode="o" horiz-adv-x="546" 
d="M27 218q0 63 24.5 117.5t83.5 93t143 38.5q111 0 176 -61.5t65 -160.5q0 -103 -67 -180t-187 -77q-108 0 -173 64t-65 166zM165 244q0 -52 11.5 -98.5t38.5 -80t66 -33.5q30 0 51 19.5t31 51t14 62.5t3 61q-1 78 -29.5 137.5t-83.5 59.5q-50 0 -76 -51.5t-26 -127.5z" />
    <glyph glyph-name="p" unicode="p" horiz-adv-x="547" 
d="M32 -246v34q29 18 38 38.5t9 58.5v448q0 25 -1.5 36.5t-8 20.5t-20.5 9h-35v32q50 8 99.5 20.5t73.5 20.5l24 9l3 -3q-8 -27 -11 -87q58 76 136 76q79 0 130 -61.5t51 -151.5q0 -106 -70 -186t-190 -80l-53 4v-106l-5 -57h100l-4 -29q-178 -22 -266 -46zM258 39
q62 0 95.5 50.5t33.5 125.5q0 68 -27 119t-82 51q-28 0 -71 -20v-275q0 -51 51 -51z" />
    <glyph glyph-name="q" unicode="q" horiz-adv-x="537" 
d="M27 202q0 106 74 185.5t207 79.5q30 0 90.5 -6t77.5 -6l3 -3q-9 -45 -9 -100v-471l-5 -56h70l-4 -29q-53 -7 -114.5 -18t-96.5 -18l-35 -7v34q31 19 44 40.5t13 55.5v78q0 30 2 60t2 31q-47 -64 -131 -64q-88 0 -138 64t-50 150zM160 236q0 -69 29.5 -119t87.5 -50
q27 0 65 15v325q-17 10 -48 10q-62 0 -98 -52t-36 -129z" />
    <glyph glyph-name="r" unicode="r" horiz-adv-x="412" 
d="M31 -3v34q57 7 57 65v236q0 25 -1.5 36.5t-8 20.5t-20.5 9h-40v32q52 8 102.5 21t75.5 21l24 9l3 -3q-9 -22 -14 -122l7.5 12t19.5 26.5t31 34t39 26.5t45 12q30 0 46 -17.5t16 -42.5q0 -26 -17.5 -45t-46.5 -19q-17 0 -33.5 10t-28.5 10q-14 0 -32 -8t-29 -16l-10 -8
v-235l-5 -54l90 -9l-4 -30z" />
    <glyph glyph-name="s" unicode="s" horiz-adv-x="392" 
d="M30 58q0 11 4.5 31.5t9.5 36.5l4 15h33q5 -58 37 -84.5t72 -26.5q28 0 45.5 14.5t17.5 40.5q0 27 -22 47.5t-53 36t-62 33t-53 49t-22 74.5q0 66 47.5 104t122.5 38q26 0 60.5 -4.5t56.5 -9.5l21 -5l-23 -113h-34q-3 51 -27.5 70.5t-53.5 19.5q-27 0 -43 -14.5t-16 -39.5
q0 -23 15.5 -41.5t39 -29.5t51 -26t51 -30.5t39 -44t15.5 -65.5q0 -71 -49.5 -108.5t-127.5 -37.5q-34 0 -67.5 6.5t-61 23t-27.5 40.5z" />
    <glyph glyph-name="t" unicode="t" horiz-adv-x="370" 
d="M77 119v207l3 65h-64v43q46 9 70 31l38 113l86 -3l3 -3q-9 -22 -9 -98v-19h142l-7 -61h-122l-12 -12v-222q0 -47 13 -69.5t50 -22.5q20 0 41 6t33 12l11 5l16 -26q-8 -9 -21.5 -21.5t-58 -34t-90.5 -21.5q-57 0 -89.5 32t-32.5 99z" />
    <glyph glyph-name="u" unicode="u" horiz-adv-x="574" 
d="M73 123v208q0 26 -1.5 38t-8 21t-20.5 9h-30v33q76 13 124.5 23t58.5 13l11 4l3 -3q-9 -28 -9 -105v-203q0 -51 15 -70.5t42 -19.5q22 0 47 11.5t39 23.5l14 11v214q0 26 -1.5 38t-8 21t-20.5 9h-25v34q73 13 120 22.5t58 12.5l11 4l3 -3q-9 -28 -9 -105v-264
q0 -39 13 -48t43 -9h23l-3 -32l-202 -20l-2 2q7 30 7 55v42l-8 -11t-22 -24.5t-35 -31t-45.5 -24.5t-55.5 -11q-57 0 -91.5 33t-34.5 102z" />
    <glyph glyph-name="v" unicode="v" horiz-adv-x="468" 
d="M197 1l-147 366q-9 22 -23.5 36.5t-24.5 18.5l-10 3v30h47l146 4l4 -4q-2 -5 -4.5 -13t-5.5 -33.5t8 -45.5l68 -175q10 -26 19 -60l99 225q24 54 -55 72v30h148l5 -16q-12 -7 -32 -53l-176 -398z" />
    <glyph glyph-name="w" unicode="w" horiz-adv-x="738" 
d="M195 1l-145 366q-9 23 -23.5 37.5t-24.5 17.5l-10 3v30h47l143 4l4 -4q-2 -5 -4.5 -13t-5.5 -33t8 -46l65 -176q8 -24 18 -62l70 158q13 28 0 62l-9 22q-9 22 -22.5 36.5t-21.5 18.5l-9 3v30h42l143 4l4 -4q-2 -5 -4.5 -13t-5.5 -33t8 -46l65 -174q8 -24 18 -62l100 226
q24 53 -53 72v30h145l5 -16q-11 -6 -32 -53l-177 -398l-60 13l-100 250l-117 -263z" />
    <glyph glyph-name="x" unicode="x" horiz-adv-x="503" 
d="M267 -3v36q49 0 24 38l-68 102l-104 -131l70 -9l-4 -30l-175 -6v34q43 5 68 35l118 147l-114 164q-13 21 -29.5 33t-26.5 14l-11 1v30h60l133 4l4 -4q-12 -35 13 -72l57 -86l69 87q14 17 -1 26.5t-43 14.5v30h171l5 -16q-36 -9 -68 -50l-106 -133l153 -220l41 -4l-4 -29z
" />
    <glyph glyph-name="y" unicode="y" horiz-adv-x="472" 
d="M79 -135q88 0 127 92l9 22q-8 25 -31 79l-135 309q-10 22 -24.5 36.5t-24.5 18.5l-9 3v30h47l146 4l4 -4q-21 -43 -2 -92l73 -178q8 -19 19 -59l97 227q10 27 -6.5 45t-48.5 27v30h147l5 -16q-15 -14 -32 -53l-151 -353q-2 -4 -15 -35t-19 -43.5l-21.5 -43t-26 -46
t-28 -38.5t-33.5 -34.5t-36.5 -20.5t-41.5 -9q-26 0 -40.5 14.5t-14.5 36.5q0 21 16 36t50 15z" />
    <glyph glyph-name="z" unicode="z" horiz-adv-x="451" 
d="M29 -4l-8 31q15 13 36 48l177 287q10 16 36 49h-100q-40 0 -63 -27t-32 -57h-43l18 128h299l64 4l8 -31q-13 -13 -34 -48l-173 -285q-9 -15 -37 -50h87q27 0 49 9.5t34.5 23.5t21 28t11.5 24l2 9h44l-27 -139h-302z" />
    <glyph glyph-name="braceleft" unicode="{" horiz-adv-x="341" 
d="M116 -66v16q0 37 -0.5 59t-3 62t-10 64.5t-19 51.5t-32 40.5t-47.5 14.5v41q21 1 37.5 8t28 23t20 31t13 41.5l7.5 43.5t4.5 48t1.5 44v43v16q0 81 58 120.5t156 39.5l5 -41q-79 -6 -100.5 -40t-21.5 -132q0 -223 -111 -264v-2q47 -18 79 -83.5t32 -191.5
q0 -97 21.5 -131t100.5 -41l-5 -41q-214 0 -214 160z" />
    <glyph glyph-name="bar" unicode="|" horiz-adv-x="240" 
d="M75 -225v974h90v-974h-90z" />
    <glyph glyph-name="braceright" unicode="}" horiz-adv-x="341" 
d="M128 -13q0 126 32 191.5t79 83.5v2q-111 41 -111 264q0 98 -21.5 132t-100.5 40l5 41q98 0 156 -39.5t58 -120.5v-16v-49t2 -51.5t6 -54t12.5 -47t20 -42t30 -26.5t41.5 -12v-41q-21 -1 -37.5 -8.5t-28 -24t-20 -32.5t-13 -43.5t-8 -45t-4.5 -49.5t-1 -45.5v-43.5v-16
q0 -160 -214 -160l-5 41q79 7 100.5 40.5t21.5 131.5z" />
    <glyph glyph-name="asciitilde" unicode="~" horiz-adv-x="589" 
d="M56 168q0 85 36.5 127t100.5 42q39 0 69 -16.5t45 -35.5t37.5 -35.5t47.5 -16.5q38 0 53 31t15 69h72q0 -85 -36.5 -127t-100.5 -42q-32 0 -57 10.5t-41 26t-30.5 31t-32 26t-38.5 10.5q-38 0 -53 -31t-15 -69h-72z" />
    <glyph glyph-name="uni00A0" unicode="&#xa0;" horiz-adv-x="217" 
 />
    <glyph glyph-name="exclamdown" unicode="&#xa1;" horiz-adv-x="295" 
d="M169 250l64 -454q-40 -8 -82.5 -18t-65.5 -16l-23 -7l-6 8q15 37 25 118l51 369h37zM229 390q0 -32 -22.5 -55t-54.5 -23t-55 23t-23 55t23 54.5t55 22.5t54.5 -22.5t22.5 -54.5z" />
    <glyph glyph-name="cent" unicode="&#xa2;" horiz-adv-x="456" 
d="M32 273q0 85 58.5 150t159.5 69l5 90h45l-5 -93q50 -7 88 -27t38 -51q0 -46 -44 -46q-17 0 -30.5 11t-29 31.5t-24.5 28.5l-15 -296h12q60 0 123 47l13 -27l-5.5 -8.5t-17 -20t-29.5 -26t-43 -22.5t-57 -14l-4 -91h-45l4 90q-95 6 -146 65t-51 140zM162 321q0 -50 19 -96
t53 -68l14 296q-42 -3 -64 -40.5t-22 -91.5z" />
    <glyph glyph-name="sterling" unicode="&#xa3;" horiz-adv-x="533" 
d="M52 244v45h66l11 88q22 193 209 193q48 0 86.5 -15t38.5 -48q0 -45 -48 -45q-24 0 -53.5 30.5t-54.5 30.5q-26 0 -35.5 -28.5t-17.5 -120.5l-8 -85h164l-7 -45h-161v-4q-4 -39 -15.5 -75.5t-20.5 -52.5l-10 -17q65 -30 148 -30q108 0 122 67l7 34h38q-4 -40 -12 -70.5
t-25 -60t-48 -45t-74 -15.5t-77 11l-91 27q-16 5 -38 5q-36 0 -95 -18l-12 34q2 1 5.5 3t13 9.5t17 17t15 26t9.5 34.5l14 120h-61z" />
    <glyph glyph-name="yen" unicode="&#xa5;" horiz-adv-x="547" 
d="M66 270v45h119l-109 180q-8 13 -19.5 21t-19.5 10l-8 2v30h40l138 3l3 -3q-12 -29 2 -54l72 -126q7 -12 27 -55l93 157q25 40 -29 48v30h137l4 -16q-21 -3 -45 -41l-115 -186h132v-45h-150v-63h150v-45h-150v-66l-5 -54l63 -9l-4 -30l-239 -6v34q57 7 57 65v66h-144v45
h144v63h-144z" />
    <glyph glyph-name="brokenbar" unicode="&#xa6;" horiz-adv-x="218" 
d="M63 333v358h92v-358h-92zM63 178h92v-358h-92v358z" />
    <glyph glyph-name="section" unicode="&#xa7;" horiz-adv-x="474" 
d="M36 -139q4 -4 13.5 -10.5t42 -17t70.5 -10.5q85 0 117.5 63t15.5 152l-52 286q-5 29 -8 48t-4 54t4 58t21 45.5t43 30.5l5 -5q-10 -61 6 -154l63 -355q14 -72 -0.5 -135t-64 -105.5t-126.5 -42.5q-45 0 -85.5 16t-58.5 32l-18 16zM144 41l-63 355q-13 73 1.5 135.5
t63.5 105t126 42.5q45 0 85.5 -16t58.5 -32l18 -16l-16 -34q-4 4 -13.5 10.5t-42 17t-70.5 10.5q-85 0 -117.5 -63t-15.5 -152l52 -286q5 -29 8 -48t4 -54t-4 -58t-21 -45.5t-43 -30.5l-5 5q10 61 -6 154z" />
    <glyph glyph-name="dieresis" unicode="&#xa8;" horiz-adv-x="500" 
d="M137 557q-30 0 -49.5 18.5t-19.5 47.5q0 30 19.5 48.5t49.5 18.5t49.5 -18.5t19.5 -48.5q0 -29 -19.5 -47.5t-49.5 -18.5zM363 557q-30 0 -49.5 18.5t-19.5 47.5q0 30 19.5 48.5t49.5 18.5t49.5 -18.5t19.5 -48.5q0 -29 -19.5 -47.5t-49.5 -18.5z" />
    <glyph glyph-name="copyright" unicode="&#xa9;" horiz-adv-x="752" 
d="M31 333q0 143 101.5 244t243.5 101t243.5 -101t101.5 -244t-101.5 -244t-243.5 -101t-243.5 101t-101.5 244zM82 333q0 -124 85.5 -211.5t208.5 -87.5t208.5 87.5t85.5 211.5t-85.5 211.5t-208.5 87.5t-208.5 -87.5t-85.5 -211.5zM173 329q0 84 58 148.5t164 64.5
q23 0 47 -5t48 -12.5t31 -9.5l-17 -116h-36q-3 60 -26.5 81.5t-61.5 21.5q-45 0 -74 -43.5t-29 -105.5q0 -72 37 -115t94 -43q30 0 59.5 10.5t44.5 20.5l14 11l11 -34q-24 -31 -67 -50.5t-81 -19.5q-90 0 -153 54t-63 142z" />
    <glyph glyph-name="ordfeminine" unicode="&#xaa;" horiz-adv-x="391" 
d="M120 343q-36 0 -61 21t-25 59q0 50 48.5 80t125.5 39v19q0 83 -32 83q-16 0 -32.5 -19t-25.5 -37l-8 -19h-35l-16 64q7 5 19 12.5t52 20.5t82 13q55 0 74.5 -22.5t19.5 -78.5v-154q0 -33 14 -33q6 0 14 3.5t12 7.5l5 4l14 -24q-37 -39 -91 -39q-30 0 -47 13.5t-17 38.5
q-4 -6 -12 -14.5t-31.5 -23t-46.5 -14.5zM162 402q8 0 19.5 5t18.5 10l7 5v82q-76 -9 -76 -64q0 -38 31 -38z" />
    <glyph glyph-name="guillemotleft" unicode="&#xab;" horiz-adv-x="511" 
d="M27 251v4q16 11 44.5 40l166.5 172l36 -10l-121 -204l121 -203l-36 -10l-159.5 164t-51.5 47zM228 251v4q16 11 44.5 40l166.5 172l36 -10l-121 -204l121 -203l-36 -10l-159.5 164t-51.5 47z" />
    <glyph glyph-name="logicalnot" unicode="&#xac;" 
d="M21 324v70h453v-283h-74v213h-379z" />
    <glyph glyph-name="registered" unicode="&#xae;" horiz-adv-x="408" 
d="M204 358q-71 0 -122 51t-51 122t51 122t122 51t122 -51t51 -122t-51 -122t-122 -51zM204 390q54 0 95 42.5t41 98.5t-41 98t-95 42q-55 0 -95.5 -42t-40.5 -98q0 -57 40.5 -99t95.5 -42zM124 446v18q17 2 17 15v108q0 9 -3.5 12t-16.5 7v12h73q75 0 75 -42q0 -23 -33 -43
q6 -13 14 -24l22 -32q7 -11 23 -13l-1 -17l-56 -1q-5 13 -16 30l-27 40h-8v-37l-2 -12l25 -3l-1 -16zM187 598v-62h16q6 1 12 9t6 23q0 13 -8 21.5t-23 8.5h-3z" />
    <glyph glyph-name="macron" unicode="&#xaf;" horiz-adv-x="500" 
d="M121 579v74h258v-74h-258z" />
    <glyph glyph-name="degree" unicode="&#xb0;" horiz-adv-x="302" 
d="M151 492q27 0 46 19.5t19 47.5t-19 47t-46 19t-46 -19t-19 -47t19 -47.5t46 -19.5zM151 439q-51 0 -86.5 35t-35.5 85t35.5 85t86.5 35t86.5 -35t35.5 -85t-35.5 -85t-86.5 -35z" />
    <glyph glyph-name="plusminus" unicode="&#xb1;" 
d="M47 310v71h173v177h75v-177h170v-71h-170v-190h-75v190h-173zM62 0v71h408v-71h-408z" />
    <glyph glyph-name="twosuperior" unicode="&#xb2;" horiz-adv-x="343" 
d="M27 376l-9 31q101 99 122 129q40 59 40 108q0 35 -18.5 53t-46.5 18q-37 0 -74 -25l-22 25q7 8 19.5 20t51.5 32t79 20q49 0 86 -26.5t37 -71.5q0 -25 -10 -49.5t-40.5 -60.5t-48.5 -54.5l-72 -71.5h109q27 0 38.5 11.5t20.5 41.5h33l-18 -130h-277z" />
    <glyph glyph-name="threesuperior" unicode="&#xb3;" horiz-adv-x="328" 
d="M132 369q-44 0 -81.5 11t-37.5 38q0 12 10 19.5t23 7.5q25 0 47 -23t42 -23q19 0 34 27t15 59q0 34 -19.5 56t-53.5 22l-29 -3v40q82 16 82 86q0 40 -47 40q-34 0 -61 -18l-20 26q5 6 15 15t42 23.5t66 14.5q51 0 85 -20.5t34 -60.5q0 -35 -30.5 -62t-70.5 -42
q54 -8 90.5 -38.5t36.5 -68.5q0 -52 -50.5 -89t-121.5 -37z" />
    <glyph glyph-name="acute" unicode="&#xb4;" horiz-adv-x="514" 
d="M191 507l-40 21l76 171l121 11v-27z" />
    <glyph glyph-name="mu" unicode="&#xb5;" horiz-adv-x="569" 
d="M66 -57v393q0 28 -1.5 53.5t-3.5 36.5l-2 12l138 27l4 -3q-7 -31 -7 -108v-186q0 -97 57 -97q38 0 95 41v229q0 28 -2 53.5t-4 37.5l-1 11l138 27l4 -3q-7 -31 -7 -108v-259q0 -31 9 -44t34 -13h31l3 -29q-71 -26 -111 -26q-87 0 -87 75v22q-54 -97 -143 -97
q-45 0 -80 35q3 -48 21 -120t18 -90q0 -24 -14.5 -37t-34.5 -13q-24 0 -41 18.5t-17 53.5q0 14 2 50t2 58z" />
    <glyph glyph-name="paragraph" unicode="&#xb6;" horiz-adv-x="655" 
d="M167 -189q0 19 14 33t36 14q8 0 23.5 -4t22.5 -4q14 0 24 4.5t16.5 15.5t10.5 22.5t5.5 33.5t2 39.5t0.5 49.5v144h-14q-142 0 -216.5 74t-74.5 179q0 103 75.5 179t210.5 76h229q59 0 79 4l-10 -63h-66v-608h-67v608h-75v-523v-19v-20v-19t-0.5 -20t-1 -18.5t-1.5 -20
l-2.5 -18.5t-3.5 -19.5l-4.5 -18.5t-5.5 -19q-46 -130 -153 -130q-25 0 -39.5 14.5t-14.5 33.5z" />
    <glyph glyph-name="periodcentered" unicode="&#xb7;" horiz-adv-x="255" 
d="M127 178q-31 0 -54 23t-23 54q0 32 22.5 55t54.5 23t55 -23t23 -55t-23 -54.5t-55 -22.5z" />
    <glyph glyph-name="cedilla" unicode="&#xb8;" horiz-adv-x="500" 
d="M200 -87q0 14 10 35.5t20 36.5l9 15h36q-10 -31 -10 -42q0 -10 14.5 -18t31.5 -14.5t31.5 -23t14.5 -40.5q0 -42 -33.5 -70.5t-85.5 -28.5q-29 0 -54 9.5t-36 19.5l-10 9l17 39q34 -27 73 -27q18 0 32 7.5t14 20.5q0 11 -11.5 19.5t-25.5 14t-25.5 15.5t-11.5 23z" />
    <glyph glyph-name="onesuperior" unicode="&#xb9;" horiz-adv-x="292" 
d="M26 374v33l42 2q23 1 29.5 10t6.5 25v241q0 16 -2.5 22.5t-7 6t-11.5 -1.5l-60 -14l-9 36q57 14 108 28.5l74 21.5l22 7l3 -4q-8 -21 -8 -68v-275l-2 -30l79 -5l-3 -31z" />
    <glyph glyph-name="ordmasculine" unicode="&#xba;" horiz-adv-x="411" 
d="M200 343q-76 0 -122.5 45.5t-46.5 116.5q0 70 45 122t133 52q79 0 126 -43.5t47 -112.5q0 -72 -48.5 -126t-133.5 -54zM212 379q64 0 64 131q-1 53 -19.5 93t-54.5 40q-32 0 -49 -35t-17 -85q0 -57 19.5 -100.5t56.5 -43.5z" />
    <glyph glyph-name="guillemotright" unicode="&#xbb;" horiz-adv-x="511" 
d="M237 50l121 203l-121 204l36 10l166.5 -172t44.5 -40v-4q-17 -13 -51.5 -47l-159.5 -164zM36 50l121 203l-121 204l36 10l166.5 -172t44.5 -40v-4q-17 -13 -51.5 -47l-159.5 -164z" />
    <glyph glyph-name="onequarter" unicode="&#xbc;" horiz-adv-x="849" 
d="M45 261v33l42 2q23 1 29.5 10t6.5 25v241q0 16 -2.5 22.5t-7 6t-11.5 -1.5l-60 -14l-9 36q57 14 108 28.5t73 21.5l23 7l3 -4q-8 -21 -8 -68v-275l-2 -30l79 -5l-3 -31zM490 105l-8 39l191 258l82 9q-3 -20 -3 -69v-186h68l-10 -51h-58v-39l-2 -30l56 -5l-2 -29l-204 -4
v30q45 5 45 38v39h-155zM535 156h110v144zM265 0h-66l395 685l52 -21z" />
    <glyph glyph-name="onehalf" unicode="&#xbd;" horiz-adv-x="898" 
d="M43 261v33l42 2q23 1 29.5 10t6.5 25v241q0 16 -2.5 22.5t-7 6t-11.5 -1.5l-60 -14l-9 36q57 14 108 28.5t73 21.5l23 7l3 -4q-8 -21 -8 -68v-275l-2 -30l79 -5l-3 -31zM572 0l-9 31q101 99 122 129q40 59 40 108q0 35 -18.5 53t-46.5 18q-37 0 -74 -25l-22 25
q7 8 19.5 20t51.5 32t79 20q49 0 86 -26.5t37 -71.5q0 -25 -10 -49.5t-40.5 -60.5t-48.5 -54.5l-72 -71.5h109q27 0 38.5 11.5t20.5 41.5h33l-18 -130h-277zM283 0h-66l395 685l52 -21z" />
    <glyph glyph-name="threequarters" unicode="&#xbe;" horiz-adv-x="853" 
d="M492 105l-8 39l191 258l82 9q-3 -20 -3 -69v-186h68l-10 -51h-58v-39l-2 -30l56 -5l-2 -29l-204 -4v30q45 5 45 38v39h-155zM149 256q-44 0 -81.5 11t-37.5 38q0 12 10 19.5t23 7.5q25 0 47 -23t42 -23q19 0 34 27t15 59q0 34 -19.5 56t-53.5 22l-29 -3v40q82 16 82 86
q0 40 -47 40q-34 0 -61 -18l-20 26q5 6 15 15t42 23.5t66 14.5q51 0 85 -20.5t34 -60.5q0 -35 -30.5 -62t-70.5 -42q54 -8 90.5 -38.5t36.5 -68.5q0 -52 -50.5 -89t-121.5 -37zM267 0h-66l395 685l52 -21zM537 156h110v144z" />
    <glyph glyph-name="questiondown" unicode="&#xbf;" horiz-adv-x="387" 
d="M244 249q5 -22 5 -55q0 -48 -22.5 -87.5t-44.5 -67t-22 -45.5q0 -25 45 -54.5t89 -45.5l45 -17l-26 -131q-12 4 -32.5 11.5t-72 30.5t-91 46.5t-72 57.5t-32.5 65q0 24 20 50t49 50.5l58 51.5t49 63.5t20 76.5h35zM302 390q0 -32 -22.5 -55t-54.5 -23t-55 23t-23 55
t23 54.5t55 22.5q31 0 54 -22.5t23 -54.5z" />
    <glyph glyph-name="Agrave" unicode="&#xc0;" horiz-adv-x="625" 
d="M-17 0v34q50 5 67 47l232 581l61 13l219 -569q14 -37 28.5 -53.5t41.5 -20.5l-4 -32h-41l-195 -4v39q54 2 40 40l-47 129h-213l-17 -12l-56 -147l86 -11l-6 -34h-196zM303 435q-9 23 -25 77l-97 -253h185zM179 771v29l43 71h5l192 -113l-19 -41z" />
    <glyph glyph-name="Aacute" unicode="&#xc1;" horiz-adv-x="625" 
d="M-17 0v34q50 5 67 47l232 581l61 13l219 -569q14 -37 28.5 -53.5t41.5 -20.5l-4 -32h-41l-195 -4v39q54 2 40 40l-47 129h-213l-17 -12l-56 -147l86 -11l-6 -34h-196zM303 435q-9 23 -25 77l-97 -253h185zM207 758l192 113h5l43 -71v-29l-221 -54z" />
    <glyph glyph-name="Acircumflex" unicode="&#xc2;" horiz-adv-x="625" 
d="M-17 0v34q50 5 67 47l232 581l61 13l219 -569q14 -37 28.5 -53.5t41.5 -20.5l-4 -32h-41l-195 -4v39q54 2 40 40l-47 129h-213l-17 -12l-56 -147l86 -11l-6 -34h-196zM303 435q-9 23 -25 77l-97 -253h185zM143 747l134 124h73l133 -124l-34 -30l-131 71h-10l-131 -71z
" />
    <glyph glyph-name="Atilde" unicode="&#xc3;" horiz-adv-x="625" 
d="M-17 0v34q50 5 67 47l232 581l61 13l219 -569q14 -37 28.5 -53.5t41.5 -20.5l-4 -32h-41l-195 -4v39q54 2 40 40l-47 129h-213l-17 -12l-56 -147l86 -11l-6 -34h-196zM303 435q-9 23 -25 77l-97 -253h185zM173 731l-43 9q0 5 1 13t8 28t17.5 35.5t32 28.5t50.5 13
q34 0 85.5 -26t74.5 -26q20 0 33.5 13t17.5 26l3 13l44 -5q0 -5 -1 -13t-7.5 -29t-17.5 -37.5t-34.5 -29.5t-54.5 -13q-37 0 -85.5 26t-69.5 26q-19 0 -32.5 -13t-17.5 -26z" />
    <glyph glyph-name="Adieresis" unicode="&#xc4;" horiz-adv-x="625" 
d="M-17 0v34q50 5 67 47l232 581l61 13l219 -569q14 -37 28.5 -53.5t41.5 -20.5l-4 -32h-41l-195 -4v39q54 2 40 40l-47 129h-213l-17 -12l-56 -147l86 -11l-6 -34h-196zM303 435q-9 23 -25 77l-97 -253h185zM119 794q0 30 19.5 48.5t49.5 18.5t49.5 -18.5t19.5 -48.5
q0 -29 -19.5 -47.5t-49.5 -18.5t-49.5 18.5t-19.5 47.5zM370 794q0 30 19.5 48.5t49.5 18.5t49.5 -18.5t19.5 -48.5q0 -29 -19.5 -47.5t-49.5 -18.5t-49.5 18.5t-19.5 47.5z" />
    <glyph glyph-name="Aring" unicode="&#xc5;" horiz-adv-x="625" 
d="M-17 0v34q50 5 67 47l232 581l61 13l219 -569q14 -37 28.5 -53.5t41.5 -20.5l-4 -32h-41l-195 -4v39q54 2 40 40l-47 129h-213l-17 -12l-56 -147l86 -11l-6 -34h-196zM313 708q-50 0 -75.5 24t-25.5 60q0 32 25.5 55.5t75.5 23.5t75.5 -23.5t25.5 -55.5q0 -36 -25.5 -60
t-75.5 -24zM303 435q-9 23 -25 77l-97 -253h185zM313 748q21 0 33.5 12t12.5 31q0 16 -12 28t-34 12t-33.5 -12t-11.5 -28q0 -19 11.5 -31t33.5 -12z" />
    <glyph glyph-name="AE" unicode="&#xc6;" horiz-adv-x="889" 
d="M-25 0v34q43 4 67 47l272 489q13 24 -5 40t-69 27v30h523l77 4l-31 -177h-39q4 74 -20 97.5t-88 23.5h-111l-12 -12v-247h167l8 68l42 6v-191h-52v65h-153l-12 -12v-184l-5 -56h139q64 0 87 19t61 99h39l-37 -170h-314l-171 -3v37q67 8 67 62v208h-164l-17 -11l-135 -248
l86 -11l-6 -34h-194zM370 562l-112 -206h147v249q-21 -17 -35 -43z" />
    <glyph glyph-name="Ccedilla" unicode="&#xc7;" horiz-adv-x="686" 
d="M301 -87q0 27 33 78q-137 17 -218.5 113t-81.5 220q0 65 24 127t69.5 113.5t118.5 83t163 31.5q52 0 141 -13.5t95 -14.5l-30 -157h-39q-3 70 -52 102.5t-126 32.5q-113 0 -171 -76t-58 -189q0 -134 81.5 -211t198.5 -77q51 0 99 17t70 35l23 17l17 -26q-3 -5 -10 -14
t-31 -31.5t-52.5 -40t-76.5 -31.5t-101 -14q-3 0 -8 0.5t-7 0.5q-6 -20 -6 -31q0 -10 14.5 -18t31.5 -14.5t31.5 -23t14.5 -40.5q0 -42 -33.5 -70.5t-85.5 -28.5q-29 0 -54 9.5t-35 19.5l-11 9l17 39q34 -27 73 -27q18 0 32 7.5t14 20.5q0 11 -11.5 19.5t-25.5 14
t-25.5 15.5t-11.5 23z" />
    <glyph glyph-name="Egrave" unicode="&#xc8;" horiz-adv-x="599" 
d="M48 -3v37q67 8 67 62v468q0 37 -12.5 49.5t-64.5 23.5v30h435l77 4l-31 -177h-39q4 74 -20 97.5t-88 23.5h-111l-12 -12v-237h167l8 58l42 6v-191h-52v75h-153l-12 -12v-194l-5 -56h139q64 0 87 19t61 99h39l-37 -170h-314zM185 771v29l43 71h5l192 -113l-19 -41z" />
    <glyph glyph-name="Eacute" unicode="&#xc9;" horiz-adv-x="599" 
d="M48 -3v37q67 8 67 62v468q0 37 -12.5 49.5t-64.5 23.5v30h435l77 4l-31 -177h-39q4 74 -20 97.5t-88 23.5h-111l-12 -12v-237h167l8 58l42 6v-191h-52v75h-153l-12 -12v-194l-5 -56h139q64 0 87 19t61 99h39l-37 -170h-314zM213 758l192 113h5l43 -71v-29l-221 -54z" />
    <glyph glyph-name="Ecircumflex" unicode="&#xca;" horiz-adv-x="599" 
d="M48 -3v37q67 8 67 62v468q0 37 -12.5 49.5t-64.5 23.5v30h435l77 4l-31 -177h-39q4 74 -20 97.5t-88 23.5h-111l-12 -12v-237h167l8 58l42 6v-191h-52v75h-153l-12 -12v-194l-5 -56h139q64 0 87 19t61 99h39l-37 -170h-314zM149 747l134 124h73l133 -124l-34 -30l-131 71
h-10l-131 -71z" />
    <glyph glyph-name="Edieresis" unicode="&#xcb;" horiz-adv-x="599" 
d="M48 -3v37q67 8 67 62v468q0 37 -12.5 49.5t-64.5 23.5v30h435l77 4l-31 -177h-39q4 74 -20 97.5t-88 23.5h-111l-12 -12v-237h167l8 58l42 6v-191h-52v75h-153l-12 -12v-194l-5 -56h139q64 0 87 19t61 99h39l-37 -170h-314zM125 794q0 30 19.5 48.5t49.5 18.5t49.5 -18.5
t19.5 -48.5q0 -29 -19.5 -47.5t-49.5 -18.5t-49.5 18.5t-19.5 47.5zM376 794q0 30 19.5 48.5t49.5 18.5t49.5 -18.5t19.5 -48.5q0 -29 -19.5 -47.5t-49.5 -18.5t-49.5 18.5t-19.5 47.5z" />
    <glyph glyph-name="Igrave" unicode="&#xcc;" horiz-adv-x="354" 
d="M47 -3v37q32 4 49.5 21t17.5 44v465q0 38 -10 50t-59 23v30h73l158 4l5 -4q-33 -43 -33 -126v-442l-5 -54l85 -9l-4 -33zM40 771v29l43 71h5l192 -113l-19 -41z" />
    <glyph glyph-name="Iacute" unicode="&#xcd;" horiz-adv-x="354" 
d="M47 -3v37q32 4 49.5 21t17.5 44v465q0 38 -10 50t-59 23v30h73l158 4l5 -4q-33 -43 -33 -126v-442l-5 -54l85 -9l-4 -33zM68 758l192 113h5l43 -71v-29l-221 -54z" />
    <glyph glyph-name="Icircumflex" unicode="&#xce;" horiz-adv-x="354" 
d="M47 -3v37q32 4 49.5 21t17.5 44v465q0 38 -10 50t-59 23v30h73l158 4l5 -4q-33 -43 -33 -126v-442l-5 -54l85 -9l-4 -33zM4 747l134 124h73l133 -124l-34 -30l-131 71h-10l-131 -71z" />
    <glyph glyph-name="Idieresis" unicode="&#xcf;" horiz-adv-x="354" 
d="M5 794q0 30 19.5 48.5t49.5 18.5t49.5 -18.5t19.5 -48.5q0 -29 -19.5 -47.5t-49.5 -18.5t-49.5 18.5t-19.5 47.5zM206 794q0 30 19.5 48.5t49.5 18.5t49.5 -18.5t19.5 -48.5q0 -29 -19.5 -47.5t-49.5 -18.5t-49.5 18.5t-19.5 47.5zM47 -3v37q32 4 49.5 21t17.5 44v465
q0 38 -10 50t-59 23v30h73l158 4l5 -4q-33 -43 -33 -126v-442l-5 -54l85 -9l-4 -33z" />
    <glyph glyph-name="Eth" unicode="&#xd0;" horiz-adv-x="763" 
d="M38 312v55h86v197q0 37 -12.5 49.5t-64.5 23.5v30h297q79 0 147 -18t122 -54t85 -96.5t31 -138.5q0 -111 -57 -194.5t-150 -124.5t-208 -41h-86l-171 -3v37q67 8 67 62v216h-86zM253 52h61q131 0 199 72t68 207q0 129 -61.5 206.5t-174.5 77.5h-75l-12 -12v-236h145v-55
h-145v-204z" />
    <glyph glyph-name="Ntilde" unicode="&#xd1;" horiz-adv-x="785" 
d="M47 -3v37q72 8 72 62v430q0 49 -16 72t-65 39v30h29l131 4q12 -24 39 -52l350 -369q19 -20 41 -48v356q0 20 -1.5 30t-9 21t-24.5 16.5t-46 8.5v33h202l5 -19l-7.5 -2.5t-16.5 -9t-21 -18t-16.5 -29.5t-7.5 -42v-552h-42l-426 456q-19 19 -41 49v-404l-5 -54l90 -6
l-4 -33zM262 731l-43 9q0 5 1 13t8 28t17.5 35.5t32 28.5t50.5 13q34 0 85.5 -26t74.5 -26q20 0 33.5 13t16.5 26l4 13l44 -5q0 -5 -1 -13t-7.5 -29t-17.5 -37.5t-34.5 -29.5t-54.5 -13q-37 0 -85.5 26t-69.5 26q-19 0 -32.5 -13t-17.5 -26z" />
    <glyph glyph-name="Ograve" unicode="&#xd2;" horiz-adv-x="800" 
d="M182 352q0 -123 62 -218.5t165 -95.5q98 0 153 86t55 206q0 77 -23.5 143t-76 111t-123.5 45q-101 0 -156.5 -81t-55.5 -196zM35 323q0 67 24.5 130t70.5 114t120.5 81.5t165.5 30.5q87 0 155.5 -27.5t110 -73.5t63 -102.5t21.5 -118.5q0 -68 -25.5 -133t-72 -118
t-120.5 -85.5t-164 -32.5q-111 0 -192.5 49.5t-119 124t-37.5 161.5zM266 771v29l43 71h5l192 -113l-19 -41z" />
    <glyph glyph-name="Oacute" unicode="&#xd3;" horiz-adv-x="800" 
d="M182 352q0 -123 62 -218.5t165 -95.5q98 0 153 86t55 206q0 77 -23.5 143t-76 111t-123.5 45q-101 0 -156.5 -81t-55.5 -196zM35 323q0 67 24.5 130t70.5 114t120.5 81.5t165.5 30.5q87 0 155.5 -27.5t110 -73.5t63 -102.5t21.5 -118.5q0 -68 -25.5 -133t-72 -118
t-120.5 -85.5t-164 -32.5q-111 0 -192.5 49.5t-119 124t-37.5 161.5zM294 758l192 113h5l43 -71v-29l-221 -54z" />
    <glyph glyph-name="Ocircumflex" unicode="&#xd4;" horiz-adv-x="800" 
d="M182 352q0 -123 62 -218.5t165 -95.5q98 0 153 86t55 206q0 77 -23.5 143t-76 111t-123.5 45q-101 0 -156.5 -81t-55.5 -196zM35 323q0 67 24.5 130t70.5 114t120.5 81.5t165.5 30.5q87 0 155.5 -27.5t110 -73.5t63 -102.5t21.5 -118.5q0 -68 -25.5 -133t-72 -118
t-120.5 -85.5t-164 -32.5q-111 0 -192.5 49.5t-119 124t-37.5 161.5zM230 747l134 124h73l133 -124l-34 -30l-131 71h-10l-131 -71z" />
    <glyph glyph-name="Otilde" unicode="&#xd5;" horiz-adv-x="800" 
d="M182 352q0 -123 62 -218.5t165 -95.5q98 0 153 86t55 206q0 77 -23.5 143t-76 111t-123.5 45q-101 0 -156.5 -81t-55.5 -196zM35 323q0 67 24.5 130t70.5 114t120.5 81.5t165.5 30.5q87 0 155.5 -27.5t110 -73.5t63 -102.5t21.5 -118.5q0 -68 -25.5 -133t-72 -118
t-120.5 -85.5t-164 -32.5q-111 0 -192.5 49.5t-119 124t-37.5 161.5zM260 731l-43 9q0 5 1 13t8 28t17.5 35.5t32 28.5t50.5 13q34 0 85.5 -26t74.5 -26q20 0 33.5 13t16.5 26l4 13l44 -5q0 -5 -1 -13t-7.5 -29t-17.5 -37.5t-34.5 -29.5t-54.5 -13q-37 0 -85.5 26t-69.5 26
q-19 0 -32.5 -13t-17.5 -26z" />
    <glyph glyph-name="Odieresis" unicode="&#xd6;" horiz-adv-x="800" 
d="M182 352q0 -123 62 -218.5t165 -95.5q98 0 153 86t55 206q0 77 -23.5 143t-76 111t-123.5 45q-101 0 -156.5 -81t-55.5 -196zM35 323q0 67 24.5 130t70.5 114t120.5 81.5t165.5 30.5q87 0 155.5 -27.5t110 -73.5t63 -102.5t21.5 -118.5q0 -68 -25.5 -133t-72 -118
t-120.5 -85.5t-164 -32.5q-111 0 -192.5 49.5t-119 124t-37.5 161.5zM206 794q0 30 19.5 48.5t49.5 18.5t49.5 -18.5t19.5 -48.5q0 -29 -19.5 -47.5t-49.5 -18.5t-49.5 18.5t-19.5 47.5zM457 794q0 30 19.5 48.5t49.5 18.5t49.5 -18.5t19.5 -48.5q0 -29 -19.5 -47.5
t-49.5 -18.5t-49.5 18.5t-19.5 47.5z" />
    <glyph glyph-name="multiply" unicode="&#xd7;" 
d="M31 434l51 49l178 -178l179 180l49 -51l-178 -179l184 -182l-51 -50l-183 182l-182 -183l-50 51l182 182z" />
    <glyph glyph-name="Oslash" unicode="&#xd8;" horiz-adv-x="800" 
d="M35 323q0 67 24.5 130t70.5 114t120.5 81.5t165.5 30.5q105 0 181 -39l43 57h64l-63 -83q62 -45 93.5 -113t31.5 -144q0 -68 -25.5 -133t-72 -118t-120.5 -85.5t-164 -32.5q-106 0 -186 44l-47 -62h-65l69 91q-58 47 -89 116.5t-31 145.5zM617 330q0 108 -47 191
l-311 -408q62 -75 150 -75q98 0 153 86t55 206zM182 352q0 -109 47 -194l310 406q-59 65 -145 65q-101 0 -156.5 -81t-55.5 -196z" />
    <glyph glyph-name="Ugrave" unicode="&#xd9;" horiz-adv-x="737" 
d="M86 234v330q0 38 -10 50t-59 23v30h73l158 4l5 -4q-33 -40 -33 -126v-299q0 -96 54.5 -146t130.5 -50q74 0 128 50.5t54 138.5v324q0 20 -1.5 29.5t-8.5 20.5t-22.5 16.5t-43.5 8.5v33h207l5 -19q-3 -1 -8 -3t-18 -10.5t-22.5 -19.5t-17.5 -31t-8 -43v-303
q0 -120 -77.5 -185t-199.5 -65q-54 0 -102.5 13.5t-91 41t-67.5 77t-25 114.5zM248 771v29l43 71h5l192 -113l-19 -41z" />
    <glyph glyph-name="Uacute" unicode="&#xda;" horiz-adv-x="737" 
d="M86 234v330q0 38 -10 50t-59 23v30h73l158 4l5 -4q-33 -40 -33 -126v-299q0 -96 54.5 -146t130.5 -50q74 0 128 50.5t54 138.5v324q0 20 -1.5 29.5t-8.5 20.5t-22.5 16.5t-43.5 8.5v33h207l5 -19q-3 -1 -8 -3t-18 -10.5t-22.5 -19.5t-17.5 -31t-8 -43v-303
q0 -120 -77.5 -185t-199.5 -65q-54 0 -102.5 13.5t-91 41t-67.5 77t-25 114.5zM276 758l192 113h5l43 -71v-29l-221 -54z" />
    <glyph glyph-name="Ucircumflex" unicode="&#xdb;" horiz-adv-x="737" 
d="M86 234v330q0 38 -10 50t-59 23v30h73l158 4l5 -4q-33 -40 -33 -126v-299q0 -96 54.5 -146t130.5 -50q74 0 128 50.5t54 138.5v324q0 20 -1.5 29.5t-8.5 20.5t-22.5 16.5t-43.5 8.5v33h207l5 -19q-3 -1 -8 -3t-18 -10.5t-22.5 -19.5t-17.5 -31t-8 -43v-303
q0 -120 -77.5 -185t-199.5 -65q-54 0 -102.5 13.5t-91 41t-67.5 77t-25 114.5zM212 747l134 124h73l133 -124l-34 -30l-131 71h-10l-131 -71z" />
    <glyph glyph-name="Udieresis" unicode="&#xdc;" horiz-adv-x="737" 
d="M86 234v330q0 38 -10 50t-59 23v30h73l158 4l5 -4q-33 -40 -33 -126v-299q0 -96 54.5 -146t130.5 -50q74 0 128 50.5t54 138.5v324q0 20 -1.5 29.5t-8.5 20.5t-22.5 16.5t-43.5 8.5v33h207l5 -19q-3 -1 -8 -3t-18 -10.5t-22.5 -19.5t-17.5 -31t-8 -43v-303
q0 -120 -77.5 -185t-199.5 -65q-54 0 -102.5 13.5t-91 41t-67.5 77t-25 114.5zM188 794q0 30 19.5 48.5t49.5 18.5t49.5 -18.5t19.5 -48.5q0 -29 -19.5 -47.5t-49.5 -18.5t-49.5 18.5t-19.5 47.5zM439 794q0 30 19.5 48.5t49.5 18.5t49.5 -18.5t19.5 -48.5
q0 -29 -19.5 -47.5t-49.5 -18.5t-49.5 18.5t-19.5 47.5z" />
    <glyph glyph-name="Yacute" unicode="&#xdd;" horiz-adv-x="592" 
d="M165 -3v37q32 4 49.5 21t17.5 44v196l-184 298q-11 17 -24 28t-21 13l-8 3v30h53l142 4l4 -4q-18 -39 2 -72l110 -186q15 -26 28 -56l135 222q14 19 5 37.5t-45 24.5v30h170l5 -19q-31 -11 -60 -57l-178 -284v-208l-5 -54l85 -9l-4 -33zM200 758l192 113h5l43 -71v-29
l-221 -54z" />
    <glyph glyph-name="Thorn" unicode="&#xde;" horiz-adv-x="586" 
d="M312 155v38q57 5 85 39t28 89q0 68 -40.5 106t-101.5 38h-23l-12 -12v-354l-5 -54l85 -9l-4 -33l-277 -6v37q32 4 49.5 21t17.5 44v465q0 38 -10 50t-59 23v30h73l158 4l5 -4q-33 -43 -33 -126v-24h60q67 0 124 -15t98.5 -53t41.5 -94q0 -93 -80 -151.5t-180 -48.5z" />
    <glyph glyph-name="germandbls" unicode="&#xdf;" horiz-adv-x="586" 
d="M31 -3v29q57 7 57 62v303h-61v43l61 22v28q0 94 63 167.5t175 73.5q74 0 122 -31t48 -89q0 -36 -26.5 -73t-53 -69t-26.5 -55q0 -21 19 -41.5t45.5 -40.5t53.5 -43t46 -57.5t19 -76.5q0 -70 -48 -115.5t-126 -45.5q-30 0 -59 6t-53.5 23.5t-24.5 44.5q0 11 3.5 27t6.5 27
l4 10h37q9 -48 31 -72.5t53 -24.5q27 0 48 16.5t21 46.5q0 26 -17.5 49.5t-42 42.5t-49.5 40.5t-42.5 52.5t-17.5 69q0 34 15.5 65t34.5 50.5t34.5 49.5t15.5 63q0 43 -22 72t-64 29q-54 0 -74.5 -41t-20.5 -133v-448l4 -48l-3 -3z" />
    <glyph glyph-name="agrave" unicode="&#xe0;" horiz-adv-x="483" 
d="M18 100q0 69 64.5 110t154.5 54l35 5q0 81 -5 105q-10 48 -47 48q-25 0 -49 -27t-35 -53l-12 -27h-46l-22 88q9 7 26 17.5t72.5 28.5t113.5 18q77 0 104 -31.5t27 -111.5v-225q0 -47 24 -47q9 0 20 4t17 8l7 5l16 -27q-6 -6 -16 -15t-42.5 -24t-65.5 -15
q-39 0 -61.5 17.5t-22.5 49.5v16l-6 -9t-18 -20t-29 -25t-38.5 -20t-48.5 -9q-48 0 -82.5 29.5t-34.5 82.5zM196 67q37 0 75 32v125l-27 -5q-96 -17 -96 -94q0 -25 12 -41.5t36 -16.5zM87 683v27l121 -11l76 -171l-40 -21z" />
    <glyph glyph-name="aacute" unicode="&#xe1;" horiz-adv-x="483" 
d="M18 100q0 69 64.5 110t154.5 54l35 5q0 81 -5 105q-10 48 -47 48q-25 0 -49 -27t-35 -53l-12 -27h-46l-22 88q9 7 26 17.5t72.5 28.5t113.5 18q77 0 104 -31.5t27 -111.5v-225q0 -47 24 -47q9 0 20 4t17 8l7 5l16 -27q-6 -6 -16 -15t-42.5 -24t-65.5 -15
q-39 0 -61.5 17.5t-22.5 49.5v16l-6 -9t-18 -20t-29 -25t-38.5 -20t-48.5 -9q-48 0 -82.5 29.5t-34.5 82.5zM196 67q37 0 75 32v125l-27 -5q-96 -17 -96 -94q0 -25 12 -41.5t36 -16.5zM220 507l-40 21l76 171l121 11v-27z" />
    <glyph glyph-name="acircumflex" unicode="&#xe2;" horiz-adv-x="483" 
d="M18 100q0 69 64.5 110t154.5 54l35 5q0 81 -5 105q-10 48 -47 48q-25 0 -49 -27t-35 -53l-12 -27h-46l-22 88q9 7 26 17.5t72.5 28.5t113.5 18q77 0 104 -31.5t27 -111.5v-225q0 -47 24 -47q9 0 20 4t17 8l7 5l16 -27q-6 -6 -16 -15t-42.5 -24t-65.5 -15
q-39 0 -61.5 17.5t-22.5 49.5v16l-6 -9t-18 -20t-29 -25t-38.5 -20t-48.5 -9q-48 0 -82.5 29.5t-34.5 82.5zM85 528l121 177h53l119 -177l-37 -25l-109 110l-109 -110zM196 67q37 0 75 32v125l-27 -5q-96 -17 -96 -94q0 -25 12 -41.5t36 -16.5z" />
    <glyph glyph-name="atilde" unicode="&#xe3;" horiz-adv-x="483" 
d="M18 100q0 69 64.5 110t154.5 54l35 5q0 81 -5 105q-10 48 -47 48q-25 0 -49 -27t-35 -53l-12 -27h-46l-22 88q9 7 26 17.5t72.5 28.5t113.5 18q77 0 104 -31.5t27 -111.5v-225q0 -47 24 -47q9 0 20 4t17 8l7 5l16 -27q-6 -6 -16 -15t-42.5 -24t-65.5 -15
q-39 0 -61.5 17.5t-22.5 49.5v16l-6 -9t-18 -20t-29 -25t-38.5 -20t-48.5 -9q-48 0 -82.5 29.5t-34.5 82.5zM196 67q37 0 75 32v125l-27 -5q-96 -17 -96 -94q0 -25 12 -41.5t36 -16.5zM73 557q-1 6 -1.5 15.5t2.5 33.5t11 43t29 34t52 15q30 0 54 -18t43 -36t36 -18
q23 0 35 16t12 32l1 17h46q1 -6 1.5 -15.5t-3 -34t-12 -43.5t-30 -34.5t-53.5 -15.5q-23 0 -43 11t-31.5 25t-26 25t-28.5 11q-24 0 -36 -16t-12 -32v-15h-46z" />
    <glyph glyph-name="adieresis" unicode="&#xe4;" horiz-adv-x="483" 
d="M18 100q0 69 64.5 110t154.5 54l35 5q0 81 -5 105q-10 48 -47 48q-25 0 -49 -27t-35 -53l-12 -27h-46l-22 88q9 7 26 17.5t72.5 28.5t113.5 18q77 0 104 -31.5t27 -111.5v-225q0 -47 24 -47q9 0 20 4t17 8l7 5l16 -27q-6 -6 -16 -15t-42.5 -24t-65.5 -15
q-39 0 -61.5 17.5t-22.5 49.5v16l-6 -9t-18 -20t-29 -25t-38.5 -20t-48.5 -9q-48 0 -82.5 29.5t-34.5 82.5zM196 67q37 0 75 32v125l-27 -5q-96 -17 -96 -94q0 -25 12 -41.5t36 -16.5zM119 557q-30 0 -49.5 18.5t-19.5 47.5q0 30 19.5 48.5t49.5 18.5t49.5 -18.5t19.5 -48.5
q0 -29 -19.5 -47.5t-49.5 -18.5zM345 557q-30 0 -49.5 18.5t-19.5 47.5q0 30 19.5 48.5t49.5 18.5t49.5 -18.5t19.5 -48.5q0 -29 -19.5 -47.5t-49.5 -18.5z" />
    <glyph glyph-name="aring" unicode="&#xe5;" horiz-adv-x="483" 
d="M18 100q0 69 64.5 110t154.5 54l35 5q0 81 -5 105q-10 48 -47 48q-25 0 -49 -27t-35 -53l-12 -27h-46l-22 88q9 7 26 17.5t72.5 28.5t113.5 18q77 0 104 -31.5t27 -111.5v-225q0 -47 24 -47q9 0 20 4t17 8l7 5l16 -27q-6 -6 -16 -15t-42.5 -24t-65.5 -15
q-39 0 -61.5 17.5t-22.5 49.5v16l-6 -9t-18 -20t-29 -25t-38.5 -20t-48.5 -9q-48 0 -82.5 29.5t-34.5 82.5zM232 535q-49 0 -75 28t-26 63t26 61.5t75 26.5t75 -26.5t26 -61.5t-26 -63t-75 -28zM196 67q37 0 75 32v125l-27 -5q-96 -17 -96 -94q0 -25 12 -41.5t36 -16.5z
M232 578q21 0 33.5 13.5t12.5 33.5q0 19 -12 32.5t-34 13.5q-23 0 -34 -13t-11 -33t12 -33.5t33 -13.5z" />
    <glyph glyph-name="ae" unicode="&#xe6;" horiz-adv-x="708" 
d="M16 101q0 73 74 116.5t188 57.5v24q0 27 -1.5 45.5t-6.5 38t-15.5 29.5t-26.5 10q-27 0 -51.5 -27t-35.5 -53l-11 -27h-46l-22 88q9 7 26.5 17.5t71.5 28.5t109 18q79 0 106 -48q58 48 128 48q72 0 122.5 -45.5t53.5 -132.5q-43 -14 -66 -17l-218 -29q4 -70 42 -117.5
t112 -47.5q33 0 63 10t44 20l13 10l12 -29q-2 -4 -7 -11t-22 -24.5t-36.5 -30.5t-53 -24t-70.5 -11q-128 0 -182 114q-44 -114 -160 -114q-57 0 -95.5 29.5t-38.5 83.5zM193 67q34 0 59 34t25 76v52q-131 -18 -131 -103q0 -25 12.5 -42t34.5 -17zM481 419q-33 0 -56 -36.5
t-29 -91.5l156 19q0 4 -0.5 11.5t-4.5 26.5t-10.5 33t-21 26t-34.5 12z" />
    <glyph glyph-name="ccedilla" unicode="&#xe7;" horiz-adv-x="448" 
d="M172 -87q0 27 33 78q-83 13 -130.5 77t-47.5 147q0 98 64.5 175t173.5 77q57 0 109 -20t52 -60q0 -20 -13.5 -34.5t-35.5 -14.5q-19 0 -34 13.5t-24 29t-26.5 29t-41.5 13.5q-49 0 -77 -48t-28 -117q0 -80 39 -130t113 -50q31 0 60.5 9t43.5 17l14 9l12 -29
q-2 -4 -6.5 -10.5t-21 -23t-35.5 -29t-52 -23t-69 -10.5h-1q-6 -20 -6 -30t14.5 -18t31.5 -14.5t31.5 -23t14.5 -40.5q0 -42 -33.5 -70.5t-85.5 -28.5q-29 0 -54 9.5t-36 19.5l-10 9l17 39q34 -27 73 -27q18 0 32 7.5t14 20.5q0 11 -11.5 19.5t-25.5 14t-25.5 15.5t-11.5 23
z" />
    <glyph glyph-name="egrave" unicode="&#xe8;" horiz-adv-x="462" 
d="M27 219q0 104 65.5 176t162.5 72q74 0 125 -45t54 -133q-46 -16 -66 -19l-212 -32l-9 -12q9 -65 46.5 -106.5t108.5 -41.5q32 0 62 10t44 20l13 10l12 -29q-2 -4 -6.5 -11t-20.5 -24.5t-35 -30.5t-51 -24t-67 -11q-105 0 -165.5 68t-60.5 163zM91 682v27l121 -11l76 -171
l-40 -21zM234 419q-38 0 -62 -39t-27 -96l164 21q0 5 -0.5 12.5t-5 27t-12 34.5t-22.5 27.5t-35 12.5z" />
    <glyph glyph-name="eacute" unicode="&#xe9;" horiz-adv-x="462" 
d="M27 219q0 104 65.5 176t162.5 72q74 0 125 -45t54 -133q-46 -16 -66 -19l-212 -32l-9 -12q9 -65 46.5 -106.5t108.5 -41.5q32 0 62 10t44 20l13 10l12 -29q-2 -4 -6.5 -11t-20.5 -24.5t-35 -30.5t-51 -24t-67 -11q-105 0 -165.5 68t-60.5 163zM224 506l-40 21l76 171
l121 11v-27zM234 419q-38 0 -62 -39t-27 -96l164 21q0 5 -0.5 12.5t-5 27t-12 34.5t-22.5 27.5t-35 12.5z" />
    <glyph glyph-name="ecircumflex" unicode="&#xea;" horiz-adv-x="462" 
d="M27 219q0 104 65.5 176t162.5 72q74 0 125 -45t54 -133q-46 -16 -66 -19l-212 -32l-9 -12q9 -65 46.5 -106.5t108.5 -41.5q32 0 62 10t44 20l13 10l12 -29q-2 -4 -6.5 -11t-20.5 -24.5t-35 -30.5t-51 -24t-67 -11q-105 0 -165.5 68t-60.5 163zM89 527l121 177h53
l119 -177l-37 -25l-109 110l-109 -110zM234 419q-38 0 -62 -39t-27 -96l164 21q0 5 -0.5 12.5t-5 27t-12 34.5t-22.5 27.5t-35 12.5z" />
    <glyph glyph-name="edieresis" unicode="&#xeb;" horiz-adv-x="462" 
d="M27 219q0 104 65.5 176t162.5 72q74 0 125 -45t54 -133q-46 -16 -66 -19l-212 -32l-9 -12q9 -65 46.5 -106.5t108.5 -41.5q32 0 62 10t44 20l13 10l12 -29q-2 -4 -6.5 -11t-20.5 -24.5t-35 -30.5t-51 -24t-67 -11q-105 0 -165.5 68t-60.5 163zM234 419q-38 0 -62 -39
t-27 -96l164 21q0 5 -0.5 12.5t-5 27t-12 34.5t-22.5 27.5t-35 12.5zM123 556q-30 0 -49.5 18.5t-19.5 47.5q0 30 19.5 48.5t49.5 18.5t49.5 -18.5t19.5 -48.5q0 -29 -19.5 -47.5t-49.5 -18.5zM349 556q-30 0 -49.5 18.5t-19.5 47.5q0 30 19.5 48.5t49.5 18.5t49.5 -18.5
t19.5 -48.5q0 -29 -19.5 -47.5t-49.5 -18.5z" />
    <glyph glyph-name="igrave" unicode="&#xec;" horiz-adv-x="301" 
d="M31 -3v34q57 7 57 65v237q0 25 -1.5 36.5t-8 20.5t-20.5 9h-40v32q52 8 103 20.5t76 20.5l25 9l3 -3q-9 -33 -9 -114v-268l-5 -54l80 -9l-4 -30zM-2 683v27l121 -11l76 -171l-40 -21z" />
    <glyph glyph-name="iacute" unicode="&#xed;" horiz-adv-x="301" 
d="M31 -3v34q57 7 57 65v237q0 25 -1.5 36.5t-8 20.5t-20.5 9h-40v32q52 8 103 20.5t76 20.5l25 9l3 -3q-9 -33 -9 -114v-268l-5 -54l80 -9l-4 -30zM131 507l-40 21l76 171l121 11v-27z" />
    <glyph glyph-name="icircumflex" unicode="&#xee;" horiz-adv-x="301" 
d="M31 -3v34q57 7 57 65v237q0 25 -1.5 36.5t-8 20.5t-20.5 9h-40v32q52 8 103 20.5t76 20.5l25 9l3 -3q-9 -33 -9 -114v-268l-5 -54l80 -9l-4 -30zM-4 528l121 177h53l119 -177l-37 -25l-109 110l-109 -110z" />
    <glyph glyph-name="idieresis" unicode="&#xef;" horiz-adv-x="301" 
d="M-24 623q0 30 19.5 48.5t49.5 18.5t49.5 -18.5t19.5 -48.5q0 -29 -19.5 -47.5t-49.5 -18.5t-49.5 18.5t-19.5 47.5zM171 623q0 30 19.5 48.5t49.5 18.5t49.5 -18.5t19.5 -48.5q0 -29 -19.5 -47.5t-49.5 -18.5t-49.5 18.5t-19.5 47.5zM31 -3v34q57 7 57 65v237
q0 25 -1.5 36.5t-8 20.5t-20.5 9h-40v32q52 8 103 20.5t76 20.5l25 9l3 -3q-9 -33 -9 -114v-268l-5 -54l80 -9l-4 -30z" />
    <glyph glyph-name="eth" unicode="&#xf0;" horiz-adv-x="535" 
d="M119 508l-24 44l121 68q-61 58 -144 87l11 36q115 -22 207 -81l141 80l23 -44l-120 -68q78 -66 120.5 -157.5t42.5 -191.5q0 -128 -66 -210.5t-183 -82.5q-103 0 -162 65t-59 157q0 101 66.5 179t168.5 78q31 0 63 -10q-29 73 -74 126zM159 228q0 -74 25 -135t72 -61
q45 0 77 56.5t32 158.5q0 46 -7 89q-15 85 -79 85q-53 0 -86.5 -55t-33.5 -138z" />
    <glyph glyph-name="ntilde" unicode="&#xf1;" horiz-adv-x="588" 
d="M31 -3v34q57 7 57 65v237q0 25 -1.5 36.5t-8 20.5t-20.5 9h-40v32q52 8 102.5 20.5t75.5 20.5l24 9l3 -3q-9 -22 -14 -111q76 100 178 100q55 0 87 -33t32 -102v-236l-5 -53l80 -10l-4 -30l-244 -6v34q45 7 45 65v197q0 51 -12.5 68.5t-43.5 17.5q-59 0 -106 -37v-246
l-5 -53l63 -10l-4 -30zM138 557q-1 6 -1.5 15.5t2.5 33.5t11 43t29 34t52 15q30 0 54 -18t43 -36t36 -18q23 0 35 16t13 32v17h46q1 -6 1.5 -15.5t-3 -34t-12 -43.5t-30 -34.5t-53.5 -15.5q-23 0 -43 11t-31.5 25t-26 25t-28.5 11q-24 0 -36 -16t-12 -32v-15h-46z" />
    <glyph glyph-name="ograve" unicode="&#xf2;" horiz-adv-x="546" 
d="M27 218q0 63 24.5 117.5t83.5 93t143 38.5q111 0 176 -61.5t65 -160.5q0 -103 -67 -180t-187 -77q-108 0 -173 64t-65 166zM165 244q0 -52 11.5 -98.5t38.5 -80t66 -33.5q30 0 51 19.5t31 51t14 62.5t3 61q-1 78 -29.5 137.5t-83.5 59.5q-50 0 -76 -51.5t-26 -127.5z
M128 683v27l121 -11l76 -171l-40 -21z" />
    <glyph glyph-name="oacute" unicode="&#xf3;" horiz-adv-x="546" 
d="M27 218q0 63 24.5 117.5t83.5 93t143 38.5q111 0 176 -61.5t65 -160.5q0 -103 -67 -180t-187 -77q-108 0 -173 64t-65 166zM165 244q0 -52 11.5 -98.5t38.5 -80t66 -33.5q30 0 51 19.5t31 51t14 62.5t3 61q-1 78 -29.5 137.5t-83.5 59.5q-50 0 -76 -51.5t-26 -127.5z
M261 507l-40 21l76 171l121 11v-27z" />
    <glyph glyph-name="ocircumflex" unicode="&#xf4;" horiz-adv-x="546" 
d="M27 218q0 63 24.5 117.5t83.5 93t143 38.5q111 0 176 -61.5t65 -160.5q0 -103 -67 -180t-187 -77q-108 0 -173 64t-65 166zM165 244q0 -52 11.5 -98.5t38.5 -80t66 -33.5q30 0 51 19.5t31 51t14 62.5t3 61q-1 78 -29.5 137.5t-83.5 59.5q-50 0 -76 -51.5t-26 -127.5z
M126 528l121 177h53l119 -177l-37 -25l-109 110l-109 -110z" />
    <glyph glyph-name="otilde" unicode="&#xf5;" horiz-adv-x="546" 
d="M27 218q0 63 24.5 117.5t83.5 93t143 38.5q111 0 176 -61.5t65 -160.5q0 -103 -67 -180t-187 -77q-108 0 -173 64t-65 166zM165 244q0 -52 11.5 -98.5t38.5 -80t66 -33.5q30 0 51 19.5t31 51t14 62.5t3 61q-1 78 -29.5 137.5t-83.5 59.5q-50 0 -76 -51.5t-26 -127.5z
M114 557q-1 6 -1.5 15.5t2.5 33.5t11 43t29 34t52 15q30 0 54 -18t43 -36t36 -18q23 0 35 16t13 32v17h46q1 -6 1.5 -15.5t-3 -34t-12 -43.5t-30 -34.5t-53.5 -15.5q-23 0 -43 11t-31.5 25t-26 25t-28.5 11q-24 0 -36 -16t-12 -32v-15h-46z" />
    <glyph glyph-name="odieresis" unicode="&#xf6;" horiz-adv-x="546" 
d="M27 218q0 63 24.5 117.5t83.5 93t143 38.5q111 0 176 -61.5t65 -160.5q0 -103 -67 -180t-187 -77q-108 0 -173 64t-65 166zM165 244q0 -52 11.5 -98.5t38.5 -80t66 -33.5q30 0 51 19.5t31 51t14 62.5t3 61q-1 78 -29.5 137.5t-83.5 59.5q-50 0 -76 -51.5t-26 -127.5z
M160 557q-30 0 -49.5 18.5t-19.5 47.5q0 30 19.5 48.5t49.5 18.5t49.5 -18.5t19.5 -48.5q0 -29 -19.5 -47.5t-49.5 -18.5zM386 557q-30 0 -49.5 18.5t-19.5 47.5q0 30 19.5 48.5t49.5 18.5t49.5 -18.5t19.5 -48.5q0 -29 -19.5 -47.5t-49.5 -18.5z" />
    <glyph glyph-name="divide" unicode="&#xf7;" 
d="M36 218v71h448v-71h-448zM191 66q0 29 20.5 50t48.5 21q29 0 49.5 -21t20.5 -50t-20.5 -49t-49.5 -20q-28 0 -48.5 20.5t-20.5 48.5zM260 370q-28 0 -48.5 20.5t-20.5 49.5t20.5 49.5t48.5 20.5q29 0 49.5 -20.5t20.5 -49.5t-20.5 -49.5t-49.5 -20.5z" />
    <glyph glyph-name="oslash" unicode="&#xf8;" horiz-adv-x="546" 
d="M48 -30l54 73q-75 64 -75 175q0 63 24.5 117.5t83.5 93t143 38.5q68 0 121 -25l33 43h60l-51 -69q78 -61 78 -171q0 -103 -67 -180t-187 -77q-68 0 -122 27l-34 -45h-61zM380 226q-2 50 -13 91l-169 -228q30 -57 83 -57q30 0 51 19.5t31 51.5t13.5 62t3.5 61zM165 244
q0 -53 12 -101l169 227q-30 53 -79 53q-50 0 -76 -51.5t-26 -127.5z" />
    <glyph glyph-name="ugrave" unicode="&#xf9;" horiz-adv-x="574" 
d="M73 123v208q0 26 -1.5 38t-8 21t-20.5 9h-30v33q76 13 124.5 23t58.5 13l11 4l3 -3q-9 -28 -9 -105v-203q0 -51 15 -70.5t42 -19.5q22 0 47 11.5t39 23.5l14 11v214q0 26 -1.5 38t-8 21t-20.5 9h-25v34q73 13 120 22.5t58 12.5l11 4l3 -3q-9 -28 -9 -105v-264
q0 -39 13 -48t43 -9h23l-3 -32l-202 -20l-2 2q7 30 7 55v42l-8 -11t-22 -24.5t-35 -31t-45.5 -24.5t-55.5 -11q-57 0 -91.5 33t-34.5 102zM134 683v27l121 -11l76 -171l-40 -21z" />
    <glyph glyph-name="uacute" unicode="&#xfa;" horiz-adv-x="574" 
d="M73 123v208q0 26 -1.5 38t-8 21t-20.5 9h-30v33q76 13 124.5 23t58.5 13l11 4l3 -3q-9 -28 -9 -105v-203q0 -51 15 -70.5t42 -19.5q22 0 47 11.5t39 23.5l14 11v214q0 26 -1.5 38t-8 21t-20.5 9h-25v34q73 13 120 22.5t58 12.5l11 4l3 -3q-9 -28 -9 -105v-264
q0 -39 13 -48t43 -9h23l-3 -32l-202 -20l-2 2q7 30 7 55v42l-8 -11t-22 -24.5t-35 -31t-45.5 -24.5t-55.5 -11q-57 0 -91.5 33t-34.5 102zM267 507l-40 21l76 171l121 11v-27z" />
    <glyph glyph-name="ucircumflex" unicode="&#xfb;" horiz-adv-x="574" 
d="M73 123v208q0 26 -1.5 38t-8 21t-20.5 9h-30v33q76 13 124.5 23t58.5 13l11 4l3 -3q-9 -28 -9 -105v-203q0 -51 15 -70.5t42 -19.5q22 0 47 11.5t39 23.5l14 11v214q0 26 -1.5 38t-8 21t-20.5 9h-25v34q73 13 120 22.5t58 12.5l11 4l3 -3q-9 -28 -9 -105v-264
q0 -39 13 -48t43 -9h23l-3 -32l-202 -20l-2 2q7 30 7 55v42l-8 -11t-22 -24.5t-35 -31t-45.5 -24.5t-55.5 -11q-57 0 -91.5 33t-34.5 102zM132 528l121 177h53l119 -177l-37 -25l-109 110l-109 -110z" />
    <glyph glyph-name="udieresis" unicode="&#xfc;" horiz-adv-x="574" 
d="M73 123v208q0 26 -1.5 38t-8 21t-20.5 9h-30v33q76 13 124.5 23t58.5 13l11 4l3 -3q-9 -28 -9 -105v-203q0 -51 15 -70.5t42 -19.5q22 0 47 11.5t39 23.5l14 11v214q0 26 -1.5 38t-8 21t-20.5 9h-25v34q73 13 120 22.5t58 12.5l11 4l3 -3q-9 -28 -9 -105v-264
q0 -39 13 -48t43 -9h23l-3 -32l-202 -20l-2 2q7 30 7 55v42l-8 -11t-22 -24.5t-35 -31t-45.5 -24.5t-55.5 -11q-57 0 -91.5 33t-34.5 102zM166 557q-30 0 -49.5 18.5t-19.5 47.5q0 30 19.5 48.5t49.5 18.5t49.5 -18.5t19.5 -48.5q0 -29 -19.5 -47.5t-49.5 -18.5zM392 557
q-30 0 -49.5 18.5t-19.5 47.5q0 30 19.5 48.5t49.5 18.5t49.5 -18.5t19.5 -48.5q0 -29 -19.5 -47.5t-49.5 -18.5z" />
    <glyph glyph-name="yacute" unicode="&#xfd;" horiz-adv-x="472" 
d="M79 -135q88 0 127 92l9 22q-8 25 -31 79l-135 309q-10 22 -24.5 36.5t-24.5 18.5l-9 3v30h47l146 4l4 -4q-21 -43 -2 -92l73 -178q8 -19 19 -59l97 227q10 27 -6.5 45t-48.5 27v30h147l5 -16q-15 -14 -32 -53l-151 -353q-2 -4 -15 -35t-19 -43.5l-21.5 -43t-26 -46
t-28 -38.5t-33.5 -34.5t-36.5 -20.5t-41.5 -9q-26 0 -40.5 14.5t-14.5 36.5q0 21 16 36t50 15zM247 507l-40 21l76 171l121 11v-27z" />
    <glyph glyph-name="thorn" unicode="&#xfe;" horiz-adv-x="536" 
d="M196 90q0 -51 51 -51q62 0 95.5 50.5t33.5 125.5q0 68 -27 119t-82 51q-28 0 -71 -20v-275zM68 -115v714q0 25 -1.5 36.5t-8 20.5t-20.5 9h-37v32q71 14 121.5 27t65.5 18l15 6l3 -3q-10 -36 -10 -113v-154l-4 -87q58 76 136 76q79 0 130 -61.5t51 -151.5
q0 -106 -70 -186t-190 -80q-17 0 -53 4v-106l-5 -57h100l-4 -29q-178 -22 -266 -46v34q29 18 38 38.5t9 58.5z" />
    <glyph glyph-name="ydieresis" unicode="&#xff;" horiz-adv-x="472" 
d="M79 -135q88 0 127 92l9 22q-8 25 -31 79l-135 309q-10 22 -24.5 36.5t-24.5 18.5l-9 3v30h47l146 4l4 -4q-21 -43 -2 -92l73 -178q8 -19 19 -59l97 227q10 27 -6.5 45t-48.5 27v30h147l5 -16q-15 -14 -32 -53l-151 -353q-2 -4 -15 -35t-19 -43.5l-21.5 -43t-26 -46
t-28 -38.5t-33.5 -34.5t-36.5 -20.5t-41.5 -9q-26 0 -40.5 14.5t-14.5 36.5q0 21 16 36t50 15zM372 557q-30 0 -49.5 18.5t-19.5 47.5q0 30 19.5 48.5t49.5 18.5t49.5 -18.5t19.5 -48.5q0 -29 -19.5 -47.5t-49.5 -18.5zM146 557q-30 0 -49.5 18.5t-19.5 47.5q0 30 19.5 48.5
t49.5 18.5t49.5 -18.5t19.5 -48.5q0 -29 -19.5 -47.5t-49.5 -18.5z" />
    <glyph glyph-name="Amacron" unicode="&#x100;" horiz-adv-x="625" 
d="M-17 0v34q50 5 67 47l232 581l61 13l219 -569q14 -37 28.5 -53.5t41.5 -20.5l-4 -32h-41l-195 -4v39q54 2 40 40l-47 129h-213l-17 -12l-56 -147l86 -11l-6 -34h-196zM303 435q-9 23 -25 77l-97 -253h185zM169 757v74h288v-74h-288z" />
    <glyph glyph-name="amacron" unicode="&#x101;" horiz-adv-x="483" 
d="M18 100q0 69 64.5 110t154.5 54l35 5q0 81 -5 105q-10 48 -47 48q-25 0 -49 -27t-35 -53l-12 -27h-46l-22 88q9 7 26 17.5t72.5 28.5t113.5 18q77 0 104 -31.5t27 -111.5v-225q0 -47 24 -47q9 0 20 4t17 8l7 5l16 -27q-6 -6 -16 -15t-42.5 -24t-65.5 -15
q-39 0 -61.5 17.5t-22.5 49.5v16l-6 -9t-18 -20t-29 -25t-38.5 -20t-48.5 -9q-48 0 -82.5 29.5t-34.5 82.5zM103 579v74h258v-74h-258zM196 67q37 0 75 32v125l-27 -5q-96 -17 -96 -94q0 -25 12 -41.5t36 -16.5z" />
    <glyph glyph-name="Abreve" unicode="&#x102;" horiz-adv-x="625" 
d="M-17 0v34q50 5 67 47l232 581l61 13l219 -569q14 -37 28.5 -53.5t41.5 -20.5l-4 -32h-41l-195 -4v39q54 2 40 40l-47 129h-213l-17 -12l-56 -147l86 -11l-6 -34h-196zM313 715q-66 0 -106.5 34.5t-40.5 93.5q0 14 3 31h46q0 -76 98 -76q97 0 97 76h47q2 -10 2 -28
q0 -58 -40 -94.5t-106 -36.5zM303 435q-9 23 -25 77l-97 -253h185z" />
    <glyph glyph-name="abreve" unicode="&#x103;" horiz-adv-x="483" 
d="M18 100q0 69 64.5 110t154.5 54l35 5q0 81 -5 105q-10 48 -47 48q-25 0 -49 -27t-35 -53l-12 -27h-46l-22 88q9 7 26 17.5t72.5 28.5t113.5 18q77 0 104 -31.5t27 -111.5v-225q0 -47 24 -47q9 0 20 4t17 8l7 5l16 -27q-6 -6 -16 -15t-42.5 -24t-65.5 -15
q-39 0 -61.5 17.5t-22.5 49.5v16l-6 -9t-18 -20t-29 -25t-38.5 -20t-48.5 -9q-48 0 -82.5 29.5t-34.5 82.5zM196 67q37 0 75 32v125l-27 -5q-96 -17 -96 -94q0 -25 12 -41.5t36 -16.5zM232 542q-60 0 -99.5 35t-39.5 89q0 22 5 39h45q-1 -8 -1 -12q0 -37 26 -54t64 -17
q90 0 90 71l-1 12h45q5 -23 5 -39q0 -54 -39.5 -89t-99.5 -35z" />
    <glyph glyph-name="Aogonek" unicode="&#x104;" horiz-adv-x="625" 
d="M-17 0v34q50 5 67 47l232 581l61 13l219 -569q14 -37 28.5 -53.5t41.5 -20.5l-4 -32h-26q-29 -2 -63.5 -44t-34.5 -84q0 -27 18.5 -43.5t41.5 -16.5l22 2l9 -34q-41 -17 -89 -17q-45 0 -75 23t-30 57q0 9 1.5 17.5t6 17l8.5 16t12.5 17.5t14.5 16l17.5 17.5t18 17.5
l20.5 19t21 19l-129 -4v39q54 2 40 40l-47 129h-213l-17 -12l-56 -147l86 -11l-6 -34h-196zM303 435q-9 23 -25 77l-97 -253h185z" />
    <glyph glyph-name="aogonek" unicode="&#x105;" horiz-adv-x="484" 
d="M18 100q0 69 64.5 110t154.5 54l35 5q0 81 -5 105q-10 48 -47 48q-25 0 -49 -27t-35 -53l-12 -27h-46l-22 88q9 7 26 17.5t72.5 28.5t113.5 18q77 0 104 -31.5t27 -111.5v-225q0 -47 24 -47q9 0 20 4t17 8l7 5l16 -27q-13 -13 -32 -26q-32 -25 -63.5 -66.5t-31.5 -77.5
q0 -27 18.5 -43.5t41.5 -16.5l22 2l9 -34q-43 -17 -89 -17q-45 0 -75 23t-30 57q0 18 7 34.5t26.5 38t31 32.5l43.5 40h-2q-39 0 -61.5 17.5t-22.5 49.5v16l-6 -9t-18 -20t-29 -25t-38.5 -20t-48.5 -9q-48 0 -82.5 29.5t-34.5 82.5zM196 67q37 0 75 32v125l-27 -5
q-96 -17 -96 -94q0 -25 12 -41.5t36 -16.5z" />
    <glyph glyph-name="Cacute" unicode="&#x106;" horiz-adv-x="686" 
d="M34 324q0 65 24 127t69.5 113.5t118.5 83t163 31.5q52 0 141 -13.5t95 -14.5l-30 -157h-39q-3 70 -52 102.5t-126 32.5q-113 0 -171 -76t-58 -189q0 -134 81.5 -211t198.5 -77q51 0 99 17t70 35l23 17l17 -26q-3 -5 -10 -14t-31 -31.5t-52.5 -40t-76.5 -31.5t-101 -14
q-159 0 -256 99.5t-97 236.5zM267 758l192 113h5l43 -71v-29l-221 -54z" />
    <glyph glyph-name="cacute" unicode="&#x107;" horiz-adv-x="448" 
d="M27 215q0 98 64.5 175t173.5 77q57 0 109 -20t52 -60q0 -20 -13.5 -34.5t-35.5 -14.5q-19 0 -34 13.5t-24 29t-26.5 29t-41.5 13.5q-49 0 -77 -48t-28 -117q0 -80 39 -130t113 -50q31 0 60.5 9t43.5 17l14 9l12 -29q-2 -4 -6.5 -10.5t-21 -23t-35.5 -29t-52 -23
t-69 -10.5q-100 0 -158.5 67t-58.5 160zM228 507l-40 21l76 171l121 11v-27z" />
    <glyph glyph-name="Ccircumflex" unicode="&#x108;" horiz-adv-x="686" 
d="M34 324q0 65 24 127t69.5 113.5t118.5 83t163 31.5q52 0 141 -13.5t95 -14.5l-30 -157h-39q-3 70 -52 102.5t-126 32.5q-113 0 -171 -76t-58 -189q0 -134 81.5 -211t198.5 -77q51 0 99 17t70 35l23 17l17 -26q-3 -5 -10 -14t-31 -31.5t-52.5 -40t-76.5 -31.5t-101 -14
q-159 0 -256 99.5t-97 236.5zM203 747l134 124h73l133 -124l-34 -30l-131 71h-10l-131 -71z" />
    <glyph glyph-name="ccircumflex" unicode="&#x109;" horiz-adv-x="448" 
d="M27 215q0 98 64.5 175t173.5 77q57 0 109 -20t52 -60q0 -20 -13.5 -34.5t-35.5 -14.5q-19 0 -34 13.5t-24 29t-26.5 29t-41.5 13.5q-49 0 -77 -48t-28 -117q0 -80 39 -130t113 -50q31 0 60.5 9t43.5 17l14 9l12 -29q-2 -4 -6.5 -10.5t-21 -23t-35.5 -29t-52 -23
t-69 -10.5q-100 0 -158.5 67t-58.5 160zM93 528l121 177h53l119 -177l-37 -25l-109 110l-109 -110z" />
    <glyph glyph-name="Cdotaccent" unicode="&#x10a;" horiz-adv-x="686" 
d="M34 324q0 65 24 127t69.5 113.5t118.5 83t163 31.5q52 0 141 -13.5t95 -14.5l-30 -157h-39q-3 70 -52 102.5t-126 32.5q-113 0 -171 -76t-58 -189q0 -134 81.5 -211t198.5 -77q51 0 99 17t70 35l23 17l17 -26q-3 -5 -10 -14t-31 -31.5t-52.5 -40t-76.5 -31.5t-101 -14
q-159 0 -256 99.5t-97 236.5zM373 724q-32 0 -53 19.5t-21 50.5t21 51t53 20t53 -20t21 -51t-21 -50.5t-53 -19.5z" />
    <glyph glyph-name="cdotaccent" unicode="&#x10b;" horiz-adv-x="448" 
d="M27 215q0 98 64.5 175t173.5 77q57 0 109 -20t52 -60q0 -20 -13.5 -34.5t-35.5 -14.5q-19 0 -34 13.5t-24 29t-26.5 29t-41.5 13.5q-49 0 -77 -48t-28 -117q0 -80 39 -130t113 -50q31 0 60.5 9t43.5 17l14 9l12 -29q-2 -4 -6.5 -10.5t-21 -23t-35.5 -29t-52 -23
t-69 -10.5q-100 0 -158.5 67t-58.5 160zM240 554q-32 0 -53 19.5t-21 50.5t21 51t53 20t53 -20t21 -51t-21 -50.5t-53 -19.5z" />
    <glyph glyph-name="Ccaron" unicode="&#x10c;" horiz-adv-x="686" 
d="M34 324q0 65 24 127t69.5 113.5t118.5 83t163 31.5q52 0 141 -13.5t95 -14.5l-30 -157h-39q-3 70 -52 102.5t-126 32.5q-113 0 -171 -76t-58 -189q0 -134 81.5 -211t198.5 -77q51 0 99 17t70 35l23 17l17 -26q-3 -5 -10 -14t-31 -31.5t-52.5 -40t-76.5 -31.5t-101 -14
q-159 0 -256 99.5t-97 236.5zM203 841l34 30l131 -71h10l131 71l34 -30l-134 -124h-73z" />
    <glyph glyph-name="ccaron" unicode="&#x10d;" horiz-adv-x="448" 
d="M27 215q0 98 64.5 175t173.5 77q57 0 109 -20t52 -60q0 -20 -13.5 -34.5t-35.5 -14.5q-19 0 -34 13.5t-24 29t-26.5 29t-41.5 13.5q-49 0 -77 -48t-28 -117q0 -80 39 -130t113 -50q31 0 60.5 9t43.5 17l14 9l12 -29q-2 -4 -6.5 -10.5t-21 -23t-35.5 -29t-52 -23
t-69 -10.5q-100 0 -158.5 67t-58.5 160zM214 523l-121 169l38 25l109 -102l109 102l37 -25l-119 -169h-53z" />
    <glyph glyph-name="Dcaron" unicode="&#x10e;" horiz-adv-x="754" 
d="M48 -3v37q67 8 67 62v468q0 37 -12.5 49.5t-64.5 23.5v30h297q79 0 147 -18t122 -54t85 -96.5t31 -138.5q0 -111 -57 -194.5t-150 -124.5t-208 -41h-86zM244 52h61q131 0 199 72t68 207q0 129 -61.5 206.5t-174.5 77.5h-75l-12 -12v-495zM195 841l34 30l131 -71h10
l131 71l34 -30l-134 -124h-73z" />
    <glyph glyph-name="dcaron" unicode="&#x10f;" horiz-adv-x="557" 
d="M27 200q0 106 72.5 186.5t191.5 80.5l52 -4v136q0 25 -1.5 36.5t-8 20.5t-20.5 9h-37v32q71 14 121.5 27t65.5 18l15 6l3 -3q-10 -36 -10 -113v-532q0 -39 13 -48t43 -9h23l-3 -32l-205 -20l-2 2q7 30 7 55v16q-20 -33 -58 -54.5t-79 -21.5q-77 0 -130 61.5t-53 150.5z
M270 70q36 0 73 20v275q0 51 -49 51q-63 0 -98.5 -52.5t-35.5 -125.5q0 -65 28 -116.5t82 -51.5zM531 540l25 197l122 10v-33l-92 -174h-55z" />
    <glyph glyph-name="Dcroat" unicode="&#x110;" horiz-adv-x="754" 
d="M29 312v55h86v197q0 37 -12.5 49.5t-64.5 23.5v30h297q79 0 147 -18t122 -54t85 -96.5t31 -138.5q0 -111 -57 -194.5t-150 -124.5t-208 -41h-86l-171 -3v37q67 8 67 62v216h-86zM244 52h61q131 0 199 72t68 207q0 129 -61.5 206.5t-174.5 77.5h-75l-12 -12v-236h145v-55
h-145v-204z" />
    <glyph glyph-name="dcroat" unicode="&#x111;" horiz-adv-x="557" 
d="M207 528v55h136v16q0 25 -1.5 36.5t-8 20.5t-20.5 9h-37v32q71 14 121.5 27t65.5 18l15 6l3 -3q-10 -36 -10 -113v-49h75v-55h-75v-428q0 -39 13 -48t43 -9h23l-3 -32l-205 -20l-2 2q7 30 7 55v16q-20 -33 -58 -54.5t-79 -21.5q-77 0 -130 61.5t-53 150.5
q0 106 72.5 186.5t191.5 80.5l52 -4v65h-136zM270 70q36 0 73 20v275q0 51 -49 51q-63 0 -98.5 -52.5t-35.5 -125.5q0 -65 28 -116.5t82 -51.5z" />
    <glyph glyph-name="Emacron" unicode="&#x112;" horiz-adv-x="599" 
d="M48 -3v37q67 8 67 62v468q0 37 -12.5 49.5t-64.5 23.5v30h435l77 4l-31 -177h-39q4 74 -20 97.5t-88 23.5h-111l-12 -12v-237h167l8 58l42 6v-191h-52v75h-153l-12 -12v-194l-5 -56h139q64 0 87 19t61 99h39l-37 -170h-314zM175 757v74h288v-74h-288z" />
    <glyph glyph-name="emacron" unicode="&#x113;" horiz-adv-x="462" 
d="M27 219q0 104 65.5 176t162.5 72q74 0 125 -45t54 -133q-46 -16 -66 -19l-212 -32l-9 -12q9 -65 46.5 -106.5t108.5 -41.5q32 0 62 10t44 20l13 10l12 -29q-2 -4 -6.5 -11t-20.5 -24.5t-35 -30.5t-51 -24t-67 -11q-105 0 -165.5 68t-60.5 163zM107 578v74h258v-74h-258z
M234 419q-38 0 -62 -39t-27 -96l164 21q0 5 -0.5 12.5t-5 27t-12 34.5t-22.5 27.5t-35 12.5z" />
    <glyph glyph-name="Ebreve" unicode="&#x114;" horiz-adv-x="599" 
d="M48 -3v37q67 8 67 62v468q0 37 -12.5 49.5t-64.5 23.5v30h435l77 4l-31 -177h-39q4 74 -20 97.5t-88 23.5h-111l-12 -12v-237h167l8 58l42 6v-191h-52v75h-153l-12 -12v-194l-5 -56h139q64 0 87 19t61 99h39l-37 -170h-314zM319 715q-66 0 -106.5 34.5t-40.5 93.5
q0 14 3 31h46q0 -76 98 -76q97 0 97 76h47q2 -10 2 -28q0 -58 -40 -94.5t-106 -36.5z" />
    <glyph glyph-name="ebreve" unicode="&#x115;" horiz-adv-x="462" 
d="M27 219q0 104 65.5 176t162.5 72q74 0 125 -45t54 -133q-46 -16 -66 -19l-212 -32l-9 -12q9 -65 46.5 -106.5t108.5 -41.5q32 0 62 10t44 20l13 10l12 -29q-2 -4 -6.5 -11t-20.5 -24.5t-35 -30.5t-51 -24t-67 -11q-105 0 -165.5 68t-60.5 163zM236 541q-60 0 -99.5 35
t-39.5 89q0 21 5 39h45q-1 -8 -1 -12q0 -37 26 -54t64 -17q90 0 90 71l-1 12h45q5 -23 5 -39q0 -54 -39.5 -89t-99.5 -35zM234 419q-38 0 -62 -39t-27 -96l164 21q0 5 -0.5 12.5t-5 27t-12 34.5t-22.5 27.5t-35 12.5z" />
    <glyph glyph-name="Edotaccent" unicode="&#x116;" horiz-adv-x="599" 
d="M48 -3v37q67 8 67 62v468q0 37 -12.5 49.5t-64.5 23.5v30h435l77 4l-31 -177h-39q4 74 -20 97.5t-88 23.5h-111l-12 -12v-237h167l8 58l42 6v-191h-52v75h-153l-12 -12v-194l-5 -56h139q64 0 87 19t61 99h39l-37 -170h-314zM319 724q-32 0 -53 19.5t-21 50.5t21 51t53 20
t53 -20t21 -51t-21 -50.5t-53 -19.5z" />
    <glyph glyph-name="edotaccent" unicode="&#x117;" horiz-adv-x="462" 
d="M27 219q0 104 65.5 176t162.5 72q74 0 125 -45t54 -133q-46 -16 -66 -19l-212 -32l-9 -12q9 -65 46.5 -106.5t108.5 -41.5q32 0 62 10t44 20l13 10l12 -29q-2 -4 -6.5 -11t-20.5 -24.5t-35 -30.5t-51 -24t-67 -11q-105 0 -165.5 68t-60.5 163zM236 553q-32 0 -53 19.5
t-21 50.5t21 51t53 20t53 -20t21 -51t-21 -50.5t-53 -19.5zM234 419q-38 0 -62 -39t-27 -96l164 21q0 5 -0.5 12.5t-5 27t-12 34.5t-22.5 27.5t-35 12.5z" />
    <glyph glyph-name="Eogonek" unicode="&#x118;" horiz-adv-x="599" 
d="M48 -3v37q67 8 67 62v468q0 37 -12.5 49.5t-64.5 23.5v30h435l77 4l-31 -177h-39q4 74 -20 97.5t-88 23.5h-111l-12 -12v-237h167l8 58l42 6v-191h-52v75h-153l-12 -12v-194l-5 -56h139q64 0 87 19t61 99h39l-37 -170h-4q-29 -2 -63.5 -44t-34.5 -84q0 -27 18.5 -43.5
t41.5 -16.5l22 2l9 -34q-41 -17 -89 -17q-45 0 -75 23t-30 57q0 11 3 22t10.5 23t13.5 20t20 22.5l21 21.5t26 24l27 24h-230z" />
    <glyph glyph-name="eogonek" unicode="&#x119;" horiz-adv-x="462" 
d="M27 219q0 104 65.5 176t162.5 72q74 0 125 -45t54 -133q-46 -16 -66 -19l-212 -32l-9 -12q9 -65 46.5 -106.5t108.5 -41.5q32 0 62 10t44 20l13 10l12 -29q-23 -41 -70 -71q-32 -25 -65 -67t-33 -79q0 -27 18.5 -43.5t41.5 -16.5l22 2l9 -34q-42 -17 -89 -17
q-45 0 -75 23t-30 57q0 22 14.5 46t30 40t49.5 47q9 9 14 13q-6 -1 -17 -1q-105 0 -165.5 68t-60.5 163zM234 419q-38 0 -62 -39t-27 -96l164 21q0 5 -0.5 12.5t-5 27t-12 34.5t-22.5 27.5t-35 12.5z" />
    <glyph glyph-name="Ecaron" unicode="&#x11a;" horiz-adv-x="599" 
d="M48 -3v37q67 8 67 62v468q0 37 -12.5 49.5t-64.5 23.5v30h435l77 4l-31 -177h-39q4 74 -20 97.5t-88 23.5h-111l-12 -12v-237h167l8 58l42 6v-191h-52v75h-153l-12 -12v-194l-5 -56h139q64 0 87 19t61 99h39l-37 -170h-314zM149 841l34 30l131 -71h10l131 71l34 -30
l-134 -124h-73z" />
    <glyph glyph-name="ecaron" unicode="&#x11b;" horiz-adv-x="462" 
d="M27 219q0 104 65.5 176t162.5 72q74 0 125 -45t54 -133q-46 -16 -66 -19l-212 -32l-9 -12q9 -65 46.5 -106.5t108.5 -41.5q32 0 62 10t44 20l13 10l12 -29q-2 -4 -6.5 -11t-20.5 -24.5t-35 -30.5t-51 -24t-67 -11q-105 0 -165.5 68t-60.5 163zM210 522l-121 169l38 25
l109 -102l109 102l37 -25l-119 -169h-53zM234 419q-38 0 -62 -39t-27 -96l164 21q0 5 -0.5 12.5t-5 27t-12 34.5t-22.5 27.5t-35 12.5z" />
    <glyph glyph-name="Gcircumflex" unicode="&#x11c;" horiz-adv-x="717" 
d="M34 319q0 69 23.5 132.5t70 115t123 82t173.5 30.5q38 0 83 -4.5t90 -11t61 -7.5l-30 -162h-39q0 39 -15.5 67t-41.5 42t-53 20t-58 6q-116 0 -179 -82t-63 -204q0 -130 72.5 -214.5t191.5 -84.5q41 0 82 10v129q0 38 -14.5 51t-77.5 22v30h253l5 -19q-4 -2 -10.5 -7
t-17.5 -29.5t-11 -58.5v-158q-20 -1 -106 -13.5t-136 -12.5q-160 0 -268 88.5t-108 242.5zM219 747l134 124h73l133 -124l-34 -30l-131 71h-10l-131 -71z" />
    <glyph glyph-name="gcircumflex" unicode="&#x11d;" horiz-adv-x="497" 
d="M51 68q0 8 2.5 15.5t5.5 13.5t9.5 12.5t11.5 10.5t14 9.5t14.5 8.5t15.5 7t14 6t14 5.5t12 4.5q-59 14 -96 51t-37 95q0 74 59.5 117t143.5 43q33 0 75.5 -10t69.5 -10h48q14 0 30.5 3.5t26.5 6.5l9 3l-11 -78h-41l-35 3q4 -3 9.5 -8.5t15 -27t9.5 -46.5
q0 -69 -60.5 -109.5t-145.5 -40.5q-26 0 -48 3q-15 -17 -15 -34q0 -16 26.5 -24.5t79.5 -18.5q8 -1 12 -2q42 -8 69.5 -15.5t59.5 -22.5t48 -38.5t16 -55.5q0 -76 -82.5 -129t-178.5 -53q-75 0 -139.5 32t-64.5 86q0 22 11 40t31 31.5t38 22t43 17.5q-89 24 -89 76zM233 -30
q-7 2 -21 4.5t-25 5t-20 5.5q-41 -39 -41 -85q0 -41 33.5 -65.5t80.5 -24.5q48 0 90 23t42 60q0 12 -4 21t-14.5 16t-19.5 12t-29 10.5t-32.5 8.5t-39.5 9zM236 197q41 0 60 29.5t19 75.5q0 49 -21 85t-62 36q-39 0 -57.5 -32t-18.5 -81q0 -50 19.5 -81.5t60.5 -31.5z
M108 528l121 177h53l119 -177l-37 -25l-109 110l-109 -110z" />
    <glyph glyph-name="Gbreve" unicode="&#x11e;" horiz-adv-x="717" 
d="M34 319q0 69 23.5 132.5t70 115t123 82t173.5 30.5q38 0 83 -4.5t90 -11t61 -7.5l-30 -162h-39q0 39 -15.5 67t-41.5 42t-53 20t-58 6q-116 0 -179 -82t-63 -204q0 -130 72.5 -214.5t191.5 -84.5q41 0 82 10v129q0 38 -14.5 51t-77.5 22v30h253l5 -19q-4 -2 -10.5 -7
t-17.5 -29.5t-11 -58.5v-158q-20 -1 -106 -13.5t-136 -12.5q-160 0 -268 88.5t-108 242.5zM389 715q-66 0 -106.5 34.5t-40.5 93.5q0 14 3 31h46q0 -76 98 -76q97 0 97 76h47q2 -10 2 -28q0 -58 -40 -94.5t-106 -36.5z" />
    <glyph glyph-name="gbreve" unicode="&#x11f;" horiz-adv-x="497" 
d="M51 68q0 8 2.5 15.5t5.5 13.5t9.5 12.5t11.5 10.5t14 9.5t14.5 8.5t15.5 7t14 6t14 5.5t12 4.5q-59 14 -96 51t-37 95q0 74 59.5 117t143.5 43q33 0 75.5 -10t69.5 -10h48q14 0 30.5 3.5t26.5 6.5l9 3l-11 -78h-41l-35 3q4 -3 9.5 -8.5t15 -27t9.5 -46.5
q0 -69 -60.5 -109.5t-145.5 -40.5q-26 0 -48 3q-15 -17 -15 -34q0 -16 26.5 -24.5t79.5 -18.5q8 -1 12 -2q42 -8 69.5 -15.5t59.5 -22.5t48 -38.5t16 -55.5q0 -76 -82.5 -129t-178.5 -53q-75 0 -139.5 32t-64.5 86q0 22 11 40t31 31.5t38 22t43 17.5q-89 24 -89 76zM233 -30
q-7 2 -21 4.5t-25 5t-20 5.5q-41 -39 -41 -85q0 -41 33.5 -65.5t80.5 -24.5q48 0 90 23t42 60q0 12 -4 21t-14.5 16t-19.5 12t-29 10.5t-32.5 8.5t-39.5 9zM236 197q41 0 60 29.5t19 75.5q0 49 -21 85t-62 36q-39 0 -57.5 -32t-18.5 -81q0 -50 19.5 -81.5t60.5 -31.5z
M255 542q-60 0 -99.5 35t-39.5 89q0 22 5 39h45q-1 -8 -1 -12q0 -37 26 -54t64 -17q90 0 90 71l-1 12h45q5 -23 5 -39q0 -54 -39.5 -89t-99.5 -35z" />
    <glyph glyph-name="Gdotaccent" unicode="&#x120;" horiz-adv-x="717" 
d="M34 319q0 69 23.5 132.5t70 115t123 82t173.5 30.5q38 0 83 -4.5t90 -11t61 -7.5l-30 -162h-39q0 39 -15.5 67t-41.5 42t-53 20t-58 6q-116 0 -179 -82t-63 -204q0 -130 72.5 -214.5t191.5 -84.5q41 0 82 10v129q0 38 -14.5 51t-77.5 22v30h253l5 -19q-4 -2 -10.5 -7
t-17.5 -29.5t-11 -58.5v-158q-20 -1 -106 -13.5t-136 -12.5q-160 0 -268 88.5t-108 242.5zM389 724q-32 0 -53 19.5t-21 50.5t21 51t53 20t53 -20t21 -51t-21 -50.5t-53 -19.5z" />
    <glyph glyph-name="gdotaccent" unicode="&#x121;" horiz-adv-x="497" 
d="M51 68q0 8 2.5 15.5t5.5 13.5t9.5 12.5t11.5 10.5t14 9.5t14.5 8.5t15.5 7t14 6t14 5.5t12 4.5q-59 14 -96 51t-37 95q0 74 59.5 117t143.5 43q33 0 75.5 -10t69.5 -10h48q14 0 30.5 3.5t26.5 6.5l9 3l-11 -78h-41l-35 3q4 -3 9.5 -8.5t15 -27t9.5 -46.5
q0 -69 -60.5 -109.5t-145.5 -40.5q-26 0 -48 3q-15 -17 -15 -34q0 -16 26.5 -24.5t79.5 -18.5q8 -1 12 -2q42 -8 69.5 -15.5t59.5 -22.5t48 -38.5t16 -55.5q0 -76 -82.5 -129t-178.5 -53q-75 0 -139.5 32t-64.5 86q0 22 11 40t31 31.5t38 22t43 17.5q-89 24 -89 76zM233 -30
q-7 2 -21 4.5t-25 5t-20 5.5q-41 -39 -41 -85q0 -41 33.5 -65.5t80.5 -24.5q48 0 90 23t42 60q0 12 -4 21t-14.5 16t-19.5 12t-29 10.5t-32.5 8.5t-39.5 9zM236 197q41 0 60 29.5t19 75.5q0 49 -21 85t-62 36q-39 0 -57.5 -32t-18.5 -81q0 -50 19.5 -81.5t60.5 -31.5z
M255 554q-32 0 -53 19.5t-21 50.5t21 51t53 20t53 -20t21 -51t-21 -50.5t-53 -19.5z" />
    <glyph glyph-name="Gcommaaccent" unicode="&#x122;" horiz-adv-x="717" 
d="M34 319q0 69 23.5 132.5t70 115t123 82t173.5 30.5q38 0 83 -4.5t90 -11t61 -7.5l-30 -162h-39q0 39 -15.5 67t-41.5 42t-53 20t-58 6q-116 0 -179 -82t-63 -204q0 -130 72.5 -214.5t191.5 -84.5q41 0 82 10v129q0 38 -14.5 51t-77.5 22v30h253l5 -19q-4 -2 -10.5 -7
t-17.5 -29.5t-11 -58.5v-158q-20 -1 -106 -13.5t-136 -12.5q-160 0 -268 88.5t-108 242.5zM319 -65l10 22h116q21 -29 21 -63q0 -41 -39.5 -79.5t-97.5 -63.5l-24 33q59 32 59 66t-45 85z" />
    <glyph glyph-name="gcommaaccent" unicode="&#x123;" horiz-adv-x="497" 
d="M51 68q0 8 2.5 15.5t5.5 13.5t9.5 12.5t11.5 10.5t14 9.5t14.5 8.5t15.5 7t14 6t14 5.5t12 4.5q-59 14 -96 51t-37 95q0 74 59.5 117t143.5 43q33 0 75.5 -10t69.5 -10h48q14 0 30.5 3.5t26.5 6.5l9 3l-11 -78h-41l-35 3q4 -3 9.5 -8.5t15 -27t9.5 -46.5
q0 -69 -60.5 -109.5t-145.5 -40.5q-26 0 -48 3q-15 -17 -15 -34q0 -16 26.5 -24.5t79.5 -18.5q8 -1 12 -2q42 -8 69.5 -15.5t59.5 -22.5t48 -38.5t16 -55.5q0 -76 -82.5 -129t-178.5 -53q-75 0 -139.5 32t-64.5 86q0 22 11 40t31 31.5t38 22t43 17.5q-89 24 -89 76zM233 -30
q-7 2 -21 4.5t-25 5t-20 5.5q-41 -39 -41 -85q0 -41 33.5 -65.5t80.5 -24.5q48 0 90 23t42 60q0 12 -4 21t-14.5 16t-19.5 12t-29 10.5t-32.5 8.5t-39.5 9zM236 197q41 0 60 29.5t19 75.5q0 49 -21 85t-62 36q-39 0 -57.5 -32t-18.5 -81q0 -50 19.5 -81.5t60.5 -31.5z
M301 533l-10 -22h-116q-21 29 -21 63q0 41 39.5 79.5t97.5 63.5l24 -33q-59 -32 -59 -66t45 -85z" />
    <glyph glyph-name="Hcircumflex" unicode="&#x124;" horiz-adv-x="817" 
d="M47 -3v37q32 4 49.5 21t17.5 44v465q0 38 -10 50t-59 23v30h73l158 4l5 -4q-33 -43 -33 -126v-174h317l12 12v185q0 38 -10 50t-59 23v30h73l158 4l5 -4q-33 -43 -33 -126v-442l-5 -54l85 -9l-4 -33l-277 -6v37q31 4 49 20.5t18 41.5v216h-317l-12 -12v-201l-5 -54l85 -9
l-4 -33zM242 747l134 124h73l133 -124l-34 -30l-131 71h-10l-131 -71z" />
    <glyph glyph-name="hcircumflex" unicode="&#x125;" horiz-adv-x="581" 
d="M24 -3v34q57 7 57 65v503q0 25 -1.5 36.5t-8 20.5t-20.5 9h-37v32q71 14 121.5 27t65.5 18l15 6l3 -3q-10 -36 -10 -113v-174q0 -30 -2 -60t-2 -31q76 100 175 100q55 0 87 -33t32 -102v-236l-5 -53l80 -10l-4 -30l-244 -6v34q45 7 45 65v197q0 51 -12.5 68.5t-43.5 17.5
q-59 0 -106 -37v-246l-5 -54l63 -9l-4 -30zM14 758l-29 35l129 119h62l129 -119l-29 -35l-128 77h-6z" />
    <glyph glyph-name="Hbar" unicode="&#x126;" horiz-adv-x="817" 
d="M39 470v51h75v43q0 38 -10 50t-59 23v30h73l158 4l5 -4q-33 -43 -33 -126v-20h329v43q0 38 -10 50t-59 23v30h73l158 4l5 -4q-33 -43 -33 -126v-20h74v-51h-74v-371l-5 -54l85 -9l-4 -33l-277 -6v37q31 4 49 20.5t18 41.5v216h-317l-12 -12v-201l-5 -54l85 -9l-4 -33
l-277 -6v37q32 4 49.5 21t17.5 44v371h-75zM565 367l12 12v91h-329v-103h317z" />
    <glyph glyph-name="hbar" unicode="&#x127;" horiz-adv-x="581" 
d="M15 528v55h66v16q0 25 -1.5 36.5t-8 20.5t-20.5 9h-37v32q71 14 121.5 27t65.5 18l15 6l3 -3q-10 -36 -10 -113v-49h147v-55h-147v-70q0 -30 -2 -60t-2 -31q76 100 175 100q55 0 87 -33t32 -102v-236l-5 -53l80 -10l-4 -30l-244 -6v34q45 7 45 65v197q0 51 -12.5 68.5
t-43.5 17.5q-59 0 -106 -37v-246l-5 -54l63 -9l-4 -30l-239 -6v34q57 7 57 65v432h-66z" />
    <glyph glyph-name="Itilde" unicode="&#x128;" horiz-adv-x="354" 
d="M47 -3v37q32 4 49.5 21t17.5 44v465q0 38 -10 50t-59 23v30h73l158 4l5 -4q-33 -43 -33 -126v-442l-5 -54l85 -9l-4 -33zM34 731l-43 9q0 5 1 13t8 28t17.5 35.5t32 28.5t50.5 13q34 0 85.5 -26t74.5 -26q20 0 33.5 13t16.5 26l4 13l44 -5q0 -5 -1 -13t-7.5 -29
t-17.5 -37.5t-34.5 -29.5t-54.5 -13q-37 0 -85.5 26t-69.5 26q-19 0 -32.5 -13t-17.5 -26z" />
    <glyph glyph-name="itilde" unicode="&#x129;" horiz-adv-x="301" 
d="M32 -3v34q57 7 57 65v237q0 25 -1.5 36.5t-8 20.5t-20.5 9h-40v32q52 8 103 20.5t76 20.5l25 9l3 -3q-9 -33 -9 -114v-268l-5 -54l80 -9l-4 -30zM-15 557q-1 6 -1.5 15.5t2.5 33.5t11 43t29 34t52 15q30 0 54 -18t43 -36t36 -18q23 0 35 16t12 32l1 17h46q1 -6 1.5 -15.5
t-3 -34t-12 -43.5t-30 -34.5t-53.5 -15.5q-23 0 -43 11t-31.5 25t-26 25t-28.5 11q-24 0 -36 -16t-12 -32v-15h-46z" />
    <glyph glyph-name="Imacron" unicode="&#x12a;" horiz-adv-x="354" 
d="M47 -3v37q32 4 49.5 21t17.5 44v465q0 38 -10 50t-59 23v30h73l158 4l5 -4q-33 -43 -33 -126v-442l-5 -54l85 -9l-4 -33zM30 757v74h288v-74h-288z" />
    <glyph glyph-name="imacron" unicode="&#x12b;" horiz-adv-x="301" 
d="M31 -3v34q57 7 57 65v237q0 25 -1.5 36.5t-8 20.5t-20.5 9h-40v32q52 8 103 20.5t76 20.5l25 9l3 -3q-9 -33 -9 -114v-268l-5 -54l80 -9l-4 -30zM14 579v74h258v-74h-258z" />
    <glyph glyph-name="Ibreve" unicode="&#x12c;" horiz-adv-x="354" 
d="M47 -3v37q32 4 49.5 21t17.5 44v465q0 38 -10 50t-59 23v30h73l158 4l5 -4q-33 -43 -33 -126v-442l-5 -54l85 -9l-4 -33zM174 715q-66 0 -106.5 34.5t-40.5 93.5q0 14 3 31h46q0 -76 98 -76q97 0 97 76h47q2 -10 2 -28q0 -58 -40 -94.5t-106 -36.5z" />
    <glyph glyph-name="ibreve" unicode="&#x12d;" horiz-adv-x="301" 
d="M31 -3v34q57 7 57 65v237q0 25 -1.5 36.5t-8 20.5t-20.5 9h-40v32q52 8 103 20.5t76 20.5l25 9l3 -3q-9 -33 -9 -114v-268l-5 -54l80 -9l-4 -30zM143 542q-60 0 -99.5 35t-39.5 89q0 22 5 39h45q-1 -8 -1 -12q0 -37 26 -54t64 -17q90 0 90 71l-1 12h45q5 -23 5 -39
q0 -54 -39.5 -89t-99.5 -35z" />
    <glyph glyph-name="Iogonek" unicode="&#x12e;" horiz-adv-x="354" 
d="M47 -3v37q32 4 49.5 21t17.5 44v465q0 38 -10 50t-59 23v30h73l158 4l5 -4q-33 -43 -33 -126v-442l-5 -54l85 -9l-4 -33l-53 -1q-29 -2 -65 -45t-36 -85q0 -27 18.5 -43.5t41.5 -16.5l22 2l9 -34q-41 -17 -89 -17q-45 0 -75 23t-30 57q0 11 3 22t10.5 23t13.5 20t20 22.5
l21 21.5t26 24l27 24z" />
    <glyph glyph-name="iogonek" unicode="&#x12f;" horiz-adv-x="301" 
d="M31 -3v34q57 7 57 65v237q0 25 -1.5 36.5t-8 20.5t-20.5 9h-40v32q52 8 103 20.5t76 20.5l25 9l3 -3q-9 -33 -9 -114v-268l-5 -54l80 -9l-4 -30l-45 -1q-29 -2 -65 -45t-36 -85q0 -27 18.5 -43.5t41.5 -16.5l22 2l9 -34q-41 -17 -89 -17q-45 0 -75 23t-30 57q0 11 3 22
t10.5 23t13.5 20t20 22.5l21 21.5t26 24l27 24zM143 554q-32 0 -53 19.5t-21 50.5t21 51t53 20t53 -20t21 -51t-21 -50.5t-53 -19.5z" />
    <glyph glyph-name="Idotaccent" unicode="&#x130;" horiz-adv-x="354" 
d="M47 -3v37q32 4 49.5 21t17.5 44v465q0 38 -10 50t-59 23v30h73l158 4l5 -4q-33 -43 -33 -126v-442l-5 -54l85 -9l-4 -33zM174 724q-32 0 -53 19.5t-21 50.5t21 51t53 20t53 -20t21 -51t-21 -50.5t-53 -19.5z" />
    <glyph glyph-name="dotlessi" unicode="&#x131;" horiz-adv-x="301" 
d="M31 -3v34q57 7 57 65v237q0 25 -1.5 36.5t-8 20.5t-20.5 9h-40v32q52 8 103 20.5t76 20.5l25 9l3 -3q-9 -33 -9 -114v-268l-5 -54l80 -9l-4 -30z" />
    <glyph glyph-name="IJ" unicode="&#x132;" horiz-adv-x="676" 
d="M47 -3v37q32 4 49.5 21t17.5 44v465q0 38 -10 50t-59 23v30h73l158 4l5 -4q-33 -43 -33 -126v-442l-5 -54l85 -9l-4 -33zM451 70v494q0 38 -10 50t-59 23v30h73l158 4l5 -4q-33 -38 -33 -121v-399q0 -144 -61 -227t-169 -83l-12 29q43 6 75.5 64.5t32.5 139.5z" />
    <glyph glyph-name="ij" unicode="&#x133;" horiz-adv-x="574" 
d="M31 -3v34q57 7 57 65v237q0 25 -1.5 36.5t-8 20.5t-20.5 9h-40v32q52 8 103 20.5t76 20.5l25 9l3 -3q-9 -33 -9 -114v-268l-5 -54l80 -9l-4 -30zM143 554q-32 0 -53 19.5t-21 50.5t21 51t53 20t53 -20t21 -51t-21 -50.5t-53 -19.5zM378 -19v352q0 25 -1.5 36.5t-8 20.5
t-20.5 9h-40v32q52 8 103 20.5t76 20.5l25 9l3 -3q-9 -33 -9 -114v-316q0 -141 -58.5 -213t-165.5 -72l-12 29q43 6 75.5 60.5t32.5 128.5zM433 554q-32 0 -53 19.5t-21 50.5t21 51t53 20t53 -20t21 -51t-21 -50.5t-53 -19.5z" />
    <glyph glyph-name="Jcircumflex" unicode="&#x134;" horiz-adv-x="330" 
d="M105 70v494q0 38 -10 50t-59 23v30h73l158 4l5 -4q-33 -38 -33 -121v-399q0 -144 -61 -227t-169 -83l-12 29q43 6 75.5 64.5t32.5 139.5zM2 747l134 124h73l133 -124l-34 -30l-131 71h-10l-131 -71z" />
    <glyph glyph-name="jcircumflex" unicode="&#x135;" horiz-adv-x="277" 
d="M81 -19v352q0 25 -1.5 36.5t-8 20.5t-20.5 9h-40v32q52 8 103 20.5t76 20.5l25 9l3 -3q-9 -33 -9 -114v-316q0 -141 -58.5 -213t-165.5 -72l-12 29q43 6 75.5 60.5t32.5 128.5zM-8 528l121 177h53l119 -177l-37 -25l-109 110l-109 -110z" />
    <glyph glyph-name="Kcommaaccent" unicode="&#x136;" horiz-adv-x="683" 
d="M47 -3v37q31 4 49 20.5t18 41.5v468q0 38 -10 50t-59 23v30h73l158 4l5 -4q-33 -38 -33 -121v-176h18q29 18 48 38l174 180q17 14 11 29t-43 20v30h200l6 -19q-62 -20 -107 -67l-171 -178v-17l225 -291q28 -36 41 -45.5t33 -11.5l11 -1l-4 -37h-192l-4 4q-7 31 -65 105
l-161 208h-20v-221l-5 -51l85 -9l-4 -33zM284 -65l10 22h116q21 -29 21 -63q0 -41 -39.5 -79.5t-97.5 -63.5l-24 33q59 32 59 66t-45 85z" />
    <glyph glyph-name="kcommaaccent" unicode="&#x137;" horiz-adv-x="556" 
d="M24 -3v34q57 7 57 65v503q0 25 -1.5 36.5t-8 20.5t-20.5 9h-37v32q71 14 121.5 27t65.5 18l15 6l3 -3q-10 -36 -10 -113v-361h17l98 86q36 33 36 46q0 15 -31 22v30h193l5 -16q-70 -23 -105 -55l-94 -84v-14q7 -11 13 -18l137 -178q26 -33 40.5 -42.5t34.5 -11.5l11 -1
l-4 -35l-182 -3q-10 37 -34 69l-118 161h-17v-131l-5 -54l70 -9l-4 -30zM219 -65l10 22h116q21 -29 21 -63q0 -41 -39.5 -79.5t-97.5 -63.5l-24 33q59 32 59 66t-45 85z" />
    <glyph glyph-name="kgreenlandic" unicode="&#x138;" horiz-adv-x="558" 
d="M31 -3v34q57 7 57 65v237q0 25 -1.5 36.5t-8 20.5t-20.5 9h-40v32q52 8 103 20.5t76 20.5l25 9l3 -3q-9 -33 -9 -114v-113h20l117 106q36 33 36 46q0 15 -31 22v30h183l5 -16q-62 -25 -95 -55l-117 -107v-14q7 -11 13 -18l123 -155q26 -33 40.5 -42.5t34.5 -11.5l11 -1
l-4 -35l-182 -3q-10 37 -34 69l-106 141h-14v-111l-5 -54l60 -9l-4 -30z" />
    <glyph glyph-name="Lacute" unicode="&#x139;" horiz-adv-x="576" 
d="M47 -3v37q67 8 67 62v468q0 38 -10 50t-59 23v30h73l158 4l5 -4q-33 -43 -33 -126v-433l-5 -56h144q57 0 84.5 27.5t68.5 110.5h39l-42 -190h-319zM75 758l192 113h5l43 -71v-29l-221 -54z" />
    <glyph glyph-name="lacute" unicode="&#x13a;" horiz-adv-x="295" 
d="M25 802l192 113h5l43 -71v-29l-221 -54zM24 -3v34q57 7 57 65v503q0 25 -1.5 36.5t-8 20.5t-20.5 9h-37v32q71 14 121.5 27t65.5 18l15 6l3 -3q-10 -36 -10 -113v-536l-5 -54l80 -9l-4 -30z" />
    <glyph glyph-name="Lcommaaccent" unicode="&#x13b;" horiz-adv-x="576" 
d="M47 -3v37q67 8 67 62v468q0 38 -10 50t-59 23v30h73l158 4l5 -4q-33 -43 -33 -126v-433l-5 -56h144q57 0 84.5 27.5t68.5 110.5h39l-42 -190h-319zM240 -65l10 22h116q21 -29 21 -63q0 -41 -39.5 -79.5t-97.5 -63.5l-24 33q59 32 59 66t-45 85z" />
    <glyph glyph-name="lcommaaccent" unicode="&#x13c;" horiz-adv-x="295" 
d="M24 -3v34q57 7 57 65v503q0 25 -1.5 36.5t-8 20.5t-20.5 9h-37v32q71 14 121.5 27t65.5 18l15 6l3 -3q-10 -36 -10 -113v-536l-5 -54l80 -9l-4 -30zM75 -65l10 22h116q21 -29 21 -63q0 -41 -39.5 -79.5t-97.5 -63.5l-24 33q59 32 59 66t-45 85z" />
    <glyph glyph-name="Lcaron" unicode="&#x13d;" horiz-adv-x="576" 
d="M47 -3v37q67 8 67 62v468q0 38 -10 50t-59 23v30h73l158 4l5 -4q-33 -43 -33 -126v-433l-5 -56h144q57 0 84.5 27.5t68.5 110.5h39l-42 -190h-319zM338 542l25 197l122 10v-33l-92 -174h-55z" />
    <glyph glyph-name="lcaron" unicode="&#x13e;" horiz-adv-x="295" 
d="M24 -3v34q57 7 57 65v503q0 25 -1.5 36.5t-8 20.5t-20.5 9h-37v32q71 14 121.5 27t65.5 18l15 6l3 -3q-10 -36 -10 -113v-536l-5 -54l80 -9l-4 -30zM266 542l25 197l122 10v-33l-92 -174h-55z" />
    <glyph glyph-name="Ldot" unicode="&#x13f;" horiz-adv-x="576" 
d="M47 -3v37q67 8 67 62v468q0 38 -10 50t-59 23v30h73l158 4l5 -4q-33 -43 -33 -126v-433l-5 -56h144q57 0 84.5 27.5t68.5 110.5h39l-42 -190h-319zM461 283q-31 0 -54 22.5t-23 54.5t22.5 55t54.5 23t55 -23t23 -55t-23 -54.5t-55 -22.5z" />
    <glyph glyph-name="ldot" unicode="&#x140;" horiz-adv-x="421" 
d="M24 -3v34q57 7 57 65v503q0 25 -1.5 36.5t-8 20.5t-20.5 9h-37v32q71 14 121.5 27t65.5 18l15 6l3 -3q-10 -36 -10 -113v-536l-5 -54l80 -9l-4 -30zM353 283q-31 0 -54 22.5t-23 54.5t22.5 55t54.5 23t55 -23t23 -55t-23 -54.5t-55 -22.5z" />
    <glyph glyph-name="Lslash" unicode="&#x141;" horiz-adv-x="587" 
d="M37 219v61l86 58v226q0 38 -10 50t-59 23v30h73l158 4l5 -4q-33 -43 -33 -126v-116l135 93v-61l-135 -92v-257l-5 -56h144q57 0 84.5 27.5t68.5 110.5h39l-42 -190h-319l-171 -3v37q67 8 67 62v182z" />
    <glyph glyph-name="lslash" unicode="&#x142;" horiz-adv-x="323" 
d="M27 216v60l70 51v272q0 25 -1.5 36.5t-8 20.5t-20.5 9h-37v32q71 14 121.5 27t65.5 18l15 6l3 -3q-10 -36 -10 -113v-217l70 52v-60l-70 -52v-259l-5 -54l80 -9l-4 -30l-256 -6v34q57 7 57 65v170z" />
    <glyph glyph-name="Nacute" unicode="&#x143;" horiz-adv-x="785" 
d="M47 -3v37q72 8 72 62v430q0 49 -16 72t-65 39v30h29l131 4q12 -24 39 -52l350 -369q19 -20 41 -48v356q0 20 -1.5 30t-9 21t-24.5 16.5t-46 8.5v33h202l5 -19l-7.5 -2.5t-16.5 -9t-21 -18t-16.5 -29.5t-7.5 -42v-552h-42l-426 456q-19 19 -41 49v-404l-5 -54l90 -6
l-4 -33zM296 758l192 113h5l43 -71v-29l-221 -54z" />
    <glyph glyph-name="nacute" unicode="&#x144;" horiz-adv-x="588" 
d="M31 -3v34q57 7 57 65v237q0 25 -1.5 36.5t-8 20.5t-20.5 9h-40v32q52 8 102.5 20.5t75.5 20.5l24 9l3 -3q-9 -22 -14 -111q76 100 178 100q55 0 87 -33t32 -102v-236l-5 -53l80 -10l-4 -30l-244 -6v34q45 7 45 65v197q0 51 -12.5 68.5t-43.5 17.5q-59 0 -106 -37v-246
l-5 -53l63 -10l-4 -30zM285 507l-40 21l76 171l121 11v-27z" />
    <glyph glyph-name="Ncommaaccent" unicode="&#x145;" horiz-adv-x="785" 
d="M47 -3v37q72 8 72 62v430q0 49 -16 72t-65 39v30h29l131 4q12 -24 39 -52l350 -369q19 -20 41 -48v356q0 20 -1.5 30t-9 21t-24.5 16.5t-46 8.5v33h202l5 -19l-7.5 -2.5t-16.5 -9t-21 -18t-16.5 -29.5t-7.5 -42v-552h-42l-426 456q-19 19 -41 49v-404l-5 -54l90 -6
l-4 -33zM332 -65l10 22h116q21 -29 21 -63q0 -41 -39.5 -79.5t-97.5 -63.5l-24 33q59 32 59 66t-45 85z" />
    <glyph glyph-name="ncommaaccent" unicode="&#x146;" horiz-adv-x="588" 
d="M31 -3v34q57 7 57 65v237q0 25 -1.5 36.5t-8 20.5t-20.5 9h-40v32q52 8 102.5 20.5t75.5 20.5l24 9l3 -3q-9 -22 -14 -111q76 100 178 100q55 0 87 -33t32 -102v-236l-5 -53l80 -10l-4 -30l-244 -6v34q45 7 45 65v197q0 51 -12.5 68.5t-43.5 17.5q-59 0 -106 -37v-246
l-5 -53l63 -10l-4 -30zM227 -65l10 22h116q21 -29 21 -63q0 -41 -39.5 -79.5t-97.5 -63.5l-24 33q59 32 59 66t-45 85z" />
    <glyph glyph-name="Ncaron" unicode="&#x147;" horiz-adv-x="785" 
d="M47 -3v37q72 8 72 62v430q0 49 -16 72t-65 39v30h29l131 4q12 -24 39 -52l350 -369q19 -20 41 -48v356q0 20 -1.5 30t-9 21t-24.5 16.5t-46 8.5v33h202l5 -19l-7.5 -2.5t-16.5 -9t-21 -18t-16.5 -29.5t-7.5 -42v-552h-42l-426 456q-19 19 -41 49v-404l-5 -54l90 -6
l-4 -33zM232 841l34 30l131 -71h10l131 71l34 -30l-134 -124h-73z" />
    <glyph glyph-name="ncaron" unicode="&#x148;" horiz-adv-x="588" 
d="M31 -3v34q57 7 57 65v237q0 25 -1.5 36.5t-8 20.5t-20.5 9h-40v32q52 8 102.5 20.5t75.5 20.5l24 9l3 -3q-9 -22 -14 -111q76 100 178 100q55 0 87 -33t32 -102v-236l-5 -53l80 -10l-4 -30l-244 -6v34q45 7 45 65v197q0 51 -12.5 68.5t-43.5 17.5q-59 0 -106 -37v-246
l-5 -53l63 -10l-4 -30zM271 523l-121 169l38 25l109 -102l109 102l37 -25l-119 -169h-53z" />
    <glyph glyph-name="napostrophe" unicode="&#x149;" horiz-adv-x="588" 
d="M31 -3v34q57 7 57 65v237q0 25 -1.5 36.5t-8 20.5t-20.5 9h-40v32q52 8 102.5 20.5t75.5 20.5l24 9l3 -3q-9 -22 -14 -111q76 100 178 100q55 0 87 -33t32 -102v-236l-5 -53l80 -10l-4 -30l-244 -6v34q45 7 45 65v197q0 51 -12.5 68.5t-43.5 17.5q-59 0 -106 -37v-246
l-5 -53l63 -10l-4 -30zM36 716l10 22h116q21 -29 21 -63q0 -41 -39.5 -79.5t-97.5 -63.5l-24 33q59 32 59 66t-45 85z" />
    <glyph glyph-name="Eng" unicode="&#x14a;" horiz-adv-x="785" 
d="M685 547v-476q0 -39 -5 -78.5t-16.5 -81t-35.5 -67.5t-57 -26q-24 0 -37.5 14t-13.5 33q0 30 37 47l10 4q10 4 13.5 6l13 7.5t13.5 11l10 14t8.5 20t2.5 24.5v12l-411 440q-19 19 -41 49v-404l-5 -54l90 -6l-4 -33l-210 -6v37q72 8 72 62v430q0 49 -16 72t-65 39v30h29
l131 4q12 -24 39 -52l350 -369q19 -20 41 -48v356q0 20 -1.5 30t-9 21t-24.5 16.5t-46 8.5v33h202l5 -19l-7.5 -2.5t-16.5 -9t-21 -18t-16.5 -29.5t-7.5 -42z" />
    <glyph glyph-name="eng" unicode="&#x14b;" horiz-adv-x="567" 
d="M31 -3v34q57 7 57 65v237q0 25 -1.5 36.5t-8 20.5t-20.5 9h-40v32q52 8 102.5 20.5t75.5 20.5l24 9l3 -3q-9 -22 -14 -111q76 100 178 100q55 0 87 -33t32 -102v-254q0 -59 -12.5 -108t-32 -81t-43.5 -56.5t-48 -37t-43.5 -20.5t-32.5 -10l-12 -2l-12 29l11.5 6t26 21.5
t33 39.5t26 63t11.5 89v282q0 51 -12.5 68.5t-43.5 17.5q-59 0 -106 -37v-246l-5 -53l63 -10l-4 -30z" />
    <glyph glyph-name="Omacron" unicode="&#x14c;" horiz-adv-x="800" 
d="M182 352q0 -123 62 -218.5t165 -95.5q98 0 153 86t55 206q0 77 -23.5 143t-76 111t-123.5 45q-101 0 -156.5 -81t-55.5 -196zM35 323q0 67 24.5 130t70.5 114t120.5 81.5t165.5 30.5q87 0 155.5 -27.5t110 -73.5t63 -102.5t21.5 -118.5q0 -68 -25.5 -133t-72 -118
t-120.5 -85.5t-164 -32.5q-111 0 -192.5 49.5t-119 124t-37.5 161.5zM256 757v74h288v-74h-288z" />
    <glyph glyph-name="omacron" unicode="&#x14d;" horiz-adv-x="546" 
d="M27 218q0 63 24.5 117.5t83.5 93t143 38.5q111 0 176 -61.5t65 -160.5q0 -103 -67 -180t-187 -77q-108 0 -173 64t-65 166zM165 244q0 -52 11.5 -98.5t38.5 -80t66 -33.5q30 0 51 19.5t31 51t14 62.5t3 61q-1 78 -29.5 137.5t-83.5 59.5q-50 0 -76 -51.5t-26 -127.5z
M144 579v74h258v-74h-258z" />
    <glyph glyph-name="Obreve" unicode="&#x14e;" horiz-adv-x="800" 
d="M182 352q0 -123 62 -218.5t165 -95.5q98 0 153 86t55 206q0 77 -23.5 143t-76 111t-123.5 45q-101 0 -156.5 -81t-55.5 -196zM35 323q0 67 24.5 130t70.5 114t120.5 81.5t165.5 30.5q87 0 155.5 -27.5t110 -73.5t63 -102.5t21.5 -118.5q0 -68 -25.5 -133t-72 -118
t-120.5 -85.5t-164 -32.5q-111 0 -192.5 49.5t-119 124t-37.5 161.5zM400 715q-66 0 -106.5 34.5t-40.5 93.5q0 14 3 31h46q0 -76 98 -76q97 0 97 76h47q2 -10 2 -28q0 -58 -40 -94.5t-106 -36.5z" />
    <glyph glyph-name="obreve" unicode="&#x14f;" horiz-adv-x="546" 
d="M27 218q0 63 24.5 117.5t83.5 93t143 38.5q111 0 176 -61.5t65 -160.5q0 -103 -67 -180t-187 -77q-108 0 -173 64t-65 166zM165 244q0 -52 11.5 -98.5t38.5 -80t66 -33.5q30 0 51 19.5t31 51t14 62.5t3 61q-1 78 -29.5 137.5t-83.5 59.5q-50 0 -76 -51.5t-26 -127.5z
M273 542q-60 0 -99.5 35t-39.5 89q0 22 5 39h45q-1 -8 -1 -12q0 -37 26 -54t64 -17q90 0 90 71l-1 12h45q5 -23 5 -39q0 -54 -39.5 -89t-99.5 -35z" />
    <glyph glyph-name="Ohungarumlaut" unicode="&#x150;" horiz-adv-x="800" 
d="M182 352q0 -123 62 -218.5t165 -95.5q98 0 153 86t55 206q0 77 -23.5 143t-76 111t-123.5 45q-101 0 -156.5 -81t-55.5 -196zM35 323q0 67 24.5 130t70.5 114t120.5 81.5t165.5 30.5q87 0 155.5 -27.5t110 -73.5t63 -102.5t21.5 -118.5q0 -68 -25.5 -133t-72 -118
t-120.5 -85.5t-164 -32.5q-111 0 -192.5 49.5t-119 124t-37.5 161.5zM310 718l-38 24l55 123l122 9v-27zM487 718l-38 24l65 123l122 9v-27z" />
    <glyph glyph-name="ohungarumlaut" unicode="&#x151;" horiz-adv-x="546" 
d="M27 218q0 63 24.5 117.5t83.5 93t143 38.5q111 0 176 -61.5t65 -160.5q0 -103 -67 -180t-187 -77q-108 0 -173 64t-65 166zM165 244q0 -52 11.5 -98.5t38.5 -80t66 -33.5q30 0 51 19.5t31 51t14 62.5t3 61q-1 78 -29.5 137.5t-83.5 59.5q-50 0 -76 -51.5t-26 -127.5z
M191 507l-39 21l72 171l104 11v-27zM350 507l-40 21l73 171l104 11v-27z" />
    <glyph glyph-name="OE" unicode="&#x152;" horiz-adv-x="1004" 
d="M35 322q0 91 42 171t128.5 133t200.5 53q33 0 93 -6t76 -6h303l77 4l-31 -177h-39q4 74 -20 97.5t-88 23.5h-111l-12 -12v-237h167l8 58l42 6v-191h-52v75h-153l-12 -12v-194l-5 -56h139q64 0 87 19t61 99h39l-37 -170h-336q-20 0 -105.5 -6t-117.5 -6
q-159 0 -251.5 99.5t-92.5 234.5zM182 354q0 -80 24.5 -150t80 -118.5t132.5 -48.5q12 0 24.5 1.5t32 6.5t32 18t12.5 32v454q0 82 -108 82q-114 0 -172 -79.5t-58 -197.5z" />
    <glyph glyph-name="oe" unicode="&#x153;" horiz-adv-x="817" 
d="M27 218q0 63 24.5 117.5t83.5 93t143 38.5q113 0 171 -81q64 81 161 81q74 0 125 -45t54 -133q-46 -16 -66 -19l-212 -32l-9 -13q8 -64 46 -105.5t109 -41.5q32 0 61.5 10t43.5 20l14 10l12 -29q-2 -4 -6.5 -11t-21.5 -24.5t-37 -30.5t-53.5 -24t-71.5 -11
q-102 0 -156 89q-64 -89 -177 -89q-108 0 -173 64t-65 166zM165 244q0 -52 11.5 -98.5t38.5 -80t66 -33.5q30 0 51 19.5t31 51.5t13.5 62t3.5 61q-2 78 -30 137.5t-83 59.5q-50 0 -76 -51.5t-26 -127.5zM589 419q-39 0 -61.5 -38.5t-26.5 -96.5l163 21q0 5 -0.5 12.5t-5 27
t-12 34.5t-22.5 27.5t-35 12.5z" />
    <glyph glyph-name="Racute" unicode="&#x154;" horiz-adv-x="660" 
d="M48 -3v37q31 4 49 20.5t18 41.5v468q0 37 -12.5 49.5t-64.5 23.5v30h283q124 0 184 -46t60 -115q0 -96 -123 -172v-17l145 -218q18 -27 33.5 -41t22.5 -16.5t20 -3.5l11 -1l-4 -37h-192l-4 4q-13 43 -57 109l-113 171h-43l-12 -12v-176l-5 -51l90 -9l-4 -33zM249 336h73
q37 0 66.5 37t29.5 102q0 64 -32.5 102t-99.5 38h-25l-12 -12v-267zM208 758l192 113h5l43 -71v-29l-221 -54z" />
    <glyph glyph-name="racute" unicode="&#x155;" horiz-adv-x="412" 
d="M31 -3v34q57 7 57 65v236q0 25 -1.5 36.5t-8 20.5t-20.5 9h-40v32q52 8 102.5 21t75.5 21l24 9l3 -3q-9 -22 -14 -122l7.5 12t19.5 26.5t31 34t39 26.5t45 12q30 0 46 -17.5t16 -42.5q0 -26 -17.5 -45t-46.5 -19q-17 0 -33.5 10t-28.5 10q-14 0 -32 -8t-29 -16l-10 -8
v-235l-5 -54l90 -9l-4 -30zM203 507l-40 21l76 171l121 11v-27z" />
    <glyph glyph-name="Rcommaaccent" unicode="&#x156;" horiz-adv-x="660" 
d="M48 -3v37q31 4 49 20.5t18 41.5v468q0 37 -12.5 49.5t-64.5 23.5v30h283q124 0 184 -46t60 -115q0 -96 -123 -172v-17l145 -218q18 -27 33.5 -41t22.5 -16.5t20 -3.5l11 -1l-4 -37h-192l-4 4q-13 43 -57 109l-113 171h-43l-12 -12v-176l-5 -51l90 -9l-4 -33zM249 336h73
q37 0 66.5 37t29.5 102q0 64 -32.5 102t-99.5 38h-25l-12 -12v-267zM287 -65l10 22h116q21 -29 21 -63q0 -41 -39.5 -79.5t-97.5 -63.5l-24 33q59 32 59 66t-45 85z" />
    <glyph glyph-name="rcommaaccent" unicode="&#x157;" horiz-adv-x="412" 
d="M31 -3v34q57 7 57 65v236q0 25 -1.5 36.5t-8 20.5t-20.5 9h-40v32q52 8 102.5 21t75.5 21l24 9l3 -3q-9 -22 -14 -122l7.5 12t19.5 26.5t31 34t39 26.5t45 12q30 0 46 -17.5t16 -42.5q0 -26 -17.5 -45t-46.5 -19q-17 0 -33.5 10t-28.5 10q-14 0 -32 -8t-29 -16l-10 -8
v-235l-5 -54l90 -9l-4 -30zM82 -65l10 22h116q21 -29 21 -63q0 -41 -39.5 -79.5t-97.5 -63.5l-24 33q59 32 59 66t-45 85z" />
    <glyph glyph-name="Rcaron" unicode="&#x158;" horiz-adv-x="660" 
d="M48 -3v37q31 4 49 20.5t18 41.5v468q0 37 -12.5 49.5t-64.5 23.5v30h283q124 0 184 -46t60 -115q0 -96 -123 -172v-17l145 -218q18 -27 33.5 -41t22.5 -16.5t20 -3.5l11 -1l-4 -37h-192l-4 4q-13 43 -57 109l-113 171h-43l-12 -12v-176l-5 -51l90 -9l-4 -33zM249 336h73
q37 0 66.5 37t29.5 102q0 64 -32.5 102t-99.5 38h-25l-12 -12v-267zM144 841l34 30l131 -71h10l131 71l34 -30l-134 -124h-73z" />
    <glyph glyph-name="rcaron" unicode="&#x159;" horiz-adv-x="412" 
d="M31 -3v34q57 7 57 65v236q0 25 -1.5 36.5t-8 20.5t-20.5 9h-40v32q52 8 102.5 21t75.5 21l24 9l3 -3q-9 -22 -14 -122l7.5 12t19.5 26.5t31 34t39 26.5t45 12q30 0 46 -17.5t16 -42.5q0 -26 -17.5 -45t-46.5 -19q-17 0 -33.5 10t-28.5 10q-14 0 -32 -8t-29 -16l-10 -8
v-235l-5 -54l90 -9l-4 -30zM189 523l-121 169l38 25l109 -102l109 102l37 -25l-119 -169h-53z" />
    <glyph glyph-name="Sacute" unicode="&#x15a;" horiz-adv-x="517" 
d="M38 90q0 24 30 111h39q0 -47 13.5 -80.5t36 -50.5t46 -24.5t49.5 -7.5q45 0 77 22.5t32 65.5q0 36 -23 66.5t-57 50l-74.5 44t-74.5 49t-57 64.5t-23 90q0 84 61 136.5t174 52.5q51 0 179 -19l-33 -166h-39q4 135 -115 135q-50 0 -79.5 -23.5t-29.5 -63.5q0 -43 32 -76
t77 -57l90.5 -50.5t77.5 -72t32 -106.5q0 -93 -65.5 -142.5t-166.5 -49.5q-49 0 -94 9.5t-79.5 33.5t-35.5 59zM171 758l192 113h5l43 -71v-29l-221 -54z" />
    <glyph glyph-name="sacute" unicode="&#x15b;" horiz-adv-x="392" 
d="M30 58q0 11 4.5 31.5t9.5 36.5l4 15h33q5 -58 37 -84.5t72 -26.5q28 0 45.5 14.5t17.5 40.5q0 27 -22 47.5t-53 36t-62 33t-53 49t-22 74.5q0 66 47.5 104t122.5 38q26 0 60.5 -4.5t56.5 -9.5l21 -5l-23 -113h-34q-3 51 -27.5 70.5t-53.5 19.5q-27 0 -43 -14.5t-16 -39.5
q0 -23 15.5 -41.5t39 -29.5t51 -26t51 -30.5t39 -44t15.5 -65.5q0 -71 -49.5 -108.5t-127.5 -37.5q-34 0 -67.5 6.5t-61 23t-27.5 40.5zM190 507l-40 21l76 171l121 11v-27z" />
    <glyph glyph-name="Scircumflex" unicode="&#x15c;" horiz-adv-x="517" 
d="M38 90q0 24 30 111h39q0 -47 13.5 -80.5t36 -50.5t46 -24.5t49.5 -7.5q45 0 77 22.5t32 65.5q0 36 -23 66.5t-57 50l-74.5 44t-74.5 49t-57 64.5t-23 90q0 84 61 136.5t174 52.5q51 0 179 -19l-33 -166h-39q4 135 -115 135q-50 0 -79.5 -23.5t-29.5 -63.5q0 -43 32 -76
t77 -57l90.5 -50.5t77.5 -72t32 -106.5q0 -93 -65.5 -142.5t-166.5 -49.5q-49 0 -94 9.5t-79.5 33.5t-35.5 59zM107 747l134 124h73l133 -124l-34 -30l-131 71h-10l-131 -71z" />
    <glyph glyph-name="scircumflex" unicode="&#x15d;" horiz-adv-x="392" 
d="M30 58q0 11 4.5 31.5t9.5 36.5l4 15h33q5 -58 37 -84.5t72 -26.5q28 0 45.5 14.5t17.5 40.5q0 27 -22 47.5t-53 36t-62 33t-53 49t-22 74.5q0 66 47.5 104t122.5 38q26 0 60.5 -4.5t56.5 -9.5l21 -5l-23 -113h-34q-3 51 -27.5 70.5t-53.5 19.5q-27 0 -43 -14.5t-16 -39.5
q0 -23 15.5 -41.5t39 -29.5t51 -26t51 -30.5t39 -44t15.5 -65.5q0 -71 -49.5 -108.5t-127.5 -37.5q-34 0 -67.5 6.5t-61 23t-27.5 40.5zM55 528l121 177h53l119 -177l-37 -25l-109 110l-109 -110z" />
    <glyph glyph-name="Scedilla" unicode="&#x15e;" horiz-adv-x="517" 
d="M185 -87q0 28 32 76q-46 3 -84 13.5t-66 33.5t-29 54q0 24 30 111h39q0 -47 13.5 -80.5t36 -50.5t46 -24.5t49.5 -7.5q45 0 77 22.5t32 65.5q0 36 -23 66.5t-57 50l-74.5 44t-74.5 49t-57 64.5t-23 90q0 84 61 136.5t174 52.5q51 0 179 -19l-33 -166h-39q4 135 -115 135
q-50 0 -79.5 -23.5t-29.5 -63.5q0 -43 32 -76t77 -57l90.5 -50.5t77.5 -72t32 -106.5q0 -91 -62.5 -140.5t-160.5 -51.5q-6 -20 -6 -30t14.5 -18t31.5 -14.5t31.5 -23t14.5 -40.5q0 -42 -33.5 -70.5t-85.5 -28.5q-29 0 -54 9.5t-35 19.5l-11 9l17 39q34 -27 73 -27
q18 0 32 7.5t14 20.5q0 11 -11.5 19.5t-25.5 14t-25.5 15.5t-11.5 23z" />
    <glyph glyph-name="scedilla" unicode="&#x15f;" horiz-adv-x="392" 
d="M124 -87q0 25 32 77q-51 4 -88.5 21t-37.5 47q0 11 4.5 31.5t9.5 36.5l4 15h33q5 -58 37 -84.5t72 -26.5q28 0 45.5 14.5t17.5 40.5q0 27 -22 47.5t-53 36t-62 33t-53 49t-22 74.5q0 66 47.5 104t122.5 38q26 0 60.5 -4.5t56.5 -9.5l21 -5l-23 -113h-34q-3 51 -27.5 70.5
t-53.5 19.5q-27 0 -43 -14.5t-16 -39.5q0 -23 15.5 -41.5t39 -29.5t51 -26t51 -30.5t39 -44t15.5 -65.5q0 -69 -47 -106.5t-121 -39.5q-6 -20 -6 -30t14.5 -18t31.5 -14.5t31.5 -23t14.5 -40.5q0 -42 -33.5 -70.5t-85.5 -28.5q-29 0 -54 9.5t-36 19.5l-10 9l17 39
q34 -27 73 -27q18 0 32 7.5t14 20.5q0 11 -11.5 19.5t-25.5 14t-25.5 15.5t-11.5 23z" />
    <glyph glyph-name="Scaron" unicode="&#x160;" horiz-adv-x="517" 
d="M38 90q0 24 30 111h39q0 -47 13.5 -80.5t36 -50.5t46 -24.5t49.5 -7.5q45 0 77 22.5t32 65.5q0 36 -23 66.5t-57 50l-74.5 44t-74.5 49t-57 64.5t-23 90q0 84 61 136.5t174 52.5q51 0 179 -19l-33 -166h-39q4 135 -115 135q-50 0 -79.5 -23.5t-29.5 -63.5q0 -43 32 -76
t77 -57l90.5 -50.5t77.5 -72t32 -106.5q0 -93 -65.5 -142.5t-166.5 -49.5q-49 0 -94 9.5t-79.5 33.5t-35.5 59zM107 841l34 30l131 -71h10l131 71l34 -30l-134 -124h-73z" />
    <glyph glyph-name="scaron" unicode="&#x161;" horiz-adv-x="392" 
d="M30 58q0 11 4.5 31.5t9.5 36.5l4 15h33q5 -58 37 -84.5t72 -26.5q28 0 45.5 14.5t17.5 40.5q0 27 -22 47.5t-53 36t-62 33t-53 49t-22 74.5q0 66 47.5 104t122.5 38q26 0 60.5 -4.5t56.5 -9.5l21 -5l-23 -113h-34q-3 51 -27.5 70.5t-53.5 19.5q-27 0 -43 -14.5t-16 -39.5
q0 -23 15.5 -41.5t39 -29.5t51 -26t51 -30.5t39 -44t15.5 -65.5q0 -71 -49.5 -108.5t-127.5 -37.5q-34 0 -67.5 6.5t-61 23t-27.5 40.5zM176 523l-121 169l38 25l109 -102l109 102l37 -25l-119 -169h-53z" />
    <glyph glyph-name="Tcommaaccent" unicode="&#x162;" horiz-adv-x="652" 
d="M189 -3v37q32 4 49.5 21t17.5 44v516h-86q-50 0 -77.5 -23.5t-56.5 -97.5h-39l31 179q26 -6 67 -6h492q18 0 36 1.5t27 3.5l9 1l-31 -179h-39q0 72 -24.5 96.5t-83.5 24.5h-79l-12 -12v-504l-5 -54l100 -9l-4 -33l-141 -3h13q-10 -31 -10 -42q0 -10 14.5 -18t31.5 -14.5
t31.5 -23t14.5 -40.5q0 -42 -33.5 -70.5t-85.5 -28.5q-29 0 -54 9.5t-36 19.5l-10 9l17 39q34 -27 73 -27q18 0 32 7.5t14 20.5q0 11 -11.5 19.5t-25.5 14t-25.5 15.5t-11.5 23q0 24 38 87z" />
    <glyph glyph-name="tcommaaccent" unicode="&#x163;" horiz-adv-x="370" 
d="M137 -87q0 26 32 78q-92 15 -92 128v207l3 65h-64v43q46 9 70 31l38 113l86 -3l3 -3q-9 -22 -9 -98v-19h142l-7 -61h-122l-12 -12v-222q0 -47 13 -69.5t50 -22.5q20 0 41 6t33 12l11 5l16 -26q-7 -8 -20 -20t-55 -33.5t-86 -23.5q-6 -20 -6 -30t14.5 -18t31.5 -14.5
t31.5 -23t14.5 -40.5q0 -42 -33.5 -70.5t-85.5 -28.5q-29 0 -54 9.5t-35 19.5l-11 9l17 39q34 -27 73 -27q18 0 32 7.5t14 20.5q0 11 -11.5 19.5t-25.5 14t-25.5 15.5t-11.5 23z" />
    <glyph glyph-name="Tcaron" unicode="&#x164;" horiz-adv-x="652" 
d="M189 -3v37q32 4 49.5 21t17.5 44v516h-86q-50 0 -77.5 -23.5t-56.5 -97.5h-39l31 179q26 -6 67 -6h492q18 0 36 1.5t27 3.5l9 1l-31 -179h-39q0 72 -24.5 96.5t-83.5 24.5h-79l-12 -12v-504l-5 -54l100 -9l-4 -33zM153 841l34 30l131 -71h10l131 71l34 -30l-134 -124h-73
z" />
    <glyph glyph-name="tcaron" unicode="&#x165;" horiz-adv-x="370" 
d="M77 119v207l3 65h-64v43q46 9 70 31l38 113l86 -3l3 -3q-9 -22 -9 -98v-19h142l-7 -61h-122l-12 -12v-222q0 -47 13 -69.5t50 -22.5q20 0 41 6t33 12l11 5l16 -26q-8 -9 -21.5 -21.5t-58 -34t-90.5 -21.5q-57 0 -89.5 32t-32.5 99zM270 542l25 197l122 10v-33l-92 -174
h-55z" />
    <glyph glyph-name="Tbar" unicode="&#x166;" horiz-adv-x="654" 
d="M114 312v55h142v248h-86q-50 0 -77.5 -23.5t-56.5 -97.5h-39l31 179q26 -6 67 -6h492q18 0 36 1.5t27 3.5l9 1l-31 -179h-39q0 72 -24.5 96.5t-83.5 24.5h-79l-12 -12v-236h143v-55h-143v-213l-5 -54l100 -9l-4 -33l-292 -6v37q32 4 49.5 21t17.5 44v213h-142z" />
    <glyph glyph-name="tbar" unicode="&#x167;" horiz-adv-x="370" 
d="M16 238v55h61v33l3 65h-64v43q46 9 70 31l38 113l86 -3l3 -3q-9 -22 -9 -98v-19h142l-7 -61h-122l-12 -12v-89h134v-55h-134v-78q0 -47 13 -69.5t50 -22.5q20 0 41 6t33 12l11 5l16 -26q-8 -9 -21.5 -21.5t-58 -34t-90.5 -21.5q-57 0 -89.5 32t-32.5 99v119h-61z" />
    <glyph glyph-name="Utilde" unicode="&#x168;" horiz-adv-x="737" 
d="M86 234v330q0 38 -10 50t-59 23v30h73l158 4l5 -4q-33 -40 -33 -126v-299q0 -96 54.5 -146t130.5 -50q74 0 128 50.5t54 138.5v324q0 20 -1.5 29.5t-8.5 20.5t-22.5 16.5t-43.5 8.5v33h207l5 -19q-3 -1 -8 -3t-18 -10.5t-22.5 -19.5t-17.5 -31t-8 -43v-303
q0 -120 -77.5 -185t-199.5 -65q-54 0 -102.5 13.5t-91 41t-67.5 77t-25 114.5zM242 731l-43 9q0 5 1 13t8 28t17.5 35.5t32 28.5t50.5 13q34 0 85.5 -26t74.5 -26q20 0 33.5 13t16.5 26l4 13l44 -5q0 -5 -1 -13t-7.5 -29t-17.5 -37.5t-34.5 -29.5t-54.5 -13q-37 0 -85.5 26
t-69.5 26q-19 0 -32.5 -13t-17.5 -26z" />
    <glyph glyph-name="utilde" unicode="&#x169;" horiz-adv-x="574" 
d="M73 123v208q0 26 -1.5 38t-8 21t-20.5 9h-30v33q76 13 124.5 23t58.5 13l11 4l3 -3q-9 -28 -9 -105v-203q0 -51 15 -70.5t42 -19.5q22 0 47 11.5t39 23.5l14 11v214q0 26 -1.5 38t-8 21t-20.5 9h-25v34q73 13 120 22.5t58 12.5l11 4l3 -3q-9 -28 -9 -105v-264
q0 -39 13 -48t43 -9h23l-3 -32l-202 -20l-2 2q7 30 7 55v42l-8 -11t-22 -24.5t-35 -31t-45.5 -24.5t-55.5 -11q-57 0 -91.5 33t-34.5 102zM120 557q-1 6 -1.5 15.5t2.5 33.5t11 43t29 34t52 15q30 0 54 -18t43 -36t36 -18q23 0 35 16t13 32v17h46q1 -6 1.5 -15.5t-3 -34
t-12 -43.5t-30 -34.5t-53.5 -15.5q-23 0 -43 11t-31.5 25t-26 25t-28.5 11q-24 0 -36 -16t-12 -32v-15h-46z" />
    <glyph glyph-name="Umacron" unicode="&#x16a;" horiz-adv-x="737" 
d="M86 234v330q0 38 -10 50t-59 23v30h73l158 4l5 -4q-33 -40 -33 -126v-299q0 -96 54.5 -146t130.5 -50q74 0 128 50.5t54 138.5v324q0 20 -1.5 29.5t-8.5 20.5t-22.5 16.5t-43.5 8.5v33h207l5 -19q-3 -1 -8 -3t-18 -10.5t-22.5 -19.5t-17.5 -31t-8 -43v-303
q0 -120 -77.5 -185t-199.5 -65q-54 0 -102.5 13.5t-91 41t-67.5 77t-25 114.5zM238 757v74h288v-74h-288z" />
    <glyph glyph-name="umacron" unicode="&#x16b;" horiz-adv-x="574" 
d="M73 123v208q0 26 -1.5 38t-8 21t-20.5 9h-30v33q76 13 124.5 23t58.5 13l11 4l3 -3q-9 -28 -9 -105v-203q0 -51 15 -70.5t42 -19.5q22 0 47 11.5t39 23.5l14 11v214q0 26 -1.5 38t-8 21t-20.5 9h-25v34q73 13 120 22.5t58 12.5l11 4l3 -3q-9 -28 -9 -105v-264
q0 -39 13 -48t43 -9h23l-3 -32l-202 -20l-2 2q7 30 7 55v42l-8 -11t-22 -24.5t-35 -31t-45.5 -24.5t-55.5 -11q-57 0 -91.5 33t-34.5 102zM150 579v74h258v-74h-258z" />
    <glyph glyph-name="Ubreve" unicode="&#x16c;" horiz-adv-x="737" 
d="M86 234v330q0 38 -10 50t-59 23v30h73l158 4l5 -4q-33 -40 -33 -126v-299q0 -96 54.5 -146t130.5 -50q74 0 128 50.5t54 138.5v324q0 20 -1.5 29.5t-8.5 20.5t-22.5 16.5t-43.5 8.5v33h207l5 -19q-3 -1 -8 -3t-18 -10.5t-22.5 -19.5t-17.5 -31t-8 -43v-303
q0 -120 -77.5 -185t-199.5 -65q-54 0 -102.5 13.5t-91 41t-67.5 77t-25 114.5zM382 715q-66 0 -106.5 34.5t-40.5 93.5q0 14 3 31h46q0 -76 98 -76q97 0 97 76h47q2 -10 2 -28q0 -58 -40 -94.5t-106 -36.5z" />
    <glyph glyph-name="ubreve" unicode="&#x16d;" horiz-adv-x="574" 
d="M73 123v208q0 26 -1.5 38t-8 21t-20.5 9h-30v33q76 13 124.5 23t58.5 13l11 4l3 -3q-9 -28 -9 -105v-203q0 -51 15 -70.5t42 -19.5q22 0 47 11.5t39 23.5l14 11v214q0 26 -1.5 38t-8 21t-20.5 9h-25v34q73 13 120 22.5t58 12.5l11 4l3 -3q-9 -28 -9 -105v-264
q0 -39 13 -48t43 -9h23l-3 -32l-202 -20l-2 2q7 30 7 55v42l-8 -11t-22 -24.5t-35 -31t-45.5 -24.5t-55.5 -11q-57 0 -91.5 33t-34.5 102zM279 542q-60 0 -99.5 35t-39.5 89q0 22 5 39h45q-1 -8 -1 -12q0 -37 26 -54t64 -17q90 0 90 71l-1 12h45q5 -23 5 -39
q0 -54 -39.5 -89t-99.5 -35z" />
    <glyph glyph-name="Uring" unicode="&#x16e;" horiz-adv-x="737" 
d="M86 234v330q0 38 -10 50t-59 23v30h73l158 4l5 -4q-33 -40 -33 -126v-299q0 -96 54.5 -146t130.5 -50q74 0 128 50.5t54 138.5v324q0 20 -1.5 29.5t-8.5 20.5t-22.5 16.5t-43.5 8.5v33h207l5 -19q-3 -1 -8 -3t-18 -10.5t-22.5 -19.5t-17.5 -31t-8 -43v-303
q0 -120 -77.5 -185t-199.5 -65q-54 0 -102.5 13.5t-91 41t-67.5 77t-25 114.5zM382 685q-49 0 -75 28t-26 63t26 61.5t75 26.5t75 -26.5t26 -61.5t-26 -63t-75 -28zM382 728q21 0 33.5 13.5t12.5 33.5q0 19 -12 32.5t-34 13.5q-23 0 -34 -13t-11 -33t12 -33.5t33 -13.5z" />
    <glyph glyph-name="uring" unicode="&#x16f;" horiz-adv-x="574" 
d="M73 123v208q0 26 -1.5 38t-8 21t-20.5 9h-30v33q76 13 124.5 23t58.5 13l11 4l3 -3q-9 -28 -9 -105v-203q0 -51 15 -70.5t42 -19.5q22 0 47 11.5t39 23.5l14 11v214q0 26 -1.5 38t-8 21t-20.5 9h-25v34q73 13 120 22.5t58 12.5l11 4l3 -3q-9 -28 -9 -105v-264
q0 -39 13 -48t43 -9h23l-3 -32l-202 -20l-2 2q7 30 7 55v42l-8 -11t-22 -24.5t-35 -31t-45.5 -24.5t-55.5 -11q-57 0 -91.5 33t-34.5 102zM279 535q-49 0 -75 28t-26 63t26 61.5t75 26.5t75 -26.5t26 -61.5t-26 -63t-75 -28zM279 578q21 0 33.5 13.5t12.5 33.5
q0 19 -12 32.5t-34 13.5q-23 0 -34 -13t-11 -33t12 -33.5t33 -13.5z" />
    <glyph glyph-name="Uhungarumlaut" unicode="&#x170;" horiz-adv-x="737" 
d="M86 234v330q0 38 -10 50t-59 23v30h73l158 4l5 -4q-33 -40 -33 -126v-299q0 -96 54.5 -146t130.5 -50q74 0 128 50.5t54 138.5v324q0 20 -1.5 29.5t-8.5 20.5t-22.5 16.5t-43.5 8.5v33h207l5 -19q-3 -1 -8 -3t-18 -10.5t-22.5 -19.5t-17.5 -31t-8 -43v-303
q0 -120 -77.5 -185t-199.5 -65q-54 0 -102.5 13.5t-91 41t-67.5 77t-25 114.5zM292 718l-38 24l55 123l122 9v-27zM469 718l-38 24l65 123l122 9v-27z" />
    <glyph glyph-name="uhungarumlaut" unicode="&#x171;" horiz-adv-x="574" 
d="M73 123v208q0 26 -1.5 38t-8 21t-20.5 9h-30v33q76 13 124.5 23t58.5 13l11 4l3 -3q-9 -28 -9 -105v-203q0 -51 15 -70.5t42 -19.5q22 0 47 11.5t39 23.5l14 11v214q0 26 -1.5 38t-8 21t-20.5 9h-25v34q73 13 120 22.5t58 12.5l11 4l3 -3q-9 -28 -9 -105v-264
q0 -39 13 -48t43 -9h23l-3 -32l-202 -20l-2 2q7 30 7 55v42l-8 -11t-22 -24.5t-35 -31t-45.5 -24.5t-55.5 -11q-57 0 -91.5 33t-34.5 102zM197 507l-39 21l72 171l104 11v-27zM356 507l-40 21l73 171l104 11v-27z" />
    <glyph glyph-name="Uogonek" unicode="&#x172;" horiz-adv-x="737" 
d="M86 234v330q0 38 -10 50t-59 23v30h73l158 4l5 -4q-33 -40 -33 -126v-299q0 -96 54.5 -146t130.5 -50q74 0 128 50.5t54 138.5v324q0 20 -1.5 29.5t-8.5 20.5t-22.5 16.5t-43.5 8.5v33h207l5 -19q-3 -1 -8 -3t-18 -10.5t-22.5 -19.5t-17.5 -31t-8 -43v-303
q0 -152 -124 -216q-31 -23 -67 -67t-36 -83q0 -27 18.5 -43.5t41.5 -16.5l22 2l9 -34q-42 -17 -89 -17q-45 0 -75 23t-30 57q0 22 15.5 47t30 40t52.5 49q10 9 15 14q-33 -5 -60 -5q-54 0 -102.5 13.5t-91 41t-67.5 77t-25 114.5z" />
    <glyph glyph-name="uogonek" unicode="&#x173;" horiz-adv-x="574" 
d="M73 123v208q0 26 -1.5 38t-8 21t-20.5 9h-30v33q76 13 124.5 23t58.5 13l11 4l3 -3q-9 -28 -9 -105v-203q0 -51 15 -70.5t42 -19.5q22 0 47 11.5t39 23.5l14 11v214q0 26 -1.5 38t-8 21t-20.5 9h-25v34q73 13 120 22.5t58 12.5l11 4l3 -3q-9 -28 -9 -105v-264
q0 -39 13 -48t43 -9h23l-3 -32l-126 -11q-30 -11 -60 -50.5t-30 -77.5q0 -27 18.5 -43.5t41.5 -16.5l22 2l9 -34q-41 -17 -89 -17q-45 0 -75 23t-30 57q0 9 1.5 17t6 17l8 15.5t12.5 16.5t13.5 15.5t16.5 17.5t17 16.5l20 18t20 18.5q7 35 7 53v42l-8 -11t-22 -24.5t-35 -31
t-45.5 -24.5t-55.5 -11q-57 0 -91.5 33t-34.5 102z" />
    <glyph glyph-name="Wcircumflex" unicode="&#x174;" horiz-adv-x="954" 
d="M643 3l-167 442l-144 -454l-58 12l-230 579q-8 20 -21.5 33.5t-23.5 17.5l-10 4v30h56l143 4l4 -4q-10 -19 -12 -44.5t6 -47.5l128 -339q10 -25 18 -62l112 355l-19 53q-7 20 -21 33.5t-24 17.5l-10 4v30h56l143 4l4 -4q-22 -45 -6 -92l117 -341q9 -28 16 -62l121 378
q13 33 3 54.5t-49 32.5v30h164l5 -19l-5 -2.5t-11 -9.5t-16 -18t-18 -29.5t-17 -42.5l-175 -555zM318 747l134 124h73l133 -124l-34 -30l-131 71h-10l-131 -71z" />
    <glyph glyph-name="wcircumflex" unicode="&#x175;" horiz-adv-x="738" 
d="M195 1l-145 366q-9 23 -23.5 37.5t-24.5 17.5l-10 3v30h47l143 4l4 -4q-2 -5 -4.5 -13t-5.5 -33t8 -46l65 -176q8 -24 18 -62l70 158q13 28 0 62l-9 22q-9 22 -22.5 36.5t-21.5 18.5l-9 3v30h42l143 4l4 -4q-2 -5 -4.5 -13t-5.5 -33t8 -46l65 -174q8 -24 18 -62l100 226
q24 53 -53 72v30h145l5 -16q-11 -6 -32 -53l-177 -398l-60 13l-100 250l-117 -263zM238 528l121 177h53l119 -177l-37 -25l-109 110l-109 -110z" />
    <glyph glyph-name="Ycircumflex" unicode="&#x176;" horiz-adv-x="592" 
d="M165 -3v37q32 4 49.5 21t17.5 44v196l-184 298q-11 17 -24 28t-21 13l-8 3v30h53l142 4l4 -4q-18 -39 2 -72l110 -186q15 -26 28 -56l135 222q14 19 5 37.5t-45 24.5v30h170l5 -19q-31 -11 -60 -57l-178 -284v-208l-5 -54l85 -9l-4 -33zM136 747l134 124h73l133 -124
l-34 -30l-131 71h-10l-131 -71z" />
    <glyph glyph-name="ycircumflex" unicode="&#x177;" horiz-adv-x="472" 
d="M79 -135q88 0 127 92l9 22q-8 25 -31 79l-135 309q-10 22 -24.5 36.5t-24.5 18.5l-9 3v30h47l146 4l4 -4q-21 -43 -2 -92l73 -178q8 -19 19 -59l97 227q10 27 -6.5 45t-48.5 27v30h147l5 -16q-15 -14 -32 -53l-151 -353q-2 -4 -15 -35t-19 -43.5l-21.5 -43t-26 -46
t-28 -38.5t-33.5 -34.5t-36.5 -20.5t-41.5 -9q-26 0 -40.5 14.5t-14.5 36.5q0 21 16 36t50 15zM112 528l121 177h53l119 -177l-37 -25l-109 110l-109 -110z" />
    <glyph glyph-name="Ydieresis" unicode="&#x178;" horiz-adv-x="592" 
d="M165 -3v37q32 4 49.5 21t17.5 44v196l-184 298q-11 17 -24 28t-21 13l-8 3v30h53l142 4l4 -4q-18 -39 2 -72l110 -186q15 -26 28 -56l135 222q14 19 5 37.5t-45 24.5v30h170l5 -19q-31 -11 -60 -57l-178 -284v-208l-5 -54l85 -9l-4 -33zM363 794q0 30 19.5 48.5
t49.5 18.5t49.5 -18.5t19.5 -48.5q0 -29 -19.5 -47.5t-49.5 -18.5t-49.5 18.5t-19.5 47.5zM112 794q0 30 19.5 48.5t49.5 18.5t49.5 -18.5t19.5 -48.5q0 -29 -19.5 -47.5t-49.5 -18.5t-49.5 18.5t-19.5 47.5z" />
    <glyph glyph-name="Zacute" unicode="&#x179;" horiz-adv-x="599" 
d="M25 -4l-6 36q21 16 55 71l285 463l34 49h-157q-58 0 -91.5 -24t-61.5 -97h-39l26 173h417l64 4l4 -36q-21 -22 -50 -71l-282 -461q-9 -16 -37 -51h191q57 0 88.5 27.5t69.5 110.5h39l-42 -190h-443zM215 758l192 113h5l43 -71v-29l-221 -54z" />
    <glyph glyph-name="zacute" unicode="&#x17a;" horiz-adv-x="451" 
d="M29 -4l-8 31q15 13 36 48l177 287q10 16 36 49h-100q-40 0 -63 -27t-32 -57h-43l18 128h299l64 4l8 -31q-13 -13 -34 -48l-173 -285q-9 -15 -37 -50h87q27 0 49 9.5t34.5 23.5t21 28t11.5 24l2 9h44l-27 -139h-302zM235 507l-40 21l76 171l121 11v-27z" />
    <glyph glyph-name="Zdotaccent" unicode="&#x17b;" horiz-adv-x="599" 
d="M25 -4l-6 36q21 16 55 71l285 463l34 49h-157q-58 0 -91.5 -24t-61.5 -97h-39l26 173h417l64 4l4 -36q-21 -22 -50 -71l-282 -461q-9 -16 -37 -51h191q57 0 88.5 27.5t69.5 110.5h39l-42 -190h-443zM321 724q-32 0 -53 19.5t-21 50.5t21 51t53 20t53 -20t21 -51
t-21 -50.5t-53 -19.5z" />
    <glyph glyph-name="zdotaccent" unicode="&#x17c;" horiz-adv-x="451" 
d="M29 -4l-8 31q15 13 36 48l177 287q10 16 36 49h-100q-40 0 -63 -27t-32 -57h-43l18 128h299l64 4l8 -31q-13 -13 -34 -48l-173 -285q-9 -15 -37 -50h87q27 0 49 9.5t34.5 23.5t21 28t11.5 24l2 9h44l-27 -139h-302zM247 554q-32 0 -53 19.5t-21 50.5t21 51t53 20t53 -20
t21 -51t-21 -50.5t-53 -19.5z" />
    <glyph glyph-name="Zcaron" unicode="&#x17d;" horiz-adv-x="599" 
d="M25 -4l-6 36q21 16 55 71l285 463l34 49h-157q-58 0 -91.5 -24t-61.5 -97h-39l26 173h417l64 4l4 -36q-21 -22 -50 -71l-282 -461q-9 -16 -37 -51h191q57 0 88.5 27.5t69.5 110.5h39l-42 -190h-443zM151 841l34 30l131 -71h10l131 71l34 -30l-134 -124h-73z" />
    <glyph glyph-name="zcaron" unicode="&#x17e;" horiz-adv-x="451" 
d="M29 -4l-8 31q15 13 36 48l177 287q10 16 36 49h-100q-40 0 -63 -27t-32 -57h-43l18 128h299l64 4l8 -31q-13 -13 -34 -48l-173 -285q-9 -15 -37 -50h87q27 0 49 9.5t34.5 23.5t21 28t11.5 24l2 9h44l-27 -139h-302zM221 523l-121 169l38 25l109 -102l109 102l37 -25
l-119 -169h-53z" />
    <glyph glyph-name="longs" unicode="&#x17f;" horiz-adv-x="311" 
d="M32 -3v34q57 7 57 65v295h-61v43l61 22v31q0 108 66 179t160 71q49 0 90 -18t41 -52q0 -23 -15.5 -38t-37.5 -15q-26 0 -64.5 35.5t-52.5 35.5q-32 0 -45.5 -41t-13.5 -135v-413l-5 -54l105 -9l-4 -30z" />
    <glyph glyph-name="florin" unicode="&#x192;" horiz-adv-x="431" 
d="M12 298v45h137q27 180 88.5 258t162.5 78q100 0 100 -50q0 -20 -15 -31.5t-36 -11.5q-25 0 -56.5 18t-49.5 18q-13 0 -20 -6.5t-15 -36t-15 -82t-18 -154.5h154l-16 -45h-143l-2 -26q-19 -180 -55.5 -285t-87 -145.5t-124.5 -40.5q-100 0 -100 50q0 20 15 31.5t36 11.5
q25 0 56.5 -18t49.5 -18q14 0 21 8t16.5 52.5t18.5 121l26 232.5l3 26h-131z" />
    <glyph glyph-name="Aringacute" unicode="&#x1fa;" horiz-adv-x="625" 
d="M-17 0v34q50 5 67 47l223 558q-61 17 -61 79q0 32 25.5 55.5t75.5 23.5t75.5 -23.5t25.5 -55.5q0 -61 -58 -78l206 -534q14 -37 28.5 -53.5t41.5 -20.5l-4 -32h-41l-195 -4v39q54 2 40 40l-47 129h-213l-17 -12l-56 -147l86 -11l-6 -34h-196zM303 435q-9 23 -25 77
l-97 -253h185zM197 843l192 113h5l43 -71v-29l-221 -54zM313 674q21 0 33.5 12t12.5 31q0 16 -12 28t-34 12t-33.5 -12t-11.5 -28q0 -19 11.5 -31t33.5 -12z" />
    <glyph glyph-name="aringacute" unicode="&#x1fb;" horiz-adv-x="483" 
d="M18 100q0 69 64.5 110t154.5 54l35 5q0 81 -5 105q-10 48 -47 48q-25 0 -49 -27t-35 -53l-12 -27h-46l-22 88q41 31 109 50q-34 28 -34 71q0 35 26 61.5t75 26.5t75 -26.5t26 -61.5q0 -34 -23 -60q51 -8 70 -40t19 -100v-225q0 -47 24 -47q9 0 20 4t17 8l7 5l16 -27
q-6 -6 -16 -15t-42.5 -24t-65.5 -15q-39 0 -61.5 17.5t-22.5 49.5v16l-6 -9t-18 -20t-29 -25t-38.5 -20t-48.5 -9q-48 0 -82.5 29.5t-34.5 82.5zM131 621l-19 41l192 113h5l43 -71v-29zM196 67q37 0 75 32v125l-27 -5q-96 -17 -96 -94q0 -25 12 -41.5t36 -16.5zM232 476
q21 0 33.5 13.5t12.5 33.5q0 19 -12 32.5t-34 13.5q-23 0 -34 -13t-11 -33t12 -33.5t33 -13.5z" />
    <glyph glyph-name="AEacute" unicode="&#x1fc;" horiz-adv-x="889" 
d="M-25 0v34q43 4 67 47l272 489q13 24 -5 40t-69 27v30h523l77 4l-31 -177h-39q4 74 -20 97.5t-88 23.5h-111l-12 -12v-247h167l8 68l42 6v-191h-52v65h-153l-12 -12v-184l-5 -56h139q64 0 87 19t61 99h39l-37 -170h-314l-171 -3v37q67 8 67 62v208h-164l-17 -11l-135 -248
l86 -11l-6 -34h-194zM370 562l-112 -206h147v249q-21 -17 -35 -43zM469 758l192 113h5l43 -71v-29l-221 -54z" />
    <glyph glyph-name="aeacute" unicode="&#x1fd;" horiz-adv-x="708" 
d="M16 101q0 73 74 116.5t188 57.5v24q0 27 -1.5 45.5t-6.5 38t-15.5 29.5t-26.5 10q-27 0 -51.5 -27t-35.5 -53l-11 -27h-46l-22 88q9 7 26.5 17.5t71.5 28.5t109 18q79 0 106 -48q58 48 128 48q72 0 122.5 -45.5t53.5 -132.5q-43 -14 -66 -17l-218 -29q4 -70 42 -117.5
t112 -47.5q33 0 63 10t44 20l13 10l12 -29q-2 -4 -7 -11t-22 -24.5t-36.5 -30.5t-53 -24t-70.5 -11q-128 0 -182 114q-44 -114 -160 -114q-57 0 -95.5 29.5t-38.5 83.5zM193 67q34 0 59 34t25 76v52q-131 -18 -131 -103q0 -25 12.5 -42t34.5 -17zM481 419q-33 0 -56 -36.5
t-29 -91.5l156 19q0 4 -0.5 11.5t-4.5 26.5t-10.5 33t-21 26t-34.5 12zM366 507l-40 21l76 171l121 11v-27z" />
    <glyph glyph-name="Oslashacute" unicode="&#x1fe;" horiz-adv-x="804" 
d="M38 323q0 67 24.5 130t70.5 114t120.5 81.5t165.5 30.5q105 0 181 -39l43 57h64l-63 -83q62 -45 93.5 -113t31.5 -144q0 -68 -25.5 -133t-72 -118t-120.5 -85.5t-164 -32.5q-106 0 -186 44l-47 -62h-65l69 91q-58 47 -89 116.5t-31 145.5zM620 330q0 108 -47 191
l-311 -408q62 -75 150 -75q98 0 153 86t55 206zM185 352q0 -109 47 -194l310 406q-59 65 -145 65q-101 0 -156.5 -81t-55.5 -196zM293 758l192 113h5l43 -71v-29l-221 -54z" />
    <glyph glyph-name="oslashacute" unicode="&#x1ff;" horiz-adv-x="555" 
d="M54 -30l54 73q-75 64 -75 175q0 63 24.5 117.5t83.5 93t143 38.5q68 0 121 -25l33 43h60l-51 -69q78 -61 78 -171q0 -103 -67 -180t-187 -77q-68 0 -122 27l-34 -45h-61zM386 226q-2 50 -13 91l-169 -228q30 -57 83 -57q30 0 51 19.5t31 51.5t13.5 62t3.5 61zM171 244
q0 -53 12 -101l169 227q-30 53 -79 53q-50 0 -76 -51.5t-26 -127.5zM267 507l-40 21l76 171l121 11v-27z" />
    <glyph glyph-name="Scommaaccent" unicode="&#x218;" horiz-adv-x="517" 
d="M38 90q0 24 30 111h39q0 -47 13.5 -80.5t36 -50.5t46 -24.5t49.5 -7.5q45 0 77 22.5t32 65.5q0 36 -23 66.5t-57 50l-74.5 44t-74.5 49t-57 64.5t-23 90q0 84 61 136.5t174 52.5q51 0 179 -19l-33 -166h-39q4 135 -115 135q-50 0 -79.5 -23.5t-29.5 -63.5q0 -43 32 -76
t77 -57l90.5 -50.5t77.5 -72t32 -106.5q0 -93 -65.5 -142.5t-166.5 -49.5q-49 0 -94 9.5t-79.5 33.5t-35.5 59zM180 -65l10 22h116q21 -29 21 -63q0 -41 -39.5 -79.5t-97.5 -63.5l-24 33q59 32 59 66t-45 85z" />
    <glyph glyph-name="scommaaccent" unicode="&#x219;" horiz-adv-x="392" 
d="M30 58q0 11 4.5 31.5t9.5 36.5l4 15h33q5 -58 37 -84.5t72 -26.5q28 0 45.5 14.5t17.5 40.5q0 27 -22 47.5t-53 36t-62 33t-53 49t-22 74.5q0 66 47.5 104t122.5 38q26 0 60.5 -4.5t56.5 -9.5l21 -5l-23 -113h-34q-3 51 -27.5 70.5t-53.5 19.5q-27 0 -43 -14.5t-16 -39.5
q0 -23 15.5 -41.5t39 -29.5t51 -26t51 -30.5t39 -44t15.5 -65.5q0 -71 -49.5 -108.5t-127.5 -37.5q-34 0 -67.5 6.5t-61 23t-27.5 40.5zM119 -65l10 22h116q21 -29 21 -63q0 -41 -39.5 -79.5t-97.5 -63.5l-24 33q59 32 59 66t-45 85z" />
    <glyph glyph-name="uni021A" unicode="&#x21a;" horiz-adv-x="652" 
d="M189 -3v37q32 4 49.5 21t17.5 44v516h-86q-50 0 -77.5 -23.5t-56.5 -97.5h-39l31 179q26 -6 67 -6h492q18 0 36 1.5t27 3.5l9 1l-31 -179h-39q0 72 -24.5 96.5t-83.5 24.5h-79l-12 -12v-504l-5 -54l100 -9l-4 -33zM259 -65l10 22h116q21 -29 21 -63q0 -41 -39.5 -79.5
t-97.5 -63.5l-24 33q59 32 59 66t-45 85z" />
    <glyph glyph-name="uni021B" unicode="&#x21b;" horiz-adv-x="370" 
d="M77 119v207l3 65h-64v43q46 9 70 31l38 113l86 -3l3 -3q-9 -22 -9 -98v-19h142l-7 -61h-122l-12 -12v-222q0 -47 13 -69.5t50 -22.5q20 0 41 6t33 12l11 5l16 -26q-8 -9 -21.5 -21.5t-58 -34t-90.5 -21.5q-57 0 -89.5 32t-32.5 99zM132 -65l10 22h116q21 -29 21 -63
q0 -41 -39.5 -79.5t-97.5 -63.5l-24 33q59 32 59 66t-45 85z" />
    <glyph glyph-name="circumflex" unicode="&#x2c6;" horiz-adv-x="500" 
d="M103 528l121 177h53l119 -177l-37 -25l-109 110l-109 -110z" />
    <glyph glyph-name="caron" unicode="&#x2c7;" horiz-adv-x="500" 
d="M224 523l-121 169l38 25l109 -102l109 102l37 -25l-119 -169h-53z" />
    <glyph glyph-name="breve" unicode="&#x2d8;" horiz-adv-x="500" 
d="M250 542q-60 0 -99.5 35t-39.5 89q0 22 5 39h45q-1 -8 -1 -12q0 -37 26 -54t64 -17q90 0 90 71l-1 12h45q5 -23 5 -39q0 -54 -39.5 -89t-99.5 -35z" />
    <glyph glyph-name="dotaccent" unicode="&#x2d9;" horiz-adv-x="500" 
d="M250 554q-32 0 -53 19.5t-21 50.5t21 51t53 20t53 -20t21 -51t-21 -50.5t-53 -19.5z" />
    <glyph glyph-name="ring" unicode="&#x2da;" horiz-adv-x="500" 
d="M250 535q-49 0 -75 28t-26 63t26 61.5t75 26.5t75 -26.5t26 -61.5t-26 -63t-75 -28zM250 578q21 0 33.5 13.5t12.5 33.5q0 19 -12 32.5t-34 13.5q-23 0 -34 -13t-11 -33t12 -33.5t33 -13.5z" />
    <glyph glyph-name="ogonek" unicode="&#x2db;" horiz-adv-x="500" 
d="M155 -157q0 17 6.5 33t22.5 34l28.5 31t39.5 37.5l41 37.5l63 11l5 -5q-31 -23 -67 -67t-36 -83q0 -27 18.5 -43.5t41.5 -16.5l22 2l9 -34q-45 -17 -89 -17q-45 0 -75 23t-30 57z" />
    <glyph glyph-name="tilde" unicode="&#x2dc;" horiz-adv-x="500" 
d="M94 557q-1 6 -1.5 15.5t2.5 33.5t11 43t29 34t52 15q30 0 54 -18t43 -36t36 -18q23 0 35 16t13 32v17h46q1 -6 1.5 -15.5t-3 -34t-12 -43.5t-30 -34.5t-53.5 -15.5q-23 0 -43 11t-31.5 25t-26 25t-28.5 11q-24 0 -36 -16t-12 -32v-15h-46z" />
    <glyph glyph-name="hungarumlaut" unicode="&#x2dd;" horiz-adv-x="500" 
d="M120 507l-39 21l72 171l104 11v-27zM279 507l-40 21l73 171l104 11v-27z" />
    <glyph glyph-name="Omega" unicode="&#x3a9;" horiz-adv-x="777" 
d="M56 0l-37 178h34q28 -52 62 -66t106 -14h13q-32 27 -55.5 51t-53 60.5t-45.5 79.5t-16 88q0 131 93.5 216.5t232.5 85.5q140 0 232 -83t92 -216q0 -21 -3.5 -41t-12 -40t-16 -36t-22 -35l-23 -31t-26.5 -30t-24.5 -25t-25 -24.5t-20.5 -19.5h15q72 0 106 14t62 66h34
l-37 -178h-270l-5 18q2 4 15 26t21.5 38.5l23 45t24 55.5t19.5 59.5t15 67.5t5 69q0 111 -48.5 179t-131.5 68q-84 0 -132 -66.5t-48 -183.5q0 -44 10 -90.5t27.5 -89.5t31.5 -72.5t33.5 -64.5t22.5 -40l-8 -19h-270z" />
    <glyph glyph-name="pi" unicode="&#x3c0;" horiz-adv-x="604" 
d="M32 340q46 115 148 115h390v-101h-89l-12 -12v-242q0 -33 6 -45t30 -12h38l3 -29q-59 -26 -111 -26q-43 0 -68 21t-25 59v286h-97l-12 -12v-10q0 -54 -7 -109t-22 -110.5t-44 -90t-68 -34.5q-24 0 -38.5 12.5t-14.5 35.5q0 21 13.5 34.5t31 20t35.5 19t25 30.5
q33 86 33 204v10q-79 -1 -121 -36z" />
    <glyph glyph-name="Wgrave" unicode="&#x1e80;" horiz-adv-x="954" 
d="M643 3l-167 442l-144 -454l-58 12l-230 579q-8 20 -21.5 33.5t-23.5 17.5l-10 4v30h56l143 4l4 -4q-10 -19 -12 -44.5t6 -47.5l128 -339q10 -25 18 -62l112 355l-19 53q-7 20 -21 33.5t-24 17.5l-10 4v30h56l143 4l4 -4q-22 -45 -6 -92l117 -341q9 -28 16 -62l121 378
q13 33 3 54.5t-49 32.5v30h164l5 -19l-5 -2.5t-11 -9.5t-16 -18t-18 -29.5t-17 -42.5l-175 -555zM354 771v29l43 71h5l192 -113l-19 -41z" />
    <glyph glyph-name="wgrave" unicode="&#x1e81;" horiz-adv-x="738" 
d="M195 1l-145 366q-9 23 -23.5 37.5t-24.5 17.5l-10 3v30h47l143 4l4 -4q-2 -5 -4.5 -13t-5.5 -33t8 -46l65 -176q8 -24 18 -62l70 158q13 28 0 62l-9 22q-9 22 -22.5 36.5t-21.5 18.5l-9 3v30h42l143 4l4 -4q-2 -5 -4.5 -13t-5.5 -33t8 -46l65 -174q8 -24 18 -62l100 226
q24 53 -53 72v30h145l5 -16q-11 -6 -32 -53l-177 -398l-60 13l-100 250l-117 -263zM240 683v27l121 -11l76 -171l-40 -21z" />
    <glyph glyph-name="Wacute" unicode="&#x1e82;" horiz-adv-x="954" 
d="M643 3l-167 442l-144 -454l-58 12l-230 579q-8 20 -21.5 33.5t-23.5 17.5l-10 4v30h56l143 4l4 -4q-10 -19 -12 -44.5t6 -47.5l128 -339q10 -25 18 -62l112 355l-19 53q-7 20 -21 33.5t-24 17.5l-10 4v30h56l143 4l4 -4q-22 -45 -6 -92l117 -341q9 -28 16 -62l121 378
q13 33 3 54.5t-49 32.5v30h164l5 -19l-5 -2.5t-11 -9.5t-16 -18t-18 -29.5t-17 -42.5l-175 -555zM382 758l192 113h5l43 -71v-29l-221 -54z" />
    <glyph glyph-name="wacute" unicode="&#x1e83;" horiz-adv-x="738" 
d="M195 1l-145 366q-9 23 -23.5 37.5t-24.5 17.5l-10 3v30h47l143 4l4 -4q-2 -5 -4.5 -13t-5.5 -33t8 -46l65 -176q8 -24 18 -62l70 158q13 28 0 62l-9 22q-9 22 -22.5 36.5t-21.5 18.5l-9 3v30h42l143 4l4 -4q-2 -5 -4.5 -13t-5.5 -33t8 -46l65 -174q8 -24 18 -62l100 226
q24 53 -53 72v30h145l5 -16q-11 -6 -32 -53l-177 -398l-60 13l-100 250l-117 -263zM373 507l-40 21l76 171l121 11v-27z" />
    <glyph glyph-name="Wdieresis" unicode="&#x1e84;" horiz-adv-x="954" 
d="M643 3l-167 442l-144 -454l-58 12l-230 579q-8 20 -21.5 33.5t-23.5 17.5l-10 4v30h56l143 4l4 -4q-10 -19 -12 -44.5t6 -47.5l128 -339q10 -25 18 -62l112 355l-19 53q-7 20 -21 33.5t-24 17.5l-10 4v30h56l143 4l4 -4q-22 -45 -6 -92l117 -341q9 -28 16 -62l121 378
q13 33 3 54.5t-49 32.5v30h164l5 -19l-5 -2.5t-11 -9.5t-16 -18t-18 -29.5t-17 -42.5l-175 -555zM294 794q0 30 19.5 48.5t49.5 18.5t49.5 -18.5t19.5 -48.5q0 -29 -19.5 -47.5t-49.5 -18.5t-49.5 18.5t-19.5 47.5zM545 794q0 30 19.5 48.5t49.5 18.5t49.5 -18.5t19.5 -48.5
q0 -29 -19.5 -47.5t-49.5 -18.5t-49.5 18.5t-19.5 47.5z" />
    <glyph glyph-name="wdieresis" unicode="&#x1e85;" horiz-adv-x="738" 
d="M195 1l-145 366q-9 23 -23.5 37.5t-24.5 17.5l-10 3v30h47l143 4l4 -4q-2 -5 -4.5 -13t-5.5 -33t8 -46l65 -176q8 -24 18 -62l70 158q13 28 0 62l-9 22q-9 22 -22.5 36.5t-21.5 18.5l-9 3v30h42l143 4l4 -4q-2 -5 -4.5 -13t-5.5 -33t8 -46l65 -174q8 -24 18 -62l100 226
q24 53 -53 72v30h145l5 -16q-11 -6 -32 -53l-177 -398l-60 13l-100 250l-117 -263zM272 557q-30 0 -49.5 18.5t-19.5 47.5q0 30 19.5 48.5t49.5 18.5t49.5 -18.5t19.5 -48.5q0 -29 -19.5 -47.5t-49.5 -18.5zM498 557q-30 0 -49.5 18.5t-19.5 47.5q0 30 19.5 48.5t49.5 18.5
t49.5 -18.5t19.5 -48.5q0 -29 -19.5 -47.5t-49.5 -18.5z" />
    <glyph glyph-name="uni1E9E" unicode="&#x1e9e;" horiz-adv-x="692" 
d="M24 -3v37q57 8 57 65v244q0 169 79 252.5t218 83.5q42 0 121 -6t98 -6l11 -31q-24 -24 -54 -67l-100 -145q87 -29 147 -85.5t60 -138.5q0 -83 -61 -147.5t-159 -64.5q-33 0 -65.5 7t-59 25.5t-26.5 45.5q0 19 14 33.5t33 14.5t32.5 -12t20 -26.5t20.5 -26.5t34 -12
q34 0 62.5 35.5t28.5 78.5q0 37 -19.5 69t-51.5 54t-63 36.5t-65 24.5l-4 35q29 25 58 66l92 134l17 28q-50 31 -124 31q-161 0 -161 -269v-261l-5 -54l48 -9l-4 -33z" />
    <glyph glyph-name="Ygrave" unicode="&#x1ef2;" horiz-adv-x="592" 
d="M165 -3v37q32 4 49.5 21t17.5 44v196l-184 298q-11 17 -24 28t-21 13l-8 3v30h53l142 4l4 -4q-18 -39 2 -72l110 -186q15 -26 28 -56l135 222q14 19 5 37.5t-45 24.5v30h170l5 -19q-31 -11 -60 -57l-178 -284v-208l-5 -54l85 -9l-4 -33zM172 771v29l43 71h5l192 -113
l-19 -41z" />
    <glyph glyph-name="ygrave" unicode="&#x1ef3;" horiz-adv-x="472" 
d="M79 -135q88 0 127 92l9 22q-8 25 -31 79l-135 309q-10 22 -24.5 36.5t-24.5 18.5l-9 3v30h47l146 4l4 -4q-21 -43 -2 -92l73 -178q8 -19 19 -59l97 227q10 27 -6.5 45t-48.5 27v30h147l5 -16q-15 -14 -32 -53l-151 -353q-2 -4 -15 -35t-19 -43.5l-21.5 -43t-26 -46
t-28 -38.5t-33.5 -34.5t-36.5 -20.5t-41.5 -9q-26 0 -40.5 14.5t-14.5 36.5q0 21 16 36t50 15zM114 683v27l121 -11l76 -171l-40 -21z" />
    <glyph glyph-name="thinspace" unicode="&#x2009;" horiz-adv-x="15" 
 />
    <glyph glyph-name="endash" unicode="&#x2013;" 
d="M55 221v71h410v-71h-410z" />
    <glyph glyph-name="emdash" unicode="&#x2014;" horiz-adv-x="910" 
d="M55 221v71h800v-71h-800z" />
    <glyph glyph-name="quoteleft" unicode="&#x2018;" horiz-adv-x="210" 
d="M33 548q0 94 121 189l27 -32q-68 -66 -68 -107q0 -44 70 -79v-46l-93 -50q-57 61 -57 125z" />
    <glyph glyph-name="quoteright" unicode="&#x2019;" horiz-adv-x="210" 
d="M36 641v46l93 50q57 -61 57 -125q0 -94 -121 -189l-27 32q68 66 68 107q0 44 -70 79z" />
    <glyph glyph-name="quotesinglbase" unicode="&#x201a;" horiz-adv-x="235" 
d="M43 56v46l93 50q57 -61 57 -125q0 -94 -121 -189l-27 32q68 66 68 107q0 44 -70 79z" />
    <glyph glyph-name="quotedblleft" unicode="&#x201c;" horiz-adv-x="400" 
d="M223 548q0 94 121 189l27 -32q-68 -66 -68 -107q0 -44 70 -79v-46l-93 -50q-57 61 -57 125zM33 548q0 94 121 189l27 -32q-68 -66 -68 -107q0 -44 70 -79v-46l-93 -50q-57 61 -57 125z" />
    <glyph glyph-name="quotedblright" unicode="&#x201d;" horiz-adv-x="400" 
d="M36 641v46l93 50q57 -61 57 -125q0 -94 -121 -189l-27 32q68 66 68 107q0 44 -70 79zM226 641v46l93 50q57 -61 57 -125q0 -94 -121 -189l-27 32q68 66 68 107q0 44 -70 79z" />
    <glyph glyph-name="quotedblbase" unicode="&#x201e;" horiz-adv-x="425" 
d="M43 56v46l93 50q57 -61 57 -125q0 -94 -121 -189l-27 32q68 66 68 107q0 44 -70 79zM233 56v46l93 50q57 -61 57 -125q0 -94 -121 -189l-27 32q68 66 68 107q0 44 -70 79z" />
    <glyph glyph-name="dagger" unicode="&#x2020;" horiz-adv-x="526" 
d="M80 370q-25 0 -37 15t-12 33t12.5 33.5t36.5 15.5q12 0 66 -12.5t90 -16.5q-2 41 -15.5 101.5t-13.5 71.5q0 28 17.5 42t38.5 14q20 0 37.5 -14t17.5 -42q0 -11 -13.5 -71.5t-15.5 -101.5q36 4 90.5 16.5t66.5 12.5q24 0 36.5 -15.5t12.5 -33.5t-12 -33t-37 -15
q-12 0 -66.5 12t-90.5 16v-289q0 -46 14.5 -114.5t14.5 -77.5q0 -28 -17.5 -42t-37.5 -14q-21 0 -38.5 14t-17.5 42q0 9 15 77.5t15 114.5v289q-36 -4 -90.5 -16t-66.5 -12z" />
    <glyph glyph-name="daggerdbl" unicode="&#x2021;" horiz-adv-x="526" 
d="M80 370q-25 0 -37 15t-12 33t12.5 33.5t36.5 15.5q12 0 66 -12.5t90 -16.5q-2 41 -15.5 101.5t-13.5 71.5q0 28 17.5 42t38.5 14q20 0 37.5 -14t17.5 -42q0 -11 -13.5 -71.5t-15.5 -101.5q36 4 90.5 16.5t66.5 12.5q24 0 36.5 -15.5t12.5 -33.5t-12 -33t-37 -15
q-12 0 -66.5 12t-90.5 16v-258q36 4 90.5 16.5t66.5 12.5q24 0 36.5 -15.5t12.5 -33.5t-12 -33t-37 -15q-12 0 -66.5 12t-90.5 16q1 -44 15 -108.5t14 -74.5q0 -28 -17.5 -42t-37.5 -14q-21 0 -38.5 14t-17.5 42q0 10 14.5 74.5t15.5 108.5q-36 -4 -90.5 -16t-66.5 -12
q-25 0 -37 15t-12 33t12.5 33.5t36.5 15.5q12 0 66 -12.5t91 -16.5v258q-36 -4 -90.5 -16t-66.5 -12z" />
    <glyph glyph-name="bullet" unicode="&#x2022;" horiz-adv-x="428" 
d="M214 104q-64 0 -108 44t-44 108t44 108t108 44t108 -44t44 -108t-44 -108t-108 -44z" />
    <glyph glyph-name="ellipsis" unicode="&#x2026;" horiz-adv-x="803" 
d="M45 65q0 32 22.5 55t54.5 23t55 -23t23 -55t-23 -54.5t-55 -22.5t-54.5 23t-22.5 54zM324 65q0 32 22.5 55t54.5 23t55 -23t23 -55t-23 -54.5t-55 -22.5q-31 0 -54 23t-23 54zM603 65q0 32 22.5 55t54.5 23t55 -23t23 -55t-23 -54.5t-55 -22.5t-54.5 23t-22.5 54z" />
    <glyph glyph-name="perthousand" unicode="&#x2030;" horiz-adv-x="1132" 
d="M34 510q0 65 48 111t116 46t116 -46t48 -111t-48 -111.5t-116 -46.5t-116 46.5t-48 111.5zM116 510q0 -36 24.5 -64t57.5 -28t57.5 28t24.5 64t-24.5 64t-57.5 28t-57.5 -28t-24.5 -64zM120 0l471 678l44 -29l-451 -649h-64zM404 146q0 65 48 111t116 46t116 -46t48 -111
t-48 -111.5t-116 -46.5t-116 46.5t-48 111.5zM486 146q0 -36 24.5 -64t57.5 -28t57.5 28t24.5 64t-24.5 64t-57.5 28t-57.5 -28t-24.5 -64zM777 146q0 65 48 111t116 46t116 -46t48 -111t-48 -111.5t-116 -46.5t-116 46.5t-48 111.5zM859 146q0 -36 24.5 -64t57.5 -28
t57.5 28t24.5 64t-24.5 64t-57.5 28t-57.5 -28t-24.5 -64z" />
    <glyph glyph-name="guilsinglleft" unicode="&#x2039;" horiz-adv-x="314" 
d="M26 251v4q17 12 48.5 43l167.5 169l36 -10l-121 -204l121 -203l-36 -10l-164 165.5t-52 45.5z" />
    <glyph glyph-name="guilsinglright" unicode="&#x203a;" horiz-adv-x="314" 
d="M36 50l121 203l-121 204l36 10l167.5 -169t48.5 -43v-4q-18 -12 -52 -45.5l-164 -165.5z" />
    <glyph glyph-name="fraction" unicode="&#x2044;" horiz-adv-x="129" 
d="M-93 0h-66l395 685l52 -21z" />
    <glyph glyph-name="zerosuperior" unicode="&#x2070;" horiz-adv-x="379" 
d="M190 401q47 0 47 178q0 176 -47 176q-48 0 -48 -175q0 -179 48 -179zM185 369q-41 0 -72 17t-48.5 46t-26 63.5t-8.5 74.5q0 57 16 104t54 80t94 33q80 0 117.5 -56.5t37.5 -141.5q0 -57 -16 -105t-54 -81.5t-94 -33.5z" />
    <glyph glyph-name="foursuperior" unicode="&#x2074;" horiz-adv-x="358" 
d="M13 481l-8 39l191 258l82 9q-3 -20 -3 -69v-186h68l-10 -51h-58v-39l-2 -30l56 -5l-2 -29l-204 -4v30q45 5 45 38v39h-155zM58 532h110v144z" />
    <glyph glyph-name="fivesuperior" unicode="&#x2075;" horiz-adv-x="306" 
d="M124 369q-37 0 -68 11t-31 38q0 12 9.5 19.5t22.5 7.5q22 0 42 -23t34 -23q21 0 36 20.5t15 48.5q0 24 -15 42.5t-36 28.5t-42 17t-36 9l-15 2l11 213h159l53 6l-11 -75h-167l-3 -55q21 -3 47.5 -10.5t65.5 -24t64.5 -47.5t25.5 -71q0 -53 -46.5 -93.5t-114.5 -40.5z" />
    <glyph glyph-name="sixsuperior" unicode="&#x2076;" horiz-adv-x="359" 
d="M23 540q0 94 70.5 170.5t191.5 76.5l4 -31q-79 -6 -117.5 -66t-38.5 -144q0 -55 15 -100.5t41 -45.5q19 0 30.5 27t11.5 65q0 13 -2 28.5t-6.5 35t-15 31.5t-25.5 10l-2 35q12 3 30 3q61 0 96.5 -36.5t35.5 -84.5q0 -54 -43.5 -99.5t-116.5 -45.5q-75 0 -117 50.5
t-42 120.5z" />
    <glyph glyph-name="sevensuperior" unicode="&#x2077;" horiz-adv-x="310" 
d="M108 369q-13 0 -20.5 8t-7.5 19q0 12 9.5 26.5t26 34.5t25.5 35q30 49 70 143l22 51h-133q-28 0 -37.5 -5.5t-18.5 -31.5h-33l26 131h225l49 5l1 -23q-24 -44 -32 -62l-102 -233q-3 -6 -10.5 -24.5t-12.5 -27.5l-12.5 -22t-16 -18.5t-18.5 -5.5z" />
    <glyph glyph-name="eightsuperior" unicode="&#x2078;" horiz-adv-x="352" 
d="M170 369q-56 0 -99.5 24.5t-43.5 72.5q0 24 15.5 45.5t27.5 30t41 26.5q-69 54 -69 113q0 48 38 77t102 29q58 0 92.5 -23t34.5 -61q0 -16 -5.5 -28.5t-20 -25t-22.5 -18.5t-31 -20q45 -32 70 -61.5t25 -66.5q0 -47 -43.5 -80.5t-111.5 -33.5zM174 401q27 0 43 12.5
t16 36.5q0 7 -2.5 14t-8.5 15t-10.5 13t-16 14l-17 13t-20.5 14t-20 14q-30 -31 -30 -71q0 -36 17 -55.5t49 -19.5zM132 715q0 -34 69 -84q27 24 27 70q0 26 -13.5 40t-35.5 14q-20 0 -33.5 -10.5t-13.5 -29.5z" />
    <glyph glyph-name="ninesuperior" unicode="&#x2079;" horiz-adv-x="356" 
d="M71 369l-4 31q79 6 117.5 66t38.5 144q0 55 -15 100.5t-41 45.5q-17 0 -28 -27t-11 -65q0 -18 2.5 -40t14 -45t29.5 -20l2 -35q-12 -3 -30 -3q-59 0 -94 36.5t-35 84.5q0 54 43 99.5t114 45.5q75 0 117 -50.5t42 -120.5q0 -94 -70.5 -170.5t-191.5 -76.5z" />
    <glyph glyph-name="n.sups" unicode="&#x207f;" horiz-adv-x="423" 
d="M25 295v28q39 4 39 43v164q0 19 -0.5 26t-4.5 12.5t-13 5.5h-30v26q38 6 75 15t55 15l19 6l3 -3q-7 -15 -10 -71q50 63 119 63q87 0 87 -96v-163l-3 -35l54 -7l-2 -25l-176 -4v28q28 4 28 43v137q0 33 -7.5 45t-26.5 12q-38 0 -68 -24v-170l-3 -35l37 -8l-2 -24z" />
    <glyph glyph-name="zeroinferior" unicode="&#x2080;" horiz-adv-x="377" 
d="M189 -88q47 0 47 178q0 176 -47 176q-48 0 -48 -175q0 -179 48 -179zM184 -120q-41 0 -72 17t-48.5 46t-26 63.5t-8.5 74.5q0 57 16 104t54 80t94 33q80 0 117.5 -56.5t37.5 -141.5q0 -57 -16 -105t-54 -81.5t-94 -33.5z" />
    <glyph glyph-name="oneinferior" unicode="&#x2081;" horiz-adv-x="293" 
d="M26 -115v33l42 2q23 1 29.5 10t6.5 25v241q0 16 -2.5 22.5t-7 6t-11.5 -1.5l-60 -14l-9 36q57 14 108 28.5l74 21.5l22 7l3 -4q-8 -21 -8 -68v-275l-2 -30l79 -5l-3 -31z" />
    <glyph glyph-name="twoinferior" unicode="&#x2082;" horiz-adv-x="343" 
d="M27 -113l-9 31q101 99 122 129q40 59 40 108q0 35 -18.5 53t-46.5 18q-37 0 -74 -25l-22 25q7 8 19.5 20t51.5 32t79 20q49 0 86 -26.5t37 -71.5q0 -25 -10 -49.5t-40.5 -60.5t-48.5 -54.5l-72 -71.5h109q27 0 38.5 11.5t20.5 41.5h33l-18 -130h-277z" />
    <glyph glyph-name="threeinferior" unicode="&#x2083;" horiz-adv-x="326" 
d="M131 -120q-44 0 -81.5 11t-37.5 38q0 12 10 19.5t23 7.5q25 0 47 -23t42 -23q19 0 34 27t15 59q0 34 -19.5 56t-53.5 22l-29 -3v40q82 16 82 86q0 40 -47 40q-34 0 -61 -18l-20 26q5 6 15 15t42 23.5t66 14.5q51 0 85 -20.5t34 -60.5q0 -35 -30.5 -62t-70.5 -42
q54 -8 90.5 -38.5t36.5 -68.5q0 -52 -50.5 -89t-121.5 -37z" />
    <glyph glyph-name="fourinferior" unicode="&#x2084;" horiz-adv-x="357" 
d="M13 -8l-8 39l191 258l82 9q-3 -20 -3 -69v-186h68l-10 -51h-58v-39l-2 -30l56 -5l-2 -29l-204 -4v30q45 5 45 38v39h-155zM58 43h110v144z" />
    <glyph glyph-name="fiveinferior" unicode="&#x2085;" horiz-adv-x="306" 
d="M124 -120q-37 0 -68 11t-31 38q0 12 9.5 19.5t22.5 7.5q22 0 42 -23t34 -23q21 0 36 20.5t15 48.5q0 24 -15 42.5t-36 28.5t-42 17t-36 9l-15 2l11 213h159l53 6l-11 -75h-167l-3 -55q21 -3 47.5 -10.5t65.5 -24t64.5 -47.5t25.5 -71q0 -53 -46.5 -93.5t-114.5 -40.5z
" />
    <glyph glyph-name="sixinferior" unicode="&#x2086;" horiz-adv-x="357" 
d="M22 51q0 94 70.5 170.5t191.5 76.5l4 -31q-79 -6 -117.5 -66t-38.5 -144q0 -55 15 -100.5t41 -45.5q19 0 30.5 27t11.5 65q0 13 -2 28.5t-6.5 35t-15 31.5t-25.5 10l-2 35q12 3 30 3q61 0 96.5 -36.5t35.5 -84.5q0 -54 -43.5 -99.5t-116.5 -45.5q-75 0 -117 50.5
t-42 120.5z" />
    <glyph glyph-name="seveninferior" unicode="&#x2087;" horiz-adv-x="311" 
d="M108 -120q-13 0 -20.5 8t-7.5 19q0 12 9.5 26.5t26 34.5t25.5 35q30 49 70 143l22 51h-133q-28 0 -37.5 -5.5t-18.5 -31.5h-33l26 131h225l49 5l1 -23q-24 -44 -32 -62l-102 -233q-3 -6 -10.5 -24.5t-12.5 -27.5l-12.5 -22t-16 -18.5t-18.5 -5.5z" />
    <glyph glyph-name="eightinferior" unicode="&#x2088;" horiz-adv-x="352" 
d="M170 -120q-56 0 -99.5 24.5t-43.5 72.5q0 24 15.5 45.5t27.5 30t41 26.5q-69 54 -69 113q0 48 38 77t102 29q58 0 92.5 -23t34.5 -61q0 -16 -5.5 -28.5t-20 -25t-22.5 -18.5t-31 -20q45 -32 70 -61.5t25 -66.5q0 -47 -43.5 -80.5t-111.5 -33.5zM174 -88q27 0 43 12.5
t16 36.5q0 7 -2.5 14t-8.5 15t-10.5 13t-16 14l-17 13t-20.5 14t-20 14q-30 -31 -30 -71q0 -36 17 -55.5t49 -19.5zM132 226q0 -34 69 -84q27 24 27 70q0 26 -13.5 40t-35.5 14q-20 0 -33.5 -10.5t-13.5 -29.5z" />
    <glyph glyph-name="nineinferior" unicode="&#x2089;" horiz-adv-x="354" 
d="M70 -120l-4 31q79 6 117.5 66t38.5 144q0 55 -15 100.5t-41 45.5q-17 0 -28 -27t-11 -65q0 -18 2.5 -40t14 -45t29.5 -20l2 -35q-12 -3 -30 -3q-59 0 -94 36.5t-35 84.5q0 54 43 99.5t114 45.5q75 0 117 -50.5t42 -120.5q0 -94 -70.5 -170.5t-191.5 -76.5z" />
    <glyph glyph-name="Euro" unicode="&#x20ac;" horiz-adv-x="547" 
d="M33 198v45h50v22q0 13 2 41h-52v45h60q23 95 91.5 157t171.5 62q36 0 76.5 -8t63.5 -16l22 -9l-34 -114h-34q-2 49 -26.5 76.5t-67.5 27.5q-58 0 -92 -48.5t-43 -127.5h242l-13 -45h-232v-8q0 -31 4 -55h209l-13 -45h-187q19 -64 59 -102t97 -38q27 0 55.5 7t43.5 14
l14 7l15 -29q-7 -8 -20.5 -19.5t-58.5 -30.5t-94 -19q-105 0 -169.5 59t-83.5 151h-56z" />
    <glyph glyph-name="trademark" unicode="&#x2122;" horiz-adv-x="758" 
d="M99 397v26q35 2 35 26v189h-28q-20 0 -31.5 -11t-24.5 -44h-25l13 86q18 -2 39 -2h200l41 2l-13 -86h-24q0 32 -10 43.5t-34 11.5h-32v-189l-2 -22l46 -4l-1 -24zM326 397v26q27 2 29 24l8 173q1 14 -4 19.5t-24 10.5v17h36l88 2l2 -2l13 -37l35 -99l7 -26l50 134l10 28
h12l93 2l2 -2q-2 -2 -4.5 -5.5t-6 -17t-2.5 -28.5l9 -170l-2 -21l42 -2l-2 -24l-145 -2v26q35 2 35 23l-7 182l-87 -230l-32 4l-82 225l-7 -180l-3 -22l43 -2l-2 -24z" />
    <glyph glyph-name="arrowleft" unicode="&#x2190;" horiz-adv-x="631" 
d="M326 80l-205.5 207.5t-64.5 56.5v5q20 14 59.5 52.5l210.5 212.5l45 -13l-124 -219h321v-71h-322l125 -219z" />
    <glyph glyph-name="arrowup" unicode="&#x2191;" horiz-adv-x="631" 
d="M281 80v344l-219 -124l-13 45l212.5 210.5t52.5 59.5h5q15 -22 56.5 -64.5l207.5 -205.5l-12 -45l-219 125v-345h-71z" />
    <glyph glyph-name="arrowright" unicode="&#x2192;" horiz-adv-x="631" 
d="M63 311v71h321l-124 219l45 13l210.5 -212.5t59.5 -52.5v-5q-22 -15 -64.5 -56.5l-205.5 -207.5l-45 12q108 191 125 219h-322z" />
    <glyph glyph-name="arrowdown" unicode="&#x2193;" horiz-adv-x="631" 
d="M314 80q-14 20 -52.5 59.5l-212.5 210.5l13 45l219 -124v344h71v-345l219 125l12 -45l-207.5 -205.5t-56.5 -64.5h-5z" />
    <glyph glyph-name="partialdiff" unicode="&#x2202;" horiz-adv-x="526" 
d="M24 211q0 86 55 150.5t153 64.5q71 0 120 -37q-2 86 -19 150t-43 95.5t-50.5 45.5t-47.5 14q-19 0 -48.5 -16t-47.5 -16q-19 0 -32 11t-13 30q0 46 77 46q110 0 194 -57t125 -143t41 -184q0 -41 -7 -86.5t-25.5 -98.5t-46 -94.5t-74 -69.5t-104.5 -28q-97 0 -152 68
t-55 155zM222 32q58 0 92.5 92.5t37.5 222.5q-34 17 -62 17q-41 0 -74 -36.5t-48.5 -86.5t-15.5 -98q0 -49 18 -80t52 -31z" />
    <glyph glyph-name="Delta" unicode="&#x2206;" horiz-adv-x="630" 
d="M28 0v34l270 633h45l254 -633v-34h-569zM107 60h353l-173 445z" />
    <glyph glyph-name="product" unicode="&#x220f;" horiz-adv-x="758" 
d="M30 615v52h698v-52h-78l-12 -12v-595l-5 -54l90 -9l-4 -33l-287 -6v37q34 4 53 21t19 44v607h-238l-12 -12v-595l-5 -54l90 -9l-4 -33l-287 -6v37q34 4 53 21t19 44v607h-90z" />
    <glyph glyph-name="summation" unicode="&#x2211;" horiz-adv-x="628" 
d="M27 -58l260 319l-254 378v28h489l26 -157l-40 -7q-36 71 -63 91.5t-93 20.5h-142l196 -296l-241 -298h225q66 0 98 19.5t65 85.5h41l-47 -216h-360l-160 -3v35z" />
    <glyph glyph-name="minus" unicode="&#x2212;" 
d="M36 218v71h448v-71h-448z" />
    <glyph glyph-name="radical" unicode="&#x221a;" horiz-adv-x="607" 
d="M8 380v70h196l103 -283l206 582h76l-282 -785h-2l-154 416h-143z" />
    <glyph glyph-name="infinity" unicode="&#x221e;" horiz-adv-x="790" 
d="M204 84q-67 0 -115.5 48.5t-48.5 117.5t48.5 117.5t115.5 48.5q97 0 190 -114q95 114 192 114q67 0 115.5 -48.5t48.5 -117.5t-48.5 -117.5t-115.5 -48.5q-99 0 -192 114q-91 -114 -190 -114zM204 148q33 0 71 25.5t59 50.5l22 26l-8.5 11t-23 24.5t-34.5 31t-41 24.5
t-45 11q-35 0 -63 -30t-28 -72t28 -72t63 -30zM433 250q3 -4 9 -11t23.5 -24.5t34.5 -31t41 -24.5t45 -11q35 0 63 30t28 72t-28 72t-63 30q-33 0 -71.5 -25.5t-60.5 -50.5z" />
    <glyph glyph-name="integral" unicode="&#x222b;" horiz-adv-x="561" 
d="M81 -144q24 0 50 -14.5t43 -14.5q18 0 25.5 9t13 53t5.5 137q0 36 -1 129t-1 124q0 245 58.5 357.5t174.5 112.5q84 0 84 -45q0 -23 -15 -35t-37 -12q-18 0 -45 14.5t-46 14.5q-14 0 -22 -8t-14.5 -45.5t-6.5 -110.5q0 -32 1.5 -111t1.5 -126q0 -279 -54.5 -400.5
t-182.5 -121.5q-37 0 -58.5 12.5t-21.5 36.5q0 21 15 32.5t33 11.5z" />
    <glyph glyph-name="approxequal" unicode="&#x2248;" 
d="M60 289l-38 55q71 71 149 71q46 0 97.5 -35t80.5 -35q61 0 111 54l39 -55q-28 -29 -68.5 -50t-81.5 -21q-46 0 -97.5 35t-80.5 35q-57 0 -111 -54zM60 100l-38 55q71 71 149 71q46 0 97.5 -35t80.5 -35q61 0 111 54l39 -55q-28 -29 -68.5 -50t-81.5 -21q-46 0 -97.5 35
t-80.5 35q-57 0 -111 -54z" />
    <glyph glyph-name="notequal" unicode="&#x2260;" 
d="M41 303v70h264l73 122l50 -30l-55 -92h106v-70h-147l-62 -105h209v-70h-251l-75 -127l-50 30l57 97h-119v70h161l62 105h-223z" />
    <glyph glyph-name="lessequal" unicode="&#x2264;" 
d="M30 321v46l426 204l20 -71l-335 -156l335 -166l-20 -70zM30 0v71h448v-71h-448z" />
    <glyph glyph-name="greaterequal" unicode="&#x2265;" 
d="M63 108l-20 70l335 166l-335 156l20 71l426 -204v-46zM41 0v71h448v-71h-448z" />
    <glyph glyph-name="triagup" unicode="&#x25b2;" horiz-adv-x="631" 
d="M64 147l-12 36q96 115 161.5 203.5t82.5 119.5l17 30h5q5 -11 18.5 -33.5t80 -113.5t162.5 -206l-12 -36q-56 19 -251.5 19t-251.5 -19z" />
    <glyph glyph-name="triagrt" unicode="&#x25ba;" horiz-adv-x="631" 
d="M133 92q19 56 19 251.5t-19 251.5l36 12q115 -96 203.5 -161.5t119.5 -82.5l30 -17v-5q-11 -5 -33.5 -18.5t-113.5 -80t-206 -162.5z" />
    <glyph glyph-name="triagdn" unicode="&#x25bc;" horiz-adv-x="631" 
d="M313 147q-5 11 -18.5 33.5t-80 113.5t-162.5 206l12 36q56 -19 251.5 -19t251.5 19l12 -36q-96 -115 -161.5 -203.5t-82.5 -118.5l-17 -31h-5z" />
    <glyph glyph-name="triaglf" unicode="&#x25c4;" horiz-adv-x="631" 
d="M110 341v5q11 5 33.5 18.5t113.5 80t206 162.5l36 -12q-19 -56 -19 -251.5t19 -251.5l-36 -12q-115 96 -203.5 161t-119.5 83z" />
    <glyph glyph-name="lozenge" unicode="&#x25ca;" horiz-adv-x="512" 
d="M246 -38l-217 401l217 390h20l216 -390l-216 -401h-20zM256 68l154 296l-155 283l-154 -283z" />
    <glyph glyph-name="Euro.uc" unicode="&#xe012;" 
d="M12 361v50h58q22 117 94.5 192.5t186.5 75.5q21 0 46.5 -3.5t42 -7l45 -10t39.5 -8.5l-47 -141h-40q7 45 -20.5 84.5t-75.5 39.5q-60 0 -96.5 -63.5t-44.5 -158.5h247l-16 -50h-233q0 -39 4 -68h208l-16 -50h-183q20 -85 68.5 -134t121.5 -49q24 0 49 5t38 11l14 5
l14 -28q-8 -7 -22.5 -18t-62.5 -29t-99 -18q-108 0 -176 72t-87 183h-57v50h51q-1 10 -1 30q0 25 1 38h-51z" />
    <glyph glyph-name="cent.uc" unicode="&#xe028;" 
d="M254 0l5 111q-99 6 -153 68.5t-54 149.5q0 89 60.5 158.5t166.5 73.5l5 118h50l-6 -121q52 -8 91 -28.5t39 -52.5q0 -23 -12 -35.5t-34 -12.5q-17 0 -31 11t-30.5 32t-24.5 29l-14 -315h9q63 0 128 49l14 -28q-6 -9 -17 -22.5t-51 -39.5t-86 -32l-5 -113h-50zM188 379
q0 -53 20 -102t55 -73l14 317q-44 -4 -66.5 -44t-22.5 -98z" />
    <glyph glyph-name="dollar.uc" unicode="&#xe02c;" 
d="M44 94q0 21 30 112h39q0 -65 33 -106t83 -51l7 219q-32 17 -45 24.5t-41 25.5t-41.5 32t-30 35t-23.5 45t-7 52q0 75 54.5 125.5t147.5 55.5l4 103h50l-4 -103q32 -1 62 -4.5t57 -8t38 -5.5l-32 -158h-39q-4 104 -88 127l-7 -213q43 -22 67 -36.5t55.5 -40.5t46.5 -59
t15 -74q0 -86 -56 -133.5t-142 -53.5l-3 -103h-50l3 102q-77 3 -130 26t-53 65zM161 525q0 -30 20.5 -52.5t60.5 -45.5l7 191q-37 -3 -62.5 -29t-25.5 -64zM362 143q0 50 -77 97l-6 -193q36 6 59.5 30t23.5 66z" />
    <glyph glyph-name="dotlessi.smcp" unicode="&#xe033;" horiz-adv-x="317" 
d="M42 -3v33q55 8 55 59v306q0 35 -8 45.5t-49 19.5v27h61l145 4l4 -4q-24 -38 -24 -113v-285l-5 -49l72 -8l-4 -30z" />
    <glyph glyph-name="florin.uc" unicode="&#xe039;" 
d="M57 338v50h134q27 180 88.5 258t165.5 78q100 0 100 -50q0 -20 -15 -31.5t-36 -11.5q-25 0 -56.5 18t-49.5 18q-13 0 -19.5 -6t-14 -37t-14 -81.5t-17.5 -154.5h151l-16 -50h-140l-2 -21q-19 -181 -55.5 -285.5t-87 -145t-127.5 -40.5q-100 0 -100 50q0 20 15 31.5
t36 11.5q25 0 56.5 -18t49.5 -18q19 0 27 21q16 42 48 349l4 44q0 7 2 21h-127z" />
    <glyph glyph-name="sterling.uc" unicode="&#xe03f;" 
d="M27 281v50h80q0 1 0.5 3.5t0.5 4.5q3 44 5.5 71.5t9.5 67.5t17 65t27 53.5t40.5 44.5t57.5 27t77 11q123 0 123 -59q0 -19 -12 -32.5t-31 -13.5q-22 0 -62.5 31.5t-60.5 31.5q-17 0 -27 -15t-14 -47t-5.5 -63.5t-2.5 -84t-4 -88.5q0 -2 -0.5 -4.5t-0.5 -3.5h156l-6 -50
h-155q-8 -62 -21.5 -106.5t-22.5 -58.5l-10 -13q72 -28 141 -28q49 0 89.5 18.5t48.5 60.5l7 35h38q-3 -34 -7 -58t-15 -56t-27.5 -52t-47 -34t-71.5 -14q-43 0 -116.5 21t-105.5 21q-38 0 -84 -17l-14 34q18 13 26 21q27 27 37.5 72.5t18.5 153.5h-77z" />
    <glyph glyph-name="orn.001" unicode="&#xe04e;" horiz-adv-x="714" 
d="M358 396q-11 13 -16 32l-45 175q-5 19 17 30.5t44 11.5t43 -11.5t16 -30.5l-45 -175zM297 76l45 175q2 8 6 16t7 12l3 4q9 -13 14 -32l45 -175q5 -19 -16 -30.5t-43 -11.5t-44 11.5t-17 30.5zM407 368q4 14 19 28l129 126q11 11 24.5 6.5t24.5 -14.5t18 -21
q7 -12 10.5 -27.5t0 -29.5t-15.5 -17l-176 -48zM100 419q-13 4 -17 18t-1 29t10 27q7 11 18 21t24.5 15t24.5 -6l129 -127q7 -6 11.5 -13t6.5 -11l1 -4q-15 -2 -34 3zM426 283q-7 6 -11.5 13t-6.5 11l-1 4q15 2 34 -3l173 -48q13 -4 17 -18t1 -29t-10 -27q-11 -19 -32 -31
t-35 1zM92 186q-7 12 -10 27t0.5 29t16.5 18l174 48l34 3q-4 -14 -19 -28l-129 -126q-11 -11 -24.5 -6.5t-24.5 14.5t-18 21z" />
    <glyph glyph-name="orn.002" unicode="&#xe04f;" horiz-adv-x="674" 
d="M80 419q-13 4 -17 18t-1 29t10 27q7 11 18 21t24.5 15t24.5 -6l125 -123q22 27 56 33l-43 170q-5 19 17 30.5t44 11.5t43 -11.5t16 -30.5l-44 -170q35 -6 58 -32l124 121q11 11 24.5 6.5t24.5 -14.5t18 -21q7 -12 10.5 -27.5t0 -29.5t-15.5 -17l-170 -47q6 -20 6 -32
q0 -18 -6 -34l167 -46q13 -4 17 -18t1 -29t-10 -27q-11 -19 -32 -31t-35 1l-125 122q-22 -27 -57 -32l44 -170q5 -19 -16 -30.5t-43 -11.5t-44 11.5t-17 30.5l44 170q-35 6 -57 33l-125 -122q-11 -11 -24.5 -6.5t-24.5 14.5t-18 21q-7 12 -10 27t0.5 29t16.5 18l170 47
q-6 15 -6 33q0 15 5 32zM338 283q23 0 39.5 16.5t16.5 39.5t-16.5 39.5t-39.5 16.5t-39.5 -16.5t-16.5 -39.5t16.5 -39.5t39.5 -16.5z" />
    <glyph glyph-name="orn.003" unicode="&#xe050;" horiz-adv-x="912" 
d="M125 216q-50 0 -50 67q0 72 55 136t139 64q40 0 78 -19t61.5 -40.5t55.5 -54.5q7 -8 10 -11q63 -66 92 -85q38 -24 73 -24q43 0 77.5 28.5t34.5 77.5q0 19 -7 41t-7 31q0 21 14.5 33.5t35.5 12.5q50 0 50 -67q0 -71 -55 -135.5t-139 -64.5q-41 0 -80.5 20.5t-61.5 41
t-59 60.5q-36 39 -53 56t-50.5 36.5t-64.5 19.5q-44 0 -78.5 -28.5t-34.5 -77.5q0 -18 7 -40t7 -32q0 -21 -14.5 -33.5t-35.5 -12.5z" />
    <glyph glyph-name="orn.004" unicode="&#xe051;" horiz-adv-x="912" 
d="M125 219q-45 0 -45 65q0 71 54.5 135t135.5 64q31 0 59 -10t56 -31.5t44.5 -37.5l45.5 -46q35 -37 54 -55t50 -36t60 -18q43 0 79 28.5t36 77.5q0 19 -7 41t-7 31q0 19 14 31t33 12q45 0 45 -66q0 -70 -55 -134t-136 -64q-40 0 -79 20t-62.5 42t-58.5 60l-40.5 42.5
t-36 32.5t-45.5 29t-45 8q-44 0 -80 -28.5t-36 -77.5q0 -18 7 -40t7 -32q0 -19 -14 -31t-33 -12zM373 587q-19 0 -31 14t-12 33q0 45 66 45q69 0 133.5 -54t64.5 -135q0 -11 -6.5 -17.5t-15.5 -6.5q-21 0 -21 24q-2 42 -30.5 76.5t-75.5 34.5q-19 0 -41 -7t-31 -7zM317 201
q0 9 6 15.5t15 6.5t15.5 -6.5t6.5 -15.5q0 -43 28.5 -78.5t77.5 -35.5q18 0 40 7t32 7q19 0 31 -14t12 -33q0 -45 -65 -45q-71 0 -135 55t-64 137z" />
    <glyph glyph-name="orn.005" unicode="&#xe052;" horiz-adv-x="714" 
d="M267 259q0 9 6 15.5t15 6.5t15.5 -6.5t6.5 -15.5q0 -43 28.5 -78.5t77.5 -35.5q18 0 40 7t32 7q19 0 31 -14t12 -33q0 -45 -65 -45q-71 0 -135 55t-64 137zM226 529q-19 0 -31 14t-12 33q0 45 65 45q71 0 135 -55t64 -137q0 -9 -6 -15.5t-15 -6.5t-15.5 6.5t-6.5 15.5
q0 43 -28.5 78.5t-77.5 35.5q-18 0 -40 -7t-32 -7zM420 275q0 9 6.5 15.5t15.5 6.5q43 0 78.5 28.5t35.5 77.5q0 19 -7 41t-7 31q0 19 14 31t33 12q45 0 45 -65q0 -71 -55 -135t-137 -64q-9 0 -15.5 6t-6.5 15zM125 170q-45 0 -45 65q0 71 55 135t137 64q9 0 15.5 -6
t6.5 -15t-6.5 -15.5t-15.5 -6.5q-43 0 -78.5 -28.5t-35.5 -77.5q0 -19 7 -40.5t7 -31.5q0 -19 -14 -31t-33 -12z" />
    <glyph glyph-name="orn.006" unicode="&#xe053;" horiz-adv-x="830" 
d="M70 333q0 143 101 244t244 101t244 -101t101 -244t-101 -244t-244 -101t-244 101t-101 244zM116 333q0 -126 86.5 -215t212.5 -89t212.5 89t86.5 215t-86.5 215t-212.5 89t-212.5 -89t-86.5 -215zM325 303q0 9 6 15.5t15 6.5t15.5 -6.5t6.5 -15.5q0 -43 28.5 -78.5
t77.5 -35.5q18 0 40 7t32 7q19 0 31 -14t12 -33q0 -45 -65 -45q-71 0 -135 55t-64 137zM284 463q-19 0 -31 14t-12 33q0 45 65 45q71 0 135 -55t64 -137q0 -9 -6 -15.5t-15 -6.5t-15.5 6.5t-6.5 15.5q0 43 -28.5 78.5t-77.5 35.5q-18 0 -40 -7t-32 -7zM423 264q0 9 6.5 15.5
t15.5 6.5q43 0 78.5 28.5t35.5 77.5q0 18 -7 40t-7 32q0 19 14 31t33 12q45 0 45 -65q0 -71 -55 -135t-137 -64q-9 0 -15.5 6t-6.5 15zM238 159q-45 0 -45 65q0 71 55 135t137 64q9 0 15.5 -6t6.5 -15t-6.5 -15.5t-15.5 -6.5q-43 0 -78.5 -28.5t-35.5 -77.5q0 -18 7 -40
t7 -32q0 -19 -14 -31t-33 -12z" />
    <glyph glyph-name="orn.007" unicode="&#xe054;" horiz-adv-x="830" 
d="M70 333q0 143 101 244t244 101t244 -101t101 -244t-101 -244t-244 -101t-244 101t-101 244zM116 333q0 -126 86.5 -215t212.5 -89t212.5 89t86.5 215t-86.5 215t-212.5 89t-212.5 -89t-86.5 -215zM414 375q-8 9 -11 23l-33 129q-4 14 11.5 22t32.5 8t32 -8t12 -22
l-33 -129q-1 -6 -4 -12t-5 -8zM370 139l33 129q1 6 4 12t5 8l2 3q8 -9 11 -23l33 -129q3 -14 -12 -22t-32 -8t-32 8t-12 22zM225 391q-14 5 -14 22.5t8 31.5q8 15 22 23.5t28 -0.5l94 -93q5 -4 8.5 -9.5t4.5 -8.5l2 -3q-11 -2 -26 2zM450 312q11 2 26 -2l127 -35
q10 -3 12.5 -13.5t0.5 -21.5t-7 -19q-8 -15 -22 -23.5t-28 0.5l-94 93q-5 4 -8.5 9.5t-4.5 8.5zM219 221q-8 14 -8.5 30.5t13.5 23.5l128 35l26 2q-4 -11 -15 -21l-94 -92q-14 -9 -28 -1t-22 23zM450 354q4 11 15 21l94 92q14 9 28 1t22 -23q5 -8 7 -19t-0.5 -21.5
t-11.5 -13.5l-128 -35z" />
    <glyph glyph-name="yen.uc" unicode="&#xe06a;" 
d="M55 306v50h120l-131 241q-8 15 -19.5 25t-18.5 12l-7 3v30h39l143 4l4 -4q-14 -27 2 -61l81 -168l24 -60l103 203q11 23 1 37.5t-37 18.5v30h155l4 -14q-30 -15 -50 -50l-135 -247h141v-50h-150v-63h150v-50h-150v-94l-5 -54l85 -9l-4 -33l-277 -6v37q32 4 49.5 21
t17.5 44v94h-135v50h135v63h-135z" />
    <glyph glyph-name="ct" unicode="&#xe087;" horiz-adv-x="818" 
d="M27 215q0 98 64.5 175t173.5 77q13 0 21 -1q-5 20 -5 37q0 75 59.5 128t141.5 53q84 0 130 -45t46 -118l-6 -66h142l-7 -61h-122l-12 -12v-222q0 -47 13 -69.5t50 -22.5q20 0 41 6t33 12l11 5l16 -26q-8 -9 -21.5 -21.5t-58 -34t-90.5 -21.5q-57 0 -89.5 32t-32.5 99v207
l3 65h-64v43q112 31 112 122q0 43 -28.5 65.5t-73.5 22.5q-57 0 -102.5 -39.5t-45.5 -93.5q0 -27 9 -52q39 -8 65 -26.5t26 -45.5q0 -20 -13.5 -34.5t-35.5 -14.5q-19 0 -34 13.5t-24 29t-26.5 29t-41.5 13.5q-49 0 -77 -48t-28 -117q0 -80 39 -130t113 -50q31 0 60.5 9
t43.5 17l14 9l12 -29q-2 -4 -6.5 -10.5t-21 -23t-35.5 -29t-52 -23t-69 -10.5q-100 0 -158.5 67t-58.5 160z" />
    <glyph glyph-name="germandbls.smcp" unicode="&#xe308;" horiz-adv-x="852" 
d="M37 64q0 17 27 95h37q0 -68 33.5 -96.5t75.5 -28.5q31 0 52 15t21 42t-24 48.5t-58.5 38.5t-69 37t-58.5 54.5t-24 81.5q0 67 47.5 107.5t139.5 40.5q30 0 140 -15l-26 -130h-37q3 99 -82 99q-36 0 -55 -16t-19 -42q0 -27 24 -47t58.5 -35.5t69 -35t58.5 -54.5t24 -84
q0 -73 -50 -112t-140 -39q-64 0 -114 19t-50 57zM461 64q0 17 27 95h37q0 -68 33.5 -96.5t75.5 -28.5q31 0 52 15t21 42t-24 48.5t-58.5 38.5t-69 37t-58.5 54.5t-24 81.5q0 67 47.5 107.5t139.5 40.5q30 0 140 -15l-26 -130h-37q3 99 -82 99q-36 0 -55 -16t-19 -42
q0 -27 24 -47t58.5 -35.5t69 -35t58.5 -54.5t24 -84q0 -73 -50 -112t-140 -39q-64 0 -114 19t-50 57z" />
    <glyph glyph-name="uni021B.smcp" unicode="&#xe30b;" horiz-adv-x="523" 
d="M140 -3v33q55 8 55 59v352h-57q-34 0 -52.5 -17t-41.5 -70h-37l23 137q20 -4 51 -4h384l54 4l-24 -137h-37q-2 52 -18.5 69.5t-58.5 17.5h-45l-12 -12v-340l-5 -49l81 -8l-4 -30zM189 -65l10 22h116q21 -29 21 -63q0 -41 -39.5 -79.5t-97.5 -63.5l-24 33q59 32 59 66
t-45 85z" />
    <glyph glyph-name="ordfeminine.smcp" unicode="&#xe351;" horiz-adv-x="444" 
d="M39 296v26q27 4 38 29l123 298l52 10l114 -291q17 -44 41 -47l-3 -25h-28l-131 -3v30q30 2 23 23l-15 45h-105l-13 -10l-21 -52l52 -7l-4 -26h-123zM182 501l-29 -72h87l-24 72l-14 57h-2q-10 -37 -18 -57z" />
    <glyph glyph-name="ordmasculine.smcp" unicode="&#xe352;" horiz-adv-x="476" 
d="M229 289q-97 0 -147 55t-50 126q0 77 57 135t161 58q52 0 91.5 -16t61.5 -42.5t32.5 -55.5t10.5 -59q0 -76 -56.5 -138.5t-160.5 -62.5zM245 328q46 0 69 41.5t23 103.5q0 65 -25 108.5t-77 43.5q-47 0 -71.5 -41t-24.5 -97q0 -67 28.5 -113t77.5 -46z" />
    <glyph glyph-name="a.sups" unicode="&#xe361;" horiz-adv-x="351" 
d="M102 289q-36 0 -61 21t-25 59q0 50 48.5 80t125.5 39v19q0 83 -32 83q-16 0 -32.5 -19t-25.5 -37l-8 -19h-35l-16 64q7 5 19 12.5t52 20.5t82 13q55 0 74.5 -22.5t19.5 -78.5v-154q0 -33 14 -33q6 0 14 3.5t12 7.5l5 4l14 -24q-37 -39 -91 -39q-30 0 -47 13.5t-17 38.5
q-4 -6 -12 -14.5t-31.5 -23t-46.5 -14.5zM144 348q8 0 19.5 5t18.5 10l7 5v82q-76 -9 -76 -64q0 -38 31 -38z" />
    <glyph glyph-name="b.sups" unicode="&#xe362;" horiz-adv-x="386" 
d="M44 297l-3 3q7 28 7 71v314q0 15 -1 21.5t-5.5 12t-14.5 5.5h-26v26q48 8 85.5 17t51.5 14l14 5l3 -3q-8 -28 -8 -76v-117q1 3 10 10t30.5 16t46.5 9q59 0 94.5 -45.5t35.5 -106.5q0 -74 -52 -129t-150 -55q-18 0 -59.5 4t-58.5 4zM147 334q11 -6 29 -6q40 0 63 35.5
t23 87.5q0 48 -19 82t-59 34q-10 0 -19.5 -2.5t-13.5 -4.5l-4 -3v-223z" />
    <glyph glyph-name="c.sups" unicode="&#xe363;" horiz-adv-x="329" 
d="M174 289q-71 0 -111.5 47t-40.5 112q0 70 45 123.5t123 53.5q27 0 51 -4t44.5 -18t20.5 -35q0 -13 -10 -24t-27 -11q-20 0 -42.5 28t-43.5 28q-32 0 -50 -31.5t-18 -75.5q0 -54 26.5 -90t77.5 -36q18 0 38 7t31 14l11 7l10 -25l-5 -7.5t-15.5 -16.5t-27 -21.5t-38 -17
t-49.5 -7.5z" />
    <glyph glyph-name="d.sups" unicode="&#xe364;" horiz-adv-x="404" 
d="M150 289q-54 0 -91 43.5t-37 105.5q0 73 51.5 130t134.5 57l33 -2v62q0 15 -0.5 21.5t-5.5 12t-15 5.5h-26v26q48 8 86 17t52 14l13 5l3 -3q-8 -28 -8 -76v-338q0 -18 5 -26.5t10.5 -10t18.5 -1.5h20l-2 -26l-148 -15l-3 3q3 26 3 42l-2 -1q-1 -2 -3 -4.5t-5 -5.5t-7 -6
l-9 -6.5l-10 -7t-12 -6l-14 -5t-15 -3.5t-17 -1zM198 350q10 0 21 3t17 6l5 3v190q0 34 -30 34q-41 0 -64 -36t-23 -86q0 -45 18.5 -79.5t55.5 -34.5z" />
    <glyph glyph-name="e.sups" unicode="&#xe365;" horiz-adv-x="334" 
d="M176 289q-72 0 -113 47.5t-41 114.5q0 73 46.5 123.5t115.5 50.5q54 0 90 -32t37 -95q-34 -13 -48 -15l-138 -19l-8 -10q13 -98 100 -98q20 0 41.5 8t32.5 16l11 8l11 -24q-2 -3 -5 -8t-15.5 -18t-27 -23t-38.5 -18t-51 -8zM116 504l103 12q0 3 -0.5 8t-3.5 17t-8 21.5
t-15 17.5t-23 8q-20 0 -34.5 -24t-18.5 -60z" />
    <glyph glyph-name="f.sups" unicode="&#xe366;" horiz-adv-x="260" 
d="M25 295v28q40 4 40 43v203h-41v33l41 14v11q0 66 47.5 110t114.5 44q36 0 64 -13t28 -40q0 -15 -10.5 -25.5t-27.5 -10.5q-21 0 -47 24t-34 24q-36 0 -36 -98v-25h91l-7 -46h-75l-9 -9v-196l-3 -37l73 -5l-3 -25z" />
    <glyph glyph-name="g.sups" unicode="&#xe367;" horiz-adv-x="364" 
d="M160 133q-53 0 -100 22.5t-47 59.5q0 20 18 38t33.5 26t31.5 13q-59 19 -59 54q0 21 18 34.5t58 29.5q-40 10 -65 36.5t-25 65.5q0 53 42.5 83t103.5 30q23 0 53.5 -6.5t46.5 -6.5h33q9 0 22.5 3t21.5 5l9 3l-9 -61h-48q19 -18 19 -53q0 -48 -43.5 -77t-105.5 -29
q-19 0 -29 1q-9 -14 -9 -19q0 -12 34 -20.5t74 -15t74 -29.5t34 -60q0 -52 -59 -89.5t-127 -37.5zM260 222q0 11 -7 19t-24 14.5t-29 10t-39 9.5t-37 9q-25 -30 -25 -55q0 -27 22.5 -43.5t56.5 -16.5q30 0 56 15.5t26 37.5zM170 438q25 0 37.5 20t12.5 50q0 33 -13.5 58
t-39.5 25q-24 0 -35.5 -22t-11.5 -55q0 -76 50 -76z" />
    <glyph glyph-name="h.sups" unicode="&#xe368;" horiz-adv-x="418" 
d="M20 295v28q39 4 39 43v319q0 15 -1 21.5t-5.5 12t-14.5 5.5h-26v26q48 8 85.5 17t51.5 14l14 5l3 -3q-8 -28 -8 -76v-140l14 16t38.5 26t61.5 16q87 0 87 -96v-163l-3 -35l55 -7l-3 -25l-176 -4v28q28 4 28 43v137q0 33 -7.5 45t-26.5 12q-37 0 -68 -24v-170l-3 -35
l37 -8l-2 -24z" />
    <glyph glyph-name="i.sups" unicode="&#xe369;" horiz-adv-x="226" 
d="M24 295v28q40 4 40 43v164q0 19 -0.5 26t-4.5 12.5t-13 5.5h-30v26q38 6 76 15t57 15l19 6l3 -3q-8 -25 -8 -81v-186l-4 -37l56 -5l-2 -25zM109 693q-23 0 -39.5 16t-16.5 40q0 21 16.5 36.5t39.5 15.5q21 0 37 -15.5t16 -36.5q0 -24 -16 -40t-37 -16z" />
    <glyph glyph-name="j.sups" unicode="&#xe36a;" horiz-adv-x="207" 
d="M-9 133l-8 24q31 5 53.5 41.5t22.5 87.5v244q0 19 -0.5 26t-4.5 12.5t-13 5.5h-30v26q38 6 76 15t57 15l19 6l3 -3q-8 -25 -8 -81v-219q0 -99 -44 -149.5t-123 -50.5zM104 693q-23 0 -39.5 16t-16.5 40q0 21 16.5 36.5t39.5 15.5q21 0 37 -15.5t16 -36.5q0 -24 -16 -40
t-37 -16z" />
    <glyph glyph-name="k.sups" unicode="&#xe36b;" horiz-adv-x="410" 
d="M20 295v28q39 4 39 43v319q0 15 -1 21.5t-5.5 12t-14.5 5.5h-26v26q48 8 85.5 17t51.5 14l14 5l3 -3q-8 -28 -8 -76v-213h14l67 59q12 11 17 18t1 13.5t-20 9.5v24h144l5 -14q-55 -17 -80 -39l-57 -52v-10l104 -140q11 -15 15.5 -20.5t14.5 -11t24 -6.5l-3 -28l-135 -2
q-8 30 -23 49l-75 110h-13v-88l-3 -36l48 -7l-3 -24z" />
    <glyph glyph-name="l.sups" unicode="&#xe36c;" horiz-adv-x="222" 
d="M20 295v28q40 4 40 43v319q0 15 -1 21.5t-5.5 12t-14.5 5.5h-26v26q48 8 86 17t51 14l14 5l3 -3q-8 -28 -8 -76v-341l-3 -37l56 -5l-3 -25z" />
    <glyph glyph-name="m.sups" unicode="&#xe36d;" horiz-adv-x="618" 
d="M25 295v28q40 4 40 43v164q0 19 -0.5 26t-4.5 12.5t-13 5.5h-31v26q38 6 75.5 15t56.5 15l18 6l3 -3q-7 -15 -10 -71q5 7 14.5 17.5t39 28t59.5 17.5q74 0 85 -61q5 7 13.5 17t38 27t61.5 17q89 0 89 -96v-163l-3 -35l55 -7l-2 -25l-176 -4v27q27 4 27 44v137q0 33 -8 45
t-27 12q-22 0 -43 -11t-21 -29v-154l-3 -35l36 -5l-4 -27l-155 -4v27q27 4 27 44v137q0 33 -7.5 45t-25.5 12q-35 0 -65 -24v-170l-3 -35l35 -5l-3 -27z" />
    <glyph glyph-name="o.sups" unicode="&#xe36e;" horiz-adv-x="395" 
d="M191 289q-76 0 -122.5 45.5t-46.5 116.5q0 70 45 122t133 52q79 0 126 -43.5t47 -112.5q0 -72 -48.5 -126t-133.5 -54zM203 325q64 0 64 131q-1 53 -19.5 93t-54.5 40q-32 0 -49 -35t-17 -85q0 -57 19.5 -100.5t56.5 -43.5z" />
    <glyph glyph-name="p.sups" unicode="&#xe36f;" horiz-adv-x="396" 
d="M26 135v32q19 11 25.5 25.5t6.5 39.5v298q0 19 -0.5 26t-4.5 12.5t-13 5.5h-27v26q36 6 72.5 15t54.5 15l19 6l3 -3q-6 -13 -9 -56q38 48 91 48q56 0 93 -43t37 -106q0 -74 -50 -130.5t-136 -56.5l-31 2v-58l-3 -38h69l-3 -26q-120 -11 -194 -34zM187 328q42 0 63.5 34.5
t21.5 85.5q0 47 -17.5 81.5t-53.5 34.5q-11 0 -22 -3t-17 -6l-5 -3v-190q0 -34 30 -34z" />
    <glyph glyph-name="q.sups" unicode="&#xe370;" horiz-adv-x="387" 
d="M200 135v28q40 22 40 65v95l-2 -2q-3 -2 -7 -5l-9 -6.5t-12.5 -7t-15 -6.5t-17.5 -5t-20 -2q-63 0 -99 45t-36 105q0 75 52.5 130.5t146.5 55.5q5 0 46 -4.5t75 -3.5l3 -3q-6 -28 -6 -71v-316l-3 -37h48l-3 -24q-44 -4 -89 -11.5t-68 -13.5zM200 347q12 0 22 2.5t14 4.5
l4 3v223q-13 6 -29 6q-41 0 -64 -35.5t-23 -87.5q0 -47 19.5 -81.5t56.5 -34.5z" />
    <glyph glyph-name="r.sups" unicode="&#xe371;" horiz-adv-x="300" 
d="M25 295v28q39 4 39 43v164q0 19 -0.5 26t-4.5 12.5t-13 5.5h-30v26q38 6 75 15t55 15l19 6l3 -3q-7 -15 -10 -71q44 63 93 63q23 0 35 -13.5t12 -31.5q0 -19 -12.5 -32t-34.5 -13q-13 0 -26 9t-18 9q-8 0 -19 -5t-18 -10l-7 -5v-167l-4 -37l63 -5l-2 -25z" />
    <glyph glyph-name="s.sups" unicode="&#xe372;" horiz-adv-x="290" 
d="M139 289q-41 0 -78 13t-37 39q0 7 3.5 21.5t6.5 25.5l3 11h35q3 -40 23.5 -58t44.5 -18q17 0 28.5 9.5t11.5 24.5q0 17 -15 30.5t-37 24.5t-44 24.5t-37 35.5t-15 52q0 47 34.5 74t88.5 27q19 0 44 -3.5t41 -6.5l16 -3l-15 -83h-35q-5 62 -51 62q-16 0 -25.5 -9t-9.5 -24
q0 -21 23 -37.5t50 -27t50 -36.5t23 -64q0 -51 -35.5 -77.5t-91.5 -26.5z" />
    <glyph glyph-name="t.sups" unicode="&#xe373;" horiz-adv-x="282" 
d="M147 289q-90 0 -90 93v143l2 44h-44v33q31 5 48 17l28 84l67 -3l4 -5q-6 -15 -6 -67v-11h98l-5 -46h-84l-9 -9v-152q0 -32 8.5 -46.5t31.5 -14.5q12 0 27 4.5t24 8.5l9 5l14 -23q-5 -6 -15 -15t-42.5 -24.5t-65.5 -15.5z" />
    <glyph glyph-name="u.sups" unicode="&#xe374;" horiz-adv-x="414" 
d="M147 289q-43 0 -68 23.5t-25 72.5v144q0 25 -2.5 35t-12.5 10h-26v27q50 8 86 15.5t47 11.5l11 3l3 -3q-7 -22 -7 -76v-141q0 -57 34 -57q33 0 65 28v147q0 25 -2.5 35t-12.5 10h-23v27q49 8 84 15.5t46 11.5l11 3l3 -3q-7 -22 -7 -76v-183q0 -18 5 -26.5t10.5 -10
t18.5 -1.5h20l-2 -25l-147 -16l-4 3q5 22 5 40v22q-5 -7 -14.5 -18t-38.5 -29.5t-57 -18.5z" />
    <glyph glyph-name="v.sups" unicode="&#xe375;" horiz-adv-x="331" 
d="M136 300l-103 254q-6 16 -16 26t-17 12l-6 2v24h36l107 4l4 -4q-2 -3 -3.5 -9t-3.5 -24t5 -32l57 -151l63 144q16 37 -37 48v24h111l3 -13q-9 -6 -23 -38l-124 -281z" />
    <glyph glyph-name="w.sups" unicode="&#xe376;" horiz-adv-x="519" 
d="M133 300l-100 254q-6 16 -16 26t-17 12l-6 2v24h36l106 4l4 -4q-2 -4 -3.5 -9.5t-3.5 -24t5 -31.5l55 -150l41 95q10 22 -8 58q-15 31 -32 38v24h31l103 4l4 -4q-2 -3 -3.5 -9t-3.5 -24t5 -32l56 -149l62 141q15 35 -37 48v24h111l1 -14q-9 -9 -21 -36l-124 -280l-52 13
l-64 160l-77 -173z" />
    <glyph glyph-name="x.sups" unicode="&#xe377;" horiz-adv-x="365" 
d="M187 295v29q34 0 18 24l-44 66l-66 -84l48 -7l-3 -24l-131 -4v27q31 3 48 24l81 101l-79 114q-10 14 -21.5 22t-18.5 9l-7 1v25h32l110 4l4 -4q-9 -26 8 -51l37 -55l44 56q9 11 -1.5 17t-30.5 9v24h129l4 -14q-27 -7 -49 -35l-73 -91l106 -152l29 -3l-2 -24z" />
    <glyph glyph-name="y.sups" unicode="&#xe378;" horiz-adv-x="330" 
d="M51 133q-18 0 -29 11t-11 26t11 26t35 11q31 0 50 13.5t36 50.5l7 15l-117 268q-7 15 -17 25t-16 13l-7 2v24h37l105 2l5 -4q-2 -4 -3.5 -9.5t-3 -23t5.5 -30.5l62 -150l58 143q7 17 -4.5 29.5t-33.5 18.5v24h110l3 -13q-10 -11 -22 -38l-111 -263l-19 -43t-23 -43.5
t-30 -43.5t-35 -28.5t-43 -12.5z" />
    <glyph glyph-name="z.sups" unicode="&#xe379;" horiz-adv-x="328" 
d="M24 292l-7 25q10 10 25 34l142 231h-59q-21 0 -37.5 -14t-22.5 -28l-6 -15h-35l12 93h216l47 3l6 -23q-9 -10 -24 -35l-141 -231h51q30 0 50.5 16t26.5 32l5 15h35l-18 -99h-216z" />
    <glyph glyph-name="egrave.sups" unicode="&#xe37a;" horiz-adv-x="334" 
d="M176 289q-72 0 -113 47.5t-41 114.5q0 73 46.5 123.5t115.5 50.5q54 0 90 -32t37 -95q-34 -13 -48 -15l-138 -19l-8 -10q13 -98 100 -98q20 0 41.5 8t32.5 16l11 8l11 -24q-2 -3 -5 -8t-15.5 -18t-27 -23t-38.5 -18t-51 -8zM116 504l103 12q0 3 -0.5 8t-3.5 17t-8 21.5
t-15 17.5t-23 8q-20 0 -34.5 -24t-18.5 -60zM79 700v23l34 57h4l154 -91l-15 -32z" />
    <glyph glyph-name="ampersand.001" unicode="&#xe37b;" horiz-adv-x="591" 
d="M26 129q0 105 152 208q-64 115 -64 187q0 63 50.5 109t138.5 46q76 0 120.5 -35.5t44.5 -92.5q0 -55 -41 -99.5t-114 -91.5q105 -170 274 -329.5t254 -159.5q30 0 56 14l10 -33q-51 -40 -125 -40q-84 0 -197 76t-213.5 185.5t-171.5 224.5q-54 -47 -54 -117
q0 -67 38.5 -98t93.5 -31q10 0 21.5 2t17.5 4l6 2l13 -28q-5 -5 -15.5 -12.5t-45 -19.5t-72.5 -12q-78 0 -127.5 41.5t-49.5 99.5zM236 557q0 -59 53 -155q67 64 67 134q0 37 -15.5 68t-48.5 31q-24 0 -40 -22t-16 -56z" />
    <glyph glyph-name="exclamdown.uc" unicode="&#xe441;" horiz-adv-x="312" 
d="M179 462l64 -454q-40 -8 -82.5 -18t-65.5 -16l-23 -7l-6 8q15 37 25 118l51 369h37zM239 602q0 -32 -22.5 -55t-54.5 -23t-55 23t-23 55t23 54.5t55 22.5t54.5 -22.5t22.5 -54.5z" />
    <glyph glyph-name="questiondown.uc" unicode="&#xe444;" horiz-adv-x="388" 
d="M251 461q5 -22 5 -55q0 -38 -14 -71.5t-30.5 -52.5t-30.5 -40t-14 -36q0 -25 44.5 -54.5t89.5 -45.5l45 -17l-26 -131q-12 4 -32.5 11.5t-72 30.5t-91 46.5t-72 57.5t-32.5 65q0 24 20 50t49 50.5l58 51.5t49 63.5t20 76.5h35zM309 602q0 -32 -22.5 -55t-54.5 -23t-55 23
t-23 55t23 54.5t55 22.5t54.5 -22.5t22.5 -54.5z" />
    <glyph glyph-name="guillemotleft.uc" unicode="&#xe451;" horiz-adv-x="507" 
d="M232 120l-159.5 164t-51.5 47v4q16 11 44.5 40l166.5 172l36 -10l-121 -204l121 -203zM222 331v4q16 11 44.5 40l166.5 172l36 -10l-121 -204l121 -203l-36 -10l-159.5 164t-51.5 47z" />
    <glyph glyph-name="guillemotright.uc" unicode="&#xe452;" horiz-adv-x="507" 
d="M239 130l121 203l-121 204l36 10l166.5 -172t44.5 -40v-4q-17 -13 -51.5 -47l-159.5 -164zM38 130l121 203l-121 204l36 10l166.5 -172t44.5 -40v-4q-17 -13 -51.5 -47l-159.5 -164z" />
    <glyph glyph-name="guilsinglleft.uc" unicode="&#xe453;" horiz-adv-x="310" 
d="M236 120l-164 165.5t-52 45.5v4q17 12 48.5 43l167.5 169l36 -10l-121 -204l121 -203z" />
    <glyph glyph-name="guilsinglright.uc" unicode="&#xe454;" horiz-adv-x="310" 
d="M38 130l121 203l-121 204l36 10l167.5 -169t48.5 -43v-4q-18 -12 -52 -45.5l-164 -165.5z" />
    <glyph glyph-name="braceleft.uc" unicode="&#xe459;" horiz-adv-x="345" 
d="M116 10v16q0 37 -0.5 59t-3 62t-10 64.5t-19 51.5t-32 40.5t-47.5 14.5v41q21 1 37.5 8t28 23t20 31t13 41.5l7.5 43.5t4.5 48t1.5 44v43v16q0 81 58 120.5t156 39.5l5 -41q-79 -6 -100.5 -40t-21.5 -132q0 -223 -111 -264v-2q47 -18 79 -83.5t32 -191.5q0 -97 21.5 -131
t100.5 -41l-5 -41q-214 0 -214 160z" />
    <glyph glyph-name="slash.uc" unicode="&#xe461;" horiz-adv-x="328" 
d="M-42 -98l333 863h79l-332 -863h-80z" />
    <glyph glyph-name="backslash.uc" unicode="&#xe462;" horiz-adv-x="328" 
d="M290 -98l-332 863h79l333 -863h-80z" />
    <glyph glyph-name="bar.uc" unicode="&#xe463;" horiz-adv-x="244" 
d="M77 -154v974h90v-974h-90z" />
    <glyph glyph-name="slash.smcp" unicode="&#xe467;" horiz-adv-x="339" 
d="M-24 -160l302 782h79l-301 -782h-80z" />
    <glyph glyph-name="backslash.smcp" unicode="&#xe468;" horiz-adv-x="338" 
d="M282 -160l-300 782h79l301 -782h-80z" />
    <glyph glyph-name="bar.smcp" unicode="&#xe469;" horiz-adv-x="242" 
d="M78 -150v783h86v-783h-86z" />
    <glyph glyph-name="hyphen.uc" unicode="&#xe482;" horiz-adv-x="368" 
d="M51 293v80h266v-80h-266z" />
    <glyph glyph-name="endash.uc" unicode="&#xe484;" horiz-adv-x="514" 
d="M52 298v71h410v-71h-410z" />
    <glyph glyph-name="emdash.uc" unicode="&#xe486;" horiz-adv-x="904" 
d="M52 298v71h800v-71h-800z" />
    <glyph glyph-name="parenleft.uc" unicode="&#xe491;" horiz-adv-x="285" 
d="M32 348q0 74 18 145t43.5 119.5t51.5 86.5t44 57l18 18l40 -17q-5 -7 -12.5 -20t-27 -55t-34.5 -87t-27.5 -112.5t-12.5 -134.5q0 -73 14 -145t34.5 -122t41 -89.5t34.5 -59.5l14 -19l-39 -21q-8 7 -21.5 20.5t-48 59t-61 95t-48 126.5t-21.5 155z" />
    <glyph glyph-name="parenright.uc" unicode="&#xe492;" horiz-adv-x="284" 
d="M16 -87l14 20t32 57t40.5 91.5t32 120.5t14.5 146q0 106 -27.5 207t-54.5 149l-27 48l40 22q7 -7 18.5 -19.5t40.5 -54.5t51.5 -88.5t41 -118t18.5 -145.5q0 -78 -20 -154t-49 -128t-57.5 -93t-48.5 -61l-20 -20z" />
    <glyph glyph-name="bracketleft.uc" unicode="&#xe493;" horiz-adv-x="295" 
d="M78 -81v829h200v-56h-113v-717h113v-56h-200z" />
    <glyph glyph-name="bracketright.uc" unicode="&#xe494;" horiz-adv-x="295" 
d="M17 -25h113v717h-113v56h200v-829h-200v56z" />
    <glyph glyph-name="braceright.uc" unicode="&#xe496;" horiz-adv-x="345" 
d="M132 63q0 126 32 191.5t79 83.5v2q-111 41 -111 264q0 98 -21.5 132t-100.5 40l5 41q98 0 156 -39.5t58 -120.5v-16v-49t2 -51.5t6 -54t12.5 -47t20 -42t30 -26.5t41.5 -12v-41q-21 -1 -37.5 -8.5t-28 -24t-20 -32.5t-13 -43.5t-8 -45t-4.5 -49.5t-1 -45.5v-43.5v-16
q0 -160 -214 -160l-5 41q79 7 100.5 40.5t21.5 131.5z" />
    <glyph glyph-name="zero.zero" unicode="&#xe515;" horiz-adv-x="573" 
d="M286 52q58 0 85 52.5t27 131.5t-27 133t-84 54q-58 0 -85 -54t-27 -134q0 -78 27 -130.5t84 -52.5zM47 232q0 101 65.5 178t180.5 77q110 0 171.5 -70t61.5 -168q0 -65 -26.5 -123t-84 -98t-135.5 -40q-110 0 -171.5 72.5t-61.5 171.5zM232 237q0 22 16 38t38 16t38 -16
t16 -38t-16 -38t-38 -16t-38 16t-16 38z" />
    <glyph glyph-name="four.pnum" unicode="&#xe529;" horiz-adv-x="527" 
d="M20 173l-17 69l305 421l92 16l5 -3q-5 -32 -5 -109v-313h97l-16 -81h-81v-74l-5 -54l85 -9l-4 -33l-277 -6v37q32 4 49.5 21t17.5 44v74h-246zM266 254v200q0 27 4 65l-193 -265h189z" />
    <glyph glyph-name="zero.tnum_zero" unicode="&#xe530;" 
d="M259 43q28 0 47 25t28 70.5t12 91t3 105.5t-3 104.5t-11.5 90t-27.5 70t-47 24.5q-29 0 -48 -24.5t-28 -69.5t-12 -90t-3 -104q0 -293 90 -293zM252 -12q-60 0 -105 28t-71 75.5t-39 105t-13 123.5q0 94 24 172.5t80.5 132.5t138.5 54q79 0 132 -48.5t74 -119.5t21 -159
q0 -70 -14 -133t-42.5 -115.5t-76 -84t-109.5 -31.5zM259 278q-22 0 -38 16t-16 38t16 38t38 16t38 -16t16 -38t-16 -38t-38 -16z" />
    <glyph glyph-name="at.uc" unicode="&#xe531;" horiz-adv-x="823" 
d="M393 182q27 0 66 30v306q-5 -1 -13 -3t-29 -16t-37.5 -35.5t-29.5 -65t-13 -100.5q0 -116 56 -116zM23 293q0 168 127.5 291t304.5 123q152 0 254.5 -94t102.5 -236q0 -60 -18.5 -115.5t-66.5 -100.5t-119 -52l-151 -15l-2 4q8 29 8 54v33q-50 -90 -124 -90q-52 0 -95 42
t-43 136q0 127 81.5 209.5t203.5 82.5q22 0 50 -3t45 -6l17 -3q-11 -44 -11 -84v-268q0 -47 33 -47t63 45t30 141q0 144 -72.5 230t-206.5 86q-75 0 -135 -28.5t-97.5 -77t-57 -108.5t-19.5 -127q0 -128 67.5 -224t188.5 -110l-10 -45q-150 6 -249 108t-99 249z" />
    <glyph glyph-name="zero.pnum" unicode="&#xe534;" horiz-adv-x="570" 
d="M284 43q28 0 47 25t28 70.5t12 91t3 105.5t-3 104.5t-11.5 90t-27.5 70t-47 24.5q-29 0 -48 -24.5t-28 -69.5t-12 -90t-3 -104q0 -293 90 -293zM277 -12q-60 0 -105 28t-71 75.5t-39 105t-13 123.5q0 94 24 172.5t80.5 132.5t138.5 54q79 0 132 -48.5t74 -119.5t21 -159
q0 -70 -14 -133t-42.5 -115.5t-76 -84t-109.5 -31.5z" />
    <glyph glyph-name="zero.pnum_zero" unicode="&#xe535;" horiz-adv-x="570" 
d="M284 43q28 0 47 25t28 70.5t12 91t3 105.5t-3 104.5t-11.5 90t-27.5 70t-47 24.5q-29 0 -48 -24.5t-28 -69.5t-12 -90t-3 -104q0 -293 90 -293zM277 -12q-60 0 -105 28t-71 75.5t-39 105t-13 123.5q0 94 24 172.5t80.5 132.5t138.5 54q79 0 132 -48.5t74 -119.5t21 -159
q0 -70 -14 -133t-42.5 -115.5t-76 -84t-109.5 -31.5zM284 278q-22 0 -38 16t-16 38t16 38t38 16t38 -16t16 -38t-16 -38t-38 -16z" />
    <glyph glyph-name="one.pnum" unicode="&#xe536;" horiz-adv-x="419" 
d="M35 -3v42l51 3q24 1 39 6.5t21.5 15.5t8.5 18.5t2 21.5v413q0 46 -6 55t-28 4l-100 -23l-7 53q81 20 152.5 41t101.5 31l31 11l3 -3q-13 -40 -13 -117v-465l-5 -54l125 -9l-4 -38z" />
    <glyph glyph-name="two.pnum" unicode="&#xe537;" horiz-adv-x="513" 
d="M21 42q2 2 31 29.5l36.5 35l35 35.5t38 40.5l33.5 40t33 45l26 44.5t23 48.5t12.5 47.5t5.5 50q0 60 -33 91.5t-83 31.5q-69 0 -128 -50l-27 30q4 5 11 13t30 28t48 35.5t63.5 28.5t77.5 13q66 0 120 -44.5t54 -117.5q0 -22 -5.5 -46.5t-13.5 -46t-23.5 -48l-27 -45
t-33.5 -45.5l-34 -41.5t-37 -41l-34.5 -36.5l-34.5 -35l-29 -29h172q54 0 74 19.5t35 71.5h44l-26 -194h-420z" />
    <glyph glyph-name="three.pnum" unicode="&#xe538;" horiz-adv-x="485" 
d="M15 69q0 20 13 32.5t34 12.5q23 0 43 -19l42.5 -38.5t52.5 -19.5q47 0 75.5 40t28.5 97q0 58 -37 95t-108 37l-33 -2v64q61 10 100.5 46.5t39.5 91.5q0 42 -24 61t-63 19q-28 0 -54.5 -9t-38.5 -17l-12 -9l-27 33q3 4 9.5 10.5t26 22.5t40.5 28.5t52.5 23t62.5 10.5
q65 0 113.5 -33.5t48.5 -94.5t-47.5 -109t-111.5 -76q89 -7 147 -56t58 -115q0 -85 -75 -146t-182 -61q-26 0 -54 4t-56 12.5t-46 25.5t-18 39z" />
    <glyph glyph-name="five.pnum" unicode="&#xe53a;" horiz-adv-x="454" 
d="M31 68q0 21 12.5 33.5t32.5 12.5q22 0 41.5 -19l40.5 -38.5t46 -19.5q38 0 64 35.5t26 82.5q0 42 -24 76t-58 51.5t-68.5 29.5t-58.5 16l-24 3l18 336h244l70 6l-14 -107h-252l-7 -118q6 -1 17 -3t43 -11t61 -20t64 -31.5t60.5 -44.5t43 -60t17.5 -77q0 -86 -65.5 -149.5
t-173.5 -63.5q-60 0 -108 19.5t-48 60.5z" />
    <glyph glyph-name="six.pnum" unicode="&#xe53b;" horiz-adv-x="540" 
d="M278 -12q-111 0 -173 82.5t-62 198.5q0 73 25 144.5t72 131.5t123.5 97t169.5 37l6 -45q-64 -4 -114 -36t-79 -81.5t-43.5 -106.5t-14.5 -118q0 -102 27.5 -176.5t76.5 -74.5q38 0 60.5 45t22.5 106q0 26 -6 56t-18 60t-35.5 47.5t-54.5 12.5l-9 45q32 12 65 12
q92 0 145 -59t53 -137q0 -92 -64 -166.5t-173 -74.5z" />
    <glyph glyph-name="seven.pnum" unicode="&#xe53c;" horiz-adv-x="477" 
d="M321 418l54 127q-38 -4 -65 -4h-153q-53 0 -69.5 -10t-33.5 -57h-44l37 193h373l61 4l4 -29q-33 -52 -56 -106l-198 -463q-2 -5 -6.5 -15t-6 -14.5t-5.5 -12.5t-6 -11t-5.5 -9t-6 -8.5t-6.5 -6t-7.5 -5t-8.5 -2.5t-10 -1q-19 0 -31 11t-12 30q0 5 0.5 9.5t1.5 7.5
t3.5 8.5t4 8t6 9.5t7 10t9.5 12t10 14q65 90 159 310z" />
    <glyph glyph-name="eight.pnum" unicode="&#xe53d;" horiz-adv-x="529" 
d="M44 149q0 33 11.5 61t34 51t43 38.5t51.5 34.5q-56 48 -86.5 92t-30.5 98q0 71 55.5 113t149.5 42q87 0 138.5 -37.5t51.5 -98.5q0 -51 -32.5 -86.5t-94.5 -74.5q48 -40 74.5 -65t51.5 -67.5t25 -84.5q0 -77 -65 -127t-162 -50q-87 0 -151 41t-64 120zM158 166
q0 -56 29 -90.5t72 -34.5q38 0 65.5 25t27.5 65q0 24 -9.5 46.5t-33.5 47.5t-40 38.5l-51 42.5q-60 -57 -60 -140zM199 557q0 -37 25.5 -70.5t73.5 -74.5q48 55 48 125q0 42 -18.5 65.5t-55.5 23.5q-33 0 -53 -18t-20 -51z" />
    <glyph glyph-name="nine.pnum" unicode="&#xe53e;" horiz-adv-x="533" 
d="M94 33q64 4 114 36t79 81.5t43.5 106.5t14.5 118q0 102 -27.5 176.5t-76.5 74.5q-36 0 -57 -45t-21 -106q0 -26 5 -54.5t16.5 -57.5t34 -46t53.5 -13l9 -45q-32 -12 -65 -12q-90 0 -141.5 57.5t-51.5 133.5q0 58 25.5 112t80 91.5t126.5 37.5q111 0 173 -82.5t62 -198.5
q0 -73 -25 -144.5t-72 -131.5t-123.5 -97t-169.5 -37z" />
    <glyph glyph-name="zero.tnum" unicode="&#xe53f;" 
d="M259 43q28 0 47 25t28 70.5t12 91t3 105.5t-3 104.5t-11.5 90t-27.5 70t-47 24.5q-29 0 -48 -24.5t-28 -69.5t-12 -90t-3 -104q0 -293 90 -293zM252 -12q-60 0 -105 28t-71 75.5t-39 105t-13 123.5q0 94 24 172.5t80.5 132.5t138.5 54q79 0 132 -48.5t74 -119.5t21 -159
q0 -70 -14 -133t-42.5 -115.5t-76 -84t-109.5 -31.5z" />
    <glyph glyph-name="one.tnum" unicode="&#xe541;" 
d="M85 -3v42l51 3q24 1 39 6.5t21.5 15.5t8.5 18.5t2 21.5v413q0 46 -6 55t-28 4l-100 -23l-7 53q81 20 152.5 41t101.5 31l31 11l3 -3q-13 -40 -13 -117v-465l-5 -54l125 -9l-4 -38z" />
    <glyph glyph-name="two.tnum" unicode="&#xe542;" 
d="M24 42q2 2 31 29.5l36.5 35l35 35.5t38 40.5l33.5 40t33 45l26 44.5t23 48.5t12.5 47.5t5.5 50q0 60 -33 91.5t-83 31.5q-69 0 -128 -50l-27 30q4 5 11 13t30 28t48 35.5t63.5 28.5t77.5 13q66 0 120 -44.5t54 -117.5q0 -22 -5.5 -46.5t-13.5 -46t-23.5 -48l-27 -45
t-33.5 -45.5l-34 -41.5t-37 -41l-34.5 -36.5l-34.5 -35l-29 -29h172q54 0 74 19.5t35 71.5h44l-26 -194h-420z" />
    <glyph glyph-name="three.tnum" unicode="&#xe543;" 
d="M32 69q0 20 13 32.5t34 12.5q23 0 43 -19l42.5 -38.5t52.5 -19.5q47 0 75.5 40t28.5 97q0 58 -37 95t-108 37l-33 -2v64q61 10 100.5 46.5t39.5 91.5q0 42 -24 61t-63 19q-28 0 -54.5 -9t-38.5 -17l-12 -9l-27 33q3 4 9.5 10.5t26 22.5t40.5 28.5t52.5 23t62.5 10.5
q65 0 113.5 -33.5t48.5 -94.5t-47.5 -109t-111.5 -76q89 -7 147 -56t58 -115q0 -85 -75 -146t-182 -61q-26 0 -54 4t-56 12.5t-46 25.5t-18 39z" />
    <glyph glyph-name="four.tnum" unicode="&#xe544;" 
d="M16 173l-17 69l305 421l92 16l5 -3q-5 -32 -5 -109v-313h97l-16 -81h-81v-74l-5 -54l85 -9l-4 -33l-277 -6v37q32 4 49.5 21t17.5 44v74h-246zM262 254v200q0 27 4 65l-193 -265h189z" />
    <glyph glyph-name="five.tnum" unicode="&#xe545;" 
d="M64 68q0 21 12.5 33.5t32.5 12.5q22 0 41.5 -19l40.5 -38.5t46 -19.5q38 0 64 35.5t26 82.5q0 42 -24 76t-58.5 51.5t-68.5 29.5t-58 16l-24 3l18 336h244l70 6l-14 -107h-252l-7 -118q6 -1 17 -3t43 -11t61 -20t64 -31.5t60.5 -44.5t43 -60t17.5 -77q0 -86 -65.5 -149.5
t-173.5 -63.5q-60 0 -108 19.5t-48 60.5z" />
    <glyph glyph-name="six.tnum" unicode="&#xe546;" 
d="M268 -12q-111 0 -173 82.5t-62 198.5q0 73 25 144.5t72 131.5t123.5 97t169.5 37l6 -45q-64 -4 -114 -36t-79 -81.5t-43.5 -106.5t-14.5 -118q0 -102 27.5 -176.5t76.5 -74.5q38 0 60.5 45t22.5 106q0 26 -6 56t-18 60t-35.5 47.5t-54.5 12.5l-9 45q32 12 65 12
q92 0 145 -59t53 -137q0 -92 -64 -166.5t-173 -74.5z" />
    <glyph glyph-name="seven.tnum" unicode="&#xe547;" 
d="M342 418l54 127q-38 -4 -65 -4h-153q-53 0 -69.5 -10t-33.5 -57h-44l37 193h373l61 4l4 -29q-33 -52 -56 -106l-198 -463q-2 -5 -6.5 -15t-6 -14.5t-5.5 -12.5t-6 -11t-5.5 -9t-6 -8.5t-6.5 -6t-7.5 -5t-8.5 -2.5t-10 -1q-19 0 -31 11t-12 30q0 5 0.5 9.5t1.5 7.5
t3.5 8.5t4 8t6 9.5t7 10t9.5 12t10 14q65 90 159 310z" />
    <glyph glyph-name="eight.tnum" unicode="&#xe548;" 
d="M39 149q0 33 11.5 61t34 51t43 38.5t51.5 34.5q-56 48 -86.5 92t-30.5 98q0 71 55.5 113t149.5 42q87 0 138.5 -37.5t51.5 -98.5q0 -51 -32.5 -86.5t-94.5 -74.5q48 -40 74.5 -65t51.5 -67.5t25 -84.5q0 -77 -65 -127t-162 -50q-87 0 -151 41t-64 120zM153 166
q0 -56 29 -90.5t72 -34.5q38 0 65.5 25t27.5 65q0 24 -9.5 46.5t-33.5 47.5t-40 38.5l-51 42.5q-60 -57 -60 -140zM194 557q0 -37 25.5 -70.5t73.5 -74.5q48 55 48 125q0 42 -18.5 65.5t-55.5 23.5q-33 0 -53 -18t-20 -51z" />
    <glyph glyph-name="nine.tnum" unicode="&#xe549;" 
d="M87 33q64 4 114 36t79 81.5t43.5 106.5t14.5 118q0 102 -27.5 176.5t-76.5 74.5q-36 0 -57 -45t-21 -106q0 -26 5 -54.5t16.5 -57.5t34 -46t53.5 -13l9 -45q-32 -12 -65 -12q-90 0 -141.5 57.5t-51.5 133.5q0 58 25.5 112t80 91.5t126.5 37.5q111 0 173 -82.5t62 -198.5
q0 -73 -25 -144.5t-72 -131.5t-123.5 -97t-169.5 -37z" />
    <glyph glyph-name="zero.onum_tab" unicode="&#xe555;" 
d="M259 52q58 0 85 52.5t27 131.5t-27 133t-84 54q-58 0 -85 -54t-27 -134q0 -78 27 -130.5t84 -52.5zM20 232q0 101 65.5 178t180.5 77q110 0 171.5 -70t61.5 -168q0 -65 -26.5 -123t-84 -98t-135.5 -40q-110 0 -171.5 72.5t-61.5 171.5z" />
    <glyph glyph-name="zero.onum_tab_zero" unicode="&#xe556;" 
d="M259 52q58 0 85 52.5t27 131.5t-27 133t-84 54q-58 0 -85 -54t-27 -134q0 -78 27 -130.5t84 -52.5zM20 232q0 101 65.5 178t180.5 77q110 0 171.5 -70t61.5 -168q0 -65 -26.5 -123t-84 -98t-135.5 -40q-110 0 -171.5 72.5t-61.5 171.5zM205 237q0 22 16 38t38 16t38 -16
t16 -38t-16 -38t-38 -16t-38 16t-16 38z" />
    <glyph glyph-name="one.onum_tab" unicode="&#xe557;" 
d="M110 -5v39q47 0 65.5 14.5t18.5 49.5v279q0 35 -18 47t-71 12v39h306l-4 -37l-89 -11v-329l-5 -53l103 -10l-4 -35z" />
    <glyph glyph-name="two.onum_tab" unicode="&#xe558;" 
d="M66 0l-10 38q5 5 40.5 34.5t50 43t44 44t43.5 52t26 51.5t12 58q0 42 -22.5 61.5t-58.5 19.5q-58 0 -109 -32l-22 28q3 4 9 10t25 21t39.5 27t52 21.5t62.5 9.5q66 0 110.5 -37.5t44.5 -92.5t-49.5 -112t-159.5 -147h130q34 0 54.5 12t28 26.5t16.5 39.5q1 5 2 7h44
l-32 -183h-371z" />
    <glyph glyph-name="three.onum_tab" unicode="&#xe559;" 
d="M69 -156q39 4 73 13.5t69 28.5t55 52.5t20 78.5q0 66 -38.5 93.5t-94.5 27.5l-29 -2v55q63 6 102.5 52.5t39.5 97.5q0 31 -18 50.5t-53 19.5q-24 0 -50.5 -10.5t-40.5 -20.5l-14 -10l-18 25q3 4 8 10t22.5 22t36.5 28t49 22t61 10q64 0 108 -36t44 -91q0 -101 -166 -170
q87 -8 138 -51t51 -110q0 -71 -56.5 -125.5t-127.5 -78.5t-137 -24l-28 1z" />
    <glyph glyph-name="four.onum_tab" unicode="&#xe55a;" 
d="M19 29l-8 35l269 399l111 25l5 -2q-8 -38 -8 -109v-267h110l-14 -81h-96v-161q0 -17 -1 -31t-3 -19l-1 -5l-122 -12l-4 3q5 23 5 59v166h-243zM103 110h159v181q0 28 4 66z" />
    <glyph glyph-name="five.onum_tab" unicode="&#xe55b;" 
d="M87 -156q96 7 157 52.5t61 114.5q0 37 -22 66t-54 44t-63.5 25t-53.5 12l-22 3l17 314h233l70 6l-14 -102h-242l-6 -103q6 -1 16 -3t40 -10t57 -18.5t59.5 -29.5t56.5 -42t40 -57t16 -73q0 -105 -92.5 -173.5t-218.5 -68.5l-29 1z" />
    <glyph glyph-name="six.onum_tab" unicode="&#xe55c;" 
d="M271 -12q-110 0 -169.5 82.5t-59.5 204.5q0 76 24 146.5t70 129t121 93.5t168 35l6 -40q-128 -20 -190 -120t-62 -239q0 -101 29.5 -174.5t79.5 -73.5q38 0 58.5 41.5t20.5 103.5q0 27 -6 58.5t-18 64.5t-36 53.5t-55 16.5l-8 41q28 14 69 14q77 0 129.5 -56.5
t52.5 -143.5q0 -94 -59.5 -165.5t-164.5 -71.5z" />
    <glyph glyph-name="seven.onum_tab" unicode="&#xe55d;" 
d="M161 -79q78 107 169 305l60 132q-38 -4 -66 -4h-142q-50 0 -67 -11t-34 -56h-44l35 188h354l62 4l4 -29q-43 -77 -56 -106l-205 -458l-9 -20.5l-8.5 -19t-7.5 -15t-8.5 -13.5t-9.5 -9t-12 -6.5t-14 -1.5q-19 0 -31 12.5t-12 32.5q0 9 3.5 18t6.5 14t14.5 20z" />
    <glyph glyph-name="eight.onum_tab" unicode="&#xe55e;" 
d="M44 147q0 34 13 64.5t37.5 54.5t44 39t48.5 33q-57 50 -88.5 94.5t-31.5 96.5q0 67 54.5 108.5t144.5 41.5q86 0 136 -37t50 -97q0 -83 -121 -168q34 -29 54 -48.5t44 -48t35.5 -57.5t11.5 -60q0 -75 -64 -125t-158 -50q-84 0 -147 41t-63 118zM155 171q0 -63 28.5 -101
t71.5 -38q38 0 67.5 26.5t29.5 69.5q0 31 -21 65t-43.5 55.5t-65.5 58.5q-32 -27 -49.5 -56.5t-17.5 -79.5zM189 563q0 -38 26.5 -73t77.5 -81q46 46 46 124q0 49 -21.5 75.5t-56.5 26.5q-31 0 -51.5 -19.5t-20.5 -52.5z" />
    <glyph glyph-name="nine.onum_tab" unicode="&#xe55f;" 
d="M100 -159q128 20 190 118t62 235q0 101 -29.5 175t-78.5 74q-35 0 -54.5 -41t-19.5 -101q0 -28 4.5 -58.5t15.5 -64.5t34 -53.5t55 -14.5l8 -41q-33 -14 -70 -14q-73 0 -124.5 55.5t-51.5 140.5q0 93 59 164.5t161 71.5q109 0 168.5 -82.5t59.5 -203.5q0 -75 -24 -145.5
t-70 -128t-121 -92t-168 -34.5z" />
    <glyph glyph-name="braceleft.smcp" unicode="&#xf60c;" horiz-adv-x="336" 
d="M114 4v11q0 27 -0.5 42.5t-3 44.5t-10 47.5t-19 38.5t-32 30t-47.5 11v41q27 1 47.5 10t32 27.5t19 34.5t10 42t3 39t0.5 36v9q0 81 58 120.5t156 39.5l5 -41q-79 -6 -100.5 -40t-21.5 -132q0 -80 -30.5 -115t-80.5 -49v-2q50 -18 80.5 -60.5t30.5 -131.5
q0 -99 21.5 -133t100.5 -41l-5 -41q-214 0 -214 162z" />
    <glyph glyph-name="braceright.smcp" unicode="&#xf60d;" horiz-adv-x="336" 
d="M3 -117q79 7 100.5 41t21.5 133q0 89 30.5 131.5t80.5 60.5v2q-50 14 -80.5 49t-30.5 115q0 98 -21.5 132t-100.5 40l5 41q98 0 156 -39.5t58 -120.5v-9q0 -22 0.5 -35.5t3 -39.5t10 -42.5t19 -34.5t32 -27t47.5 -10v-41q-27 -1 -47.5 -11t-32 -30t-19 -38t-10 -47.5
t-3 -44.5t-0.5 -43v-11q0 -162 -214 -162z" />
    <glyph glyph-name="bracketleft.smcp" unicode="&#xf60e;" horiz-adv-x="294" 
d="M77 -156v783h200v-56h-113v-671h113v-56h-200z" />
    <glyph glyph-name="bracketright.smcp" unicode="&#xf60f;" horiz-adv-x="294" 
d="M17 -100h113v671h-113v56h200v-783h-200v56z" />
    <glyph glyph-name="parenleft.smcp" unicode="&#xf618;" horiz-adv-x="278" 
d="M35 260q0 65 17 128t41.5 106t49.5 76.5t42 49.5l17 16l40 -17l-11.5 -17.5t-26.5 -48.5t-33 -76.5t-26 -98.5t-12 -118q0 -69 13 -137t32 -115t38 -84t32 -56l13 -18l-39 -21q-8 7 -20.5 19.5t-44.5 55.5t-57 90t-45 119.5t-20 146.5z" />
    <glyph glyph-name="parenright.smcp" unicode="&#xf619;" horiz-adv-x="278" 
d="M17 -150l13.5 19.5t31 53.5t39 86t30.5 113.5t14 137.5q0 93 -27.5 182.5t-54.5 133.5l-27 43l40 17q7 -6 18 -17t40 -48t51 -78t40 -104.5t18 -128.5q0 -74 -19.5 -146t-46.5 -121t-54.5 -88t-46.5 -57l-20 -19z" />
    <glyph glyph-name="aringacute.smcp" unicode="&#xf625;" horiz-adv-x="489" 
d="M-7 0v30q38 5 53 41l160 387q-62 16 -62 79q0 32 25.5 55.5t75.5 23.5t75.5 -23.5t25.5 -55.5q0 -60 -59 -79l143 -364q13 -34 24.5 -48.5t33.5 -17.5l-4 -28h-36l-176 -4v35q44 2 31 36l-22 62h-146l-17 -13l-30 -76l74 -10l-6 -30h-163zM148 627l-19 41l192 113h5
l43 -71v-29zM227 281q-11 30 -18 63l-67 -167h122zM245 493q21 0 33.5 12t12.5 31q0 16 -12 28t-34 12t-33.5 -12t-11.5 -28q0 -19 11.5 -31t33.5 -12z" />
    <glyph glyph-name="zero.dnom" unicode="&#xf655;" horiz-adv-x="409" 
d="M205 25q47 0 47 178q0 176 -47 176q-48 0 -48 -175q0 -179 48 -179zM200 -7q-41 0 -72 17t-48.5 46t-26 63.5t-8.5 74.5q0 57 16 104t54 80t94 33q80 0 117.5 -56.5t37.5 -141.5q0 -57 -16 -105t-54 -81.5t-94 -33.5z" />
    <glyph glyph-name="one.dnom" unicode="&#xf656;" horiz-adv-x="322" 
d="M41 -2v33l42 2q23 1 29.5 10t6.5 25v241q0 16 -2.5 22.5t-7 6t-11.5 -1.5l-60 -14l-9 36q57 14 108 28.5t73 21.5l23 7l3 -4q-8 -21 -8 -68v-275l-2 -30l79 -5l-3 -31z" />
    <glyph glyph-name="two.dnom" unicode="&#xf657;" horiz-adv-x="373" 
d="M42 0l-9 31q101 99 122 129q40 59 40 108q0 35 -18.5 53t-46.5 18q-37 0 -74 -25l-22 25q7 8 19.5 20t51.5 32t79 20q49 0 86 -26.5t37 -71.5q0 -25 -10 -49.5t-40.5 -60.5t-48.5 -54.5l-72 -71.5h109q27 0 38.5 11.5t20.5 41.5h33l-18 -130h-277z" />
    <glyph glyph-name="three.dnom" unicode="&#xf658;" horiz-adv-x="359" 
d="M147 -7q-44 0 -81.5 11t-37.5 38q0 12 10 19.5t23 7.5q25 0 47 -23t42 -23q19 0 34 27t15 59q0 34 -19.5 56t-53.5 22l-29 -3v40q82 16 82 86q0 40 -47 40q-34 0 -61 -18l-20 26q5 6 15 15t42 23.5t66 14.5q51 0 85 -20.5t34 -60.5q0 -35 -30.5 -62t-70.5 -42
q54 -8 90.5 -38.5t36.5 -68.5q0 -52 -50.5 -89t-121.5 -37z" />
    <glyph glyph-name="four.dnom" unicode="&#xf659;" horiz-adv-x="387" 
d="M27 105l-8 39l191 258l82 9q-3 -20 -3 -69v-186h68l-10 -51h-58v-39l-2 -30l56 -5l-2 -29l-204 -4v30q45 5 45 38v39h-155zM72 156h110v144z" />
    <glyph glyph-name="five.dnom" unicode="&#xf65a;" horiz-adv-x="336" 
d="M139 -7q-37 0 -68 11t-31 38q0 12 9.5 19.5t22.5 7.5q22 0 42 -23t34 -23q21 0 36 20.5t15 48.5q0 24 -15 42.5t-36 28.5t-42 17t-36 9l-15 2l11 213h159l53 6l-11 -75h-167l-3 -55q21 -3 47.5 -10.5t65.5 -24t64.5 -47.5t25.5 -71q0 -53 -46.5 -93.5t-114.5 -40.5z" />
    <glyph glyph-name="six.dnom" unicode="&#xf65b;" horiz-adv-x="390" 
d="M39 164q0 94 70.5 170.5t191.5 76.5l4 -31q-79 -6 -117.5 -66t-38.5 -144q0 -55 15 -100.5t41 -45.5q19 0 30.5 27t11.5 65q0 13 -2 28.5t-6.5 35t-15 31.5t-25.5 10l-2 35q12 3 30 3q61 0 96.5 -36.5t35.5 -84.5q0 -54 -43.5 -99.5t-116.5 -45.5q-75 0 -117 50.5
t-42 120.5z" />
    <glyph glyph-name="seven.dnom" unicode="&#xf65c;" horiz-adv-x="341" 
d="M123 -7q-13 0 -20.5 8t-7.5 19q0 12 9.5 26.5t26 34.5t25.5 35q30 49 70 143l22 51h-133q-28 0 -37.5 -5.5t-18.5 -31.5h-33l26 131h225l49 5l1 -23q-24 -44 -32 -62l-102 -233q-3 -6 -10.5 -24.5t-12.5 -27.5l-12.5 -22t-16 -18.5t-18.5 -5.5z" />
    </font>
</defs>
</svg>
